<svg width="400" height="400" viewBox="0 0 400 400" fill="none" xmlns="http://www.w3.org/2000/svg">
    <g clip-path="url(#clip0_73_1152)">
        <path d="M200 400.071C310.457 400.071 400 310.512 400 200.036C400 89.559 310.457 0 200 0C89.5431 0 0 89.559 0 200.036C0 310.512 89.5431 400.071 200 400.071Z" fill="#CFE9FE"/>
        <path d="M151.945 270.623C142.396 277.117 131.511 279.981 120.052 279.026C108.402 278.072 98.2801 273.679 89.686 266.231L86.4393 262.984C76.8903 253.435 72.1158 241.976 72.4978 228.607C72.6888 215.238 77.8452 203.589 87.3942 194.039L132.656 148.777C142.205 139.228 153.664 134.453 166.651 134.453C179.829 134.453 191.287 139.228 200.836 148.777L204.083 152.023C213.059 161 217.834 172.458 218.025 185.636C218.215 199.196 213.632 210.464 204.083 220.013L195.298 228.798L213.823 247.323L222.608 238.538C232.348 228.607 239.032 217.148 241.897 204.352C244.762 191.557 244.762 178.761 241.515 166.156C238.268 153.551 231.775 142.474 222.608 133.307L219.361 130.06C210.194 120.893 198.927 114.4 186.131 110.771C173.335 107.143 160.54 107.143 147.935 110.389C135.33 113.636 124.062 120.32 114.322 130.06L69.0602 175.323C59.3202 185.063 52.6359 196.522 49.3892 208.936C46.1426 221.541 46.1426 234.337 49.7712 247.132C53.3998 259.928 59.8931 271.196 69.0602 280.363L72.3068 283.61C85.4844 296.788 101.527 303.854 119.861 305C121.58 305 123.107 305 124.635 305C141.251 305 156.529 299.653 169.898 289.339L171.998 287.621L153.664 269.286L152.136 270.432L151.945 270.623Z" fill="#0176D3"/>
        <path d="M348.282 149.947C344.633 137.167 338.103 125.914 328.884 116.758L325.619 113.515C312.558 100.354 296.425 93.2962 277.602 92.1517C258.972 91.0073 242.07 96.3481 227.281 107.793L225.169 109.509L243.799 128.012L245.335 126.867C254.939 120.382 265.694 117.33 277.41 118.474C289.126 119.428 299.306 123.815 307.949 131.254L311.022 134.306C320.241 144.416 324.85 156.051 324.85 169.212C324.85 182.374 320.433 193.246 311.214 202.402L264.926 248.371C255.323 257.909 243.799 262.868 230.738 262.868C217.678 262.868 205.962 258.099 196.359 248.562L193.094 245.32C184.067 236.355 179.265 224.91 179.073 211.558C178.881 198.396 183.49 186.761 193.094 177.224L201.929 168.45L184.067 150.71L175.232 159.485C165.436 169.212 158.714 180.657 155.449 193.246C152.184 205.835 152.184 218.425 155.449 231.014C158.714 243.603 165.052 254.666 174.463 263.822L177.728 267.064C186.948 276.411 198.279 282.896 211.148 286.33C217.87 288.237 224.592 289 231.123 289C237.269 289 243.415 288.237 249.561 286.711C262.237 283.468 273.569 276.792 283.364 267.064L329.652 221.095C338.871 211.939 345.401 200.876 348.667 188.287C351.932 175.698 351.74 162.918 348.282 150.138V149.947Z" fill="#0176D3"/>
    </g>
    <defs>
        <clipPath id="clip0_73_1152">
            <rect width="400" height="400" fill="white"/>
        </clipPath>
    </defs>
</svg>