<?xml version="1.0" encoding="UTF-8"?>
<!DOCTYPE svg PUBLIC "-//W3C//DTD SVG 1.1//EN" "http://www.w3.org/Graphics/SVG/1.1/DTD/svg11.dtd">
<svg xmlns="http://www.w3.org/2000/svg" version="1.1" width="189px" height="185px" style="shape-rendering:geometricPrecision; text-rendering:geometricPrecision; image-rendering:optimizeQuality; fill-rule:evenodd; clip-rule:evenodd" xmlns:xlink="http://www.w3.org/1999/xlink">
<g><path style="opacity:1" fill="#ee9518" d="M 119.5,10.5 C 119.5,11.1667 119.833,11.5 120.5,11.5C 120.611,12.1174 120.944,12.6174 121.5,13C 120.09,14.3717 118.423,15.205 116.5,15.5C 115.402,14.603 115.402,13.7697 116.5,13C 112.955,12.2829 109.455,12.4496 106,13.5C 104.699,12.9019 103.865,11.9019 103.5,10.5C 105.166,5.93101 107.833,5.76434 111.5,10C 114.146,10.4974 116.813,10.6641 119.5,10.5 Z"/></g>
<g><path style="opacity:1" fill="#f1c74e" d="M 89.5,4.5 C 92.4658,4.11032 95.1324,4.77699 97.5,6.5C 100.084,5.60724 102.751,5.27391 105.5,5.5C 103.5,6.16667 101.5,6.83333 99.5,7.5C 98.0695,7.42082 96.7362,7.75415 95.5,8.5C 94.8076,7.97473 94.3076,7.30806 94,6.5C 91.9286,7.10287 90.7619,8.4362 90.5,10.5C 90.2942,12.5492 89.4609,12.8825 88,11.5C 87.1475,13.1247 86.1475,13.4581 85,12.5C 82.0991,13.2367 79.9325,14.9033 78.5,17.5C 76.9826,17.5106 75.8159,18.1772 75,19.5C 73.1053,24.0621 70.9386,27.7288 68.5,30.5C 68.4904,24.6823 69.9904,19.3489 73,14.5C 73.3333,15.8333 73.6667,17.1667 74,18.5C 76.3333,15.8333 78.6667,13.1667 81,10.5C 81.3333,10.8333 81.6667,11.1667 82,11.5C 85.6295,10.3703 88.1295,8.03698 89.5,4.5 Z"/></g>
<g><path style="opacity:1" fill="#f3ae2e" d="M 119.5,10.5 C 116.813,10.6641 114.146,10.4974 111.5,10C 107.833,5.76434 105.166,5.93101 103.5,10.5C 103.865,11.9019 104.699,12.9019 106,13.5C 109.455,12.4496 112.955,12.2829 116.5,13C 115.402,13.7697 115.402,14.603 116.5,15.5C 116.158,16.3382 115.492,16.6716 114.5,16.5C 110.464,16.2821 109.13,17.9488 110.5,21.5C 109.167,21.5 107.833,21.5 106.5,21.5C 106.699,18.9887 107.032,16.822 107.5,15C 105.744,14.7978 104.078,14.2978 102.5,13.5C 101.871,11.2592 100.871,9.25915 99.5,7.5C 101.5,6.83333 103.5,6.16667 105.5,5.5C 108.427,4.77532 111.094,5.60865 113.5,8C 116.623,8.20649 119.623,8.87315 122.5,10C 121.552,10.4828 120.552,10.6495 119.5,10.5 Z"/></g>
<g><path style="opacity:0.196" fill="#dead72" d="M 141.5,31.5 C 140.833,31.5 140.167,31.5 139.5,31.5C 139.084,29.2475 137.751,27.7475 135.5,27C 138.097,26.2208 138.097,25.7208 135.5,25.5C 133.782,23.2804 132.948,20.9471 133,18.5C 130.948,17.2766 128.781,16.2766 126.5,15.5C 127.582,15.2514 128.915,15.0848 130.5,15C 127.368,13.2182 124.035,12.0516 120.5,11.5C 119.833,11.5 119.5,11.1667 119.5,10.5C 120.552,10.6495 121.552,10.4828 122.5,10C 119.623,8.87315 116.623,8.20649 113.5,8C 111.094,5.60865 108.427,4.77532 105.5,5.5C 102.751,5.27391 100.084,5.60724 97.5,6.5C 95.1324,4.77699 92.4658,4.11032 89.5,4.5C 105.7,0.81692 120.2,4.48359 133,15.5C 135.656,20.9727 138.489,26.306 141.5,31.5 Z"/></g>
<g><path style="opacity:0.145" fill="#dec176" d="M 89.5,4.5 C 88.1295,8.03698 85.6295,10.3703 82,11.5C 81.6667,11.1667 81.3333,10.8333 81,10.5C 78.6667,13.1667 76.3333,15.8333 74,18.5C 73.6667,17.1667 73.3333,15.8333 73,14.5C 69.9904,19.3489 68.4904,24.6823 68.5,30.5C 67.8333,30.8333 67.1667,31.1667 66.5,31.5C 66.1667,31.5 65.8333,31.5 65.5,31.5C 66.4367,23.1334 69.4367,15.6334 74.5,9C 79.5074,7.49463 84.5074,5.99463 89.5,4.5 Z"/></g>
<g><path style="opacity:1" fill="#e27c1b" d="M 120.5,11.5 C 124.035,12.0516 127.368,13.2182 130.5,15C 128.915,15.0848 127.582,15.2514 126.5,15.5C 128.781,16.2766 130.948,17.2766 133,18.5C 132.948,20.9471 133.782,23.2804 135.5,25.5C 134.833,25.8333 134.167,26.1667 133.5,26.5C 129.955,23.8119 125.955,21.9785 121.5,21C 119.68,20.0206 118.513,18.5206 118,16.5C 116.708,17.7911 115.542,17.7911 114.5,16.5C 115.492,16.6716 116.158,16.3382 116.5,15.5C 118.423,15.205 120.09,14.3717 121.5,13C 120.944,12.6174 120.611,12.1174 120.5,11.5 Z"/></g>
<g><path style="opacity:1" fill="#f8c638" d="M 99.5,7.5 C 100.871,9.25915 101.871,11.2592 102.5,13.5C 104.078,14.2978 105.744,14.7978 107.5,15C 107.032,16.822 106.699,18.9887 106.5,21.5C 107.833,21.5 109.167,21.5 110.5,21.5C 113.385,21.1936 116.052,21.5269 118.5,22.5C 114.295,22.1906 110.295,22.8572 106.5,24.5C 102.831,21.4684 99.8313,21.9684 97.5,26C 93.6416,29.6319 89.3082,30.7985 84.5,29.5C 79.7335,30.3648 75.0668,30.3648 70.5,29.5C 70.5,30.5 70.5,31.5 70.5,32.5C 70.2964,34.6854 69.6298,36.6854 68.5,38.5C 66.8372,36.5615 66.1706,34.2282 66.5,31.5C 67.1667,31.1667 67.8333,30.8333 68.5,30.5C 70.9386,27.7288 73.1053,24.0621 75,19.5C 75.8159,18.1772 76.9826,17.5106 78.5,17.5C 81.0546,19.6064 83.3879,21.9398 85.5,24.5C 86.6721,24.0814 87.6721,23.4147 88.5,22.5C 92.9072,21.8754 97.2406,21.042 101.5,20C 103.994,17.6068 103.327,16.4401 99.5,16.5C 99.1972,10.5203 96.1972,8.52029 90.5,10.5C 90.7619,8.4362 91.9286,7.10287 94,6.5C 94.3076,7.30806 94.8076,7.97473 95.5,8.5C 96.7362,7.75415 98.0695,7.42082 99.5,7.5 Z"/></g>
<g><path style="opacity:1" fill="#f9d74a" d="M 78.5,17.5 C 79.9325,14.9033 82.0991,13.2367 85,12.5C 86.1475,13.4581 87.1475,13.1247 88,11.5C 89.4609,12.8825 90.2942,12.5492 90.5,10.5C 96.1972,8.52029 99.1972,10.5203 99.5,16.5C 103.327,16.4401 103.994,17.6068 101.5,20C 97.2406,21.042 92.9072,21.8754 88.5,22.5C 87.6721,23.4147 86.6721,24.0814 85.5,24.5C 83.3879,21.9398 81.0546,19.6064 78.5,17.5 Z"/></g>
<g><path style="opacity:1" fill="#df9219" d="M 114.5,16.5 C 115.542,17.7911 116.708,17.7911 118,16.5C 118.513,18.5206 119.68,20.0206 121.5,21C 125.955,21.9785 129.955,23.8119 133.5,26.5C 131.097,26.552 128.764,26.2186 126.5,25.5C 123.79,24.4942 121.124,23.4942 118.5,22.5C 116.052,21.5269 113.385,21.1936 110.5,21.5C 109.13,17.9488 110.464,16.2821 114.5,16.5 Z"/></g>
<g><path style="opacity:1" fill="#b8a529" d="M 118.5,22.5 C 121.124,23.4942 123.79,24.4942 126.5,25.5C 129.33,27.9538 132.663,29.6205 136.5,30.5C 137.298,30.9569 137.631,31.6236 137.5,32.5C 131.289,31.8211 125.956,29.3211 121.5,25C 112.083,23.7086 105.083,27.2086 100.5,35.5C 100.167,35.5 99.8333,35.5 99.5,35.5C 99.238,34.0222 99.5713,32.6888 100.5,31.5C 103.461,29.3999 105.461,27.0666 106.5,24.5C 110.295,22.8572 114.295,22.1906 118.5,22.5 Z"/></g>
<g><path style="opacity:1" fill="#ae8319" d="M 126.5,25.5 C 128.764,26.2186 131.097,26.552 133.5,26.5C 134.167,26.1667 134.833,25.8333 135.5,25.5C 138.097,25.7208 138.097,26.2208 135.5,27C 137.751,27.7475 139.084,29.2475 139.5,31.5C 138.833,31.5 138.5,31.8333 138.5,32.5C 138.167,32.5 137.833,32.5 137.5,32.5C 137.631,31.6236 137.298,30.9569 136.5,30.5C 132.663,29.6205 129.33,27.9538 126.5,25.5 Z"/></g>
<g><path style="opacity:1" fill="#ef8d1c" d="M 84.5,29.5 C 85.9117,30.5325 87.5784,31.1992 89.5,31.5C 92.4116,30.9315 95.4116,30.9315 98.5,31.5C 98.5,32.8333 98.5,34.1667 98.5,35.5C 98.7373,36.791 98.404,37.791 97.5,38.5C 97.5,37.5 97.5,36.5 97.5,35.5C 97.4413,33.2776 96.2747,32.2776 94,32.5C 92.5531,32.9452 91.2197,33.6119 90,34.5C 83.5513,31.2237 77.0513,30.557 70.5,32.5C 70.5,31.5 70.5,30.5 70.5,29.5C 75.0668,30.3648 79.7335,30.3648 84.5,29.5 Z"/></g>
<g><path style="opacity:1" fill="#f0a120" d="M 106.5,24.5 C 105.461,27.0666 103.461,29.3999 100.5,31.5C 99.5713,32.6888 99.238,34.0222 99.5,35.5C 99.1667,35.5 98.8333,35.5 98.5,35.5C 98.5,34.1667 98.5,32.8333 98.5,31.5C 95.4116,30.9315 92.4116,30.9315 89.5,31.5C 87.5784,31.1992 85.9117,30.5325 84.5,29.5C 89.3082,30.7985 93.6416,29.6319 97.5,26C 99.8313,21.9684 102.831,21.4684 106.5,24.5 Z"/></g>
<g><path style="opacity:1" fill="#6e8654" d="M 114.5,30.5 C 117.792,30.1196 120.125,31.4529 121.5,34.5C 121.03,35.463 120.363,35.463 119.5,34.5C 119.167,34.5 118.833,34.5 118.5,34.5C 113.262,31.3198 108.929,32.3198 105.5,37.5C 105.297,35.6096 105.963,34.1096 107.5,33C 109.441,31.0972 111.774,30.2639 114.5,30.5 Z"/></g>
<g><path style="opacity:1" fill="#dad6c8" d="M 118.5,34.5 C 119.387,43.9418 115.054,47.9418 105.5,46.5C 105.5,43.5 105.5,40.5 105.5,37.5C 108.929,32.3198 113.262,31.3198 118.5,34.5 Z"/></g>
<g><path style="opacity:1" fill="#f16a1a" d="M 97.5,35.5 C 96.7281,36.6935 95.7281,37.6935 94.5,38.5C 87.8552,34.4035 80.5219,32.9035 72.5,34C 71.1387,35.5843 70.472,37.4176 70.5,39.5C 69.8333,39.1667 69.1667,38.8333 68.5,38.5C 69.6298,36.6854 70.2964,34.6854 70.5,32.5C 77.0513,30.557 83.5513,31.2237 90,34.5C 91.2197,33.6119 92.5531,32.9452 94,32.5C 96.2747,32.2776 97.4413,33.2776 97.5,35.5 Z"/></g>
<g><path style="opacity:1" fill="#e93a16" d="M 94.5,38.5 C 91.5927,43.7906 88.5927,43.7906 85.5,38.5C 86.6405,37.5745 86.6405,36.7412 85.5,36C 83.3766,36.7325 81.21,36.5658 79,35.5C 76.5,36.5 74,37.5 71.5,38.5C 72.8069,39.865 72.8069,41.1984 71.5,42.5C 71.1667,42.5 70.8333,42.5 70.5,42.5C 70.5,41.5 70.5,40.5 70.5,39.5C 70.472,37.4176 71.1387,35.5843 72.5,34C 80.5219,32.9035 87.8552,34.4035 94.5,38.5 Z"/></g>
<g><path style="opacity:1" fill="#9dae3a" d="M 137.5,32.5 C 137.833,32.5 138.167,32.5 138.5,32.5C 140.532,33.0478 141.532,34.3812 141.5,36.5C 136.411,35.6065 131.744,33.7732 127.5,31C 125.866,30.5065 124.199,30.3398 122.5,30.5C 119.873,29.9084 117.206,29.5751 114.5,29.5C 105.164,30.1858 101.497,35.1858 103.5,44.5C 100.62,44.9402 97.9535,45.9402 95.5,47.5C 97.524,43.7919 99.1907,39.7919 100.5,35.5C 105.083,27.2086 112.083,23.7086 121.5,25C 125.956,29.3211 131.289,31.8211 137.5,32.5 Z"/></g>
<g><path style="opacity:1" fill="#b3ce58" d="M 125.5,39.5 C 125.443,40.609 125.11,41.609 124.5,42.5C 123.59,44.0188 122.757,45.6854 122,47.5C 120.333,48.7332 118.833,50.0665 117.5,51.5C 114.679,51.5387 112.012,52.2054 109.5,53.5C 108.691,55.0709 108.357,56.7376 108.5,58.5C 106.977,61.6348 106.31,64.9682 106.5,68.5C 106.5,69.1667 106.167,69.5 105.5,69.5C 105.5,67.1667 105.5,64.8333 105.5,62.5C 105.859,57.9415 106.859,53.6081 108.5,49.5C 111.518,49.6646 114.518,49.498 117.5,49C 120.944,45.176 122.944,40.676 123.5,35.5C 124.824,34.1501 125.824,34.3167 126.5,36C 126.011,37.1385 125.678,38.3052 125.5,39.5 Z"/></g>
<g><path style="opacity:1" fill="#2c1418" d="M 113.5,34.5 C 114.496,34.4142 115.329,34.7476 116,35.5C 118.168,41.979 116.001,44.8123 109.5,44C 107.203,41.2212 107.036,38.3879 109,35.5C 109.333,36.1667 109.667,36.8333 110,37.5C 111.518,36.8366 112.685,35.8366 113.5,34.5 Z"/></g>
<g><path style="opacity:1" fill="#fec9af" d="M 76.5,49.5 C 74.8042,53.0224 74.1375,52.3558 74.5,47.5C 75.3145,45.2187 76.6478,43.2187 78.5,41.5C 79.4756,43.1233 78.9756,44.4567 77,45.5C 76.51,46.7932 76.3433,48.1266 76.5,49.5 Z"/></g>
<g><path style="opacity:1" fill="#be1e07" d="M 94.5,38.5 C 95.7281,37.6935 96.7281,36.6935 97.5,35.5C 97.5,36.5 97.5,37.5 97.5,38.5C 96.1798,40.4632 94.8465,42.4632 93.5,44.5C 88.9405,44.0562 84.9405,42.2229 81.5,39C 79.5,38.3333 77.5,38.3333 75.5,39C 74.2617,39.69 74.2617,40.19 75.5,40.5C 75.1667,41.1667 74.8333,41.8333 74.5,42.5C 73.2022,43.1157 72.2022,43.1157 71.5,42.5C 72.8069,41.1984 72.8069,39.865 71.5,38.5C 74,37.5 76.5,36.5 79,35.5C 81.21,36.5658 83.3766,36.7325 85.5,36C 86.6405,36.7412 86.6405,37.5745 85.5,38.5C 88.5927,43.7906 91.5927,43.7906 94.5,38.5 Z"/></g>
<g><path style="opacity:1" fill="#9eba25" d="M 122.5,30.5 C 124.199,30.3398 125.866,30.5065 127.5,31C 131.744,33.7732 136.411,35.6065 141.5,36.5C 141.508,39.5448 141.841,42.5448 142.5,45.5C 140.896,46.287 140.229,47.6203 140.5,49.5C 137.203,49.6713 136.869,49.0046 139.5,47.5C 138.758,46.7132 137.925,46.0465 137,45.5C 135.961,46.7101 134.794,47.7101 133.5,48.5C 135.356,41.3592 132.689,38.3592 125.5,39.5C 125.678,38.3052 126.011,37.1385 126.5,36C 125.824,34.3167 124.824,34.1501 123.5,35.5C 123.634,33.7085 123.301,32.0418 122.5,30.5 Z"/></g>
<g><path style="opacity:1" fill="#951609" d="M 93.5,44.5 C 93.2525,46.8583 93.9192,48.8583 95.5,50.5C 96.0184,51.5774 96.3517,52.7441 96.5,54C 95.291,56.3192 94.4577,58.8192 94,61.5C 89.6018,62.186 85.9351,64.186 83,67.5C 82.5045,69.4727 82.3379,71.4727 82.5,73.5C 81.5,73.5 80.5,73.5 79.5,73.5C 77.1,71.7036 75.4333,69.3702 74.5,66.5C 74.4607,64.7761 74.794,64.4427 75.5,65.5C 76.1916,68.935 78.1916,70.935 81.5,71.5C 81.7609,65.7338 84.7609,62.2338 90.5,61C 92.6632,59.0016 94.3298,56.6682 95.5,54C 94.7468,50.0739 92.4134,48.2405 88.5,48.5C 88.0954,47.4502 87.4288,47.4502 86.5,48.5C 86.1301,45.4985 84.7968,43.1652 82.5,41.5C 80.3926,40.5318 78.0593,40.1984 75.5,40.5C 74.2617,40.19 74.2617,39.69 75.5,39C 77.5,38.3333 79.5,38.3333 81.5,39C 84.9405,42.2229 88.9405,44.0562 93.5,44.5 Z"/></g>
<g><path style="opacity:1" fill="#927321" d="M 98.5,35.5 C 98.8333,35.5 99.1667,35.5 99.5,35.5C 99.8333,35.5 100.167,35.5 100.5,35.5C 99.1907,39.7919 97.524,43.7919 95.5,47.5C 96.1098,48.391 96.4431,49.391 96.5,50.5C 96.1667,50.5 95.8333,50.5 95.5,50.5C 93.9192,48.8583 93.2525,46.8583 93.5,44.5C 94.8465,42.4632 96.1798,40.4632 97.5,38.5C 98.404,37.791 98.7373,36.791 98.5,35.5 Z"/></g>
<g><path style="opacity:1" fill="#e48b72" d="M 75.5,40.5 C 78.0593,40.1984 80.3926,40.5318 82.5,41.5C 81.6409,43.1059 81.4742,44.7725 82,46.5C 81.6667,46.1667 81.3333,45.8333 81,45.5C 80.2079,47.6437 78.7079,48.977 76.5,49.5C 76.3433,48.1266 76.51,46.7932 77,45.5C 78.9756,44.4567 79.4756,43.1233 78.5,41.5C 76.6478,43.2187 75.3145,45.2187 74.5,47.5C 74.5,45.8333 74.5,44.1667 74.5,42.5C 74.8333,41.8333 75.1667,41.1667 75.5,40.5 Z"/></g>
<g><path style="opacity:1" fill="#96af7d" d="M 118.5,34.5 C 118.833,34.5 119.167,34.5 119.5,34.5C 121.169,38.9892 120.335,42.9892 117,46.5C 114.061,47.1281 111.228,47.7948 108.5,48.5C 107.178,48.67 106.011,48.3366 105,47.5C 104.192,43.9733 104.359,40.6399 105.5,37.5C 105.5,40.5 105.5,43.5 105.5,46.5C 115.054,47.9418 119.387,43.9418 118.5,34.5 Z"/></g>
<g><path style="opacity:1" fill="#79a248" d="M 114.5,30.5 C 114.5,30.1667 114.5,29.8333 114.5,29.5C 117.206,29.5751 119.873,29.9084 122.5,30.5C 123.301,32.0418 123.634,33.7085 123.5,35.5C 122.944,40.676 120.944,45.176 117.5,49C 114.518,49.498 111.518,49.6646 108.5,49.5C 108.5,49.1667 108.5,48.8333 108.5,48.5C 111.228,47.7948 114.061,47.1281 117,46.5C 120.335,42.9892 121.169,38.9892 119.5,34.5C 120.363,35.463 121.03,35.463 121.5,34.5C 120.125,31.4529 117.792,30.1196 114.5,30.5 Z"/></g>
<g><path style="opacity:1" fill="#fae4a6" d="M 146.5,39.5 C 148.915,40.3052 151.249,41.3052 153.5,42.5C 153.48,44.143 154.147,45.4763 155.5,46.5C 157.353,46.92 159.187,47.2533 161,47.5C 162.952,51.0829 162.786,54.5829 160.5,58C 160.833,58.3333 161.167,58.6667 161.5,59C 158.922,60.7156 157.589,63.2156 157.5,66.5C 156.92,68.7488 155.587,70.4154 153.5,71.5C 152.722,70.8444 152.056,70.0111 151.5,69C 153.304,65.2251 154.971,61.3917 156.5,57.5C 155.066,56.7702 153.9,55.7702 153,54.5C 152.667,55.1667 152.333,55.8333 152,56.5C 151.333,55.1667 150.667,55.1667 150,56.5C 147.288,51.1695 146.121,45.5029 146.5,39.5 Z"/></g>
<g><path style="opacity:0.445" fill="#e8d8b7" d="M 153.5,42.5 C 163.125,44.0897 166.291,49.423 163,58.5C 161.884,61.7556 160.051,64.4223 157.5,66.5C 157.589,63.2156 158.922,60.7156 161.5,59C 161.167,58.6667 160.833,58.3333 160.5,58C 162.786,54.5829 162.952,51.0829 161,47.5C 159.187,47.2533 157.353,46.92 155.5,46.5C 154.147,45.4763 153.48,44.143 153.5,42.5 Z"/></g>
<g><path style="opacity:1" fill="#d72f1b" d="M 88.5,48.5 C 92.4134,48.2405 94.7468,50.0739 95.5,54C 94.3298,56.6682 92.6632,59.0016 90.5,61C 84.7609,62.2338 81.7609,65.7338 81.5,71.5C 78.1916,70.935 76.1916,68.935 75.5,65.5C 77.2112,59.3805 79.5445,53.3805 82.5,47.5C 83.8802,48.9756 85.5469,49.9756 87.5,50.5C 88.2975,50.0431 88.6309,49.3764 88.5,48.5 Z"/></g>
<g><path style="opacity:1" fill="#a8ca71" d="M 114.5,29.5 C 114.5,29.8333 114.5,30.1667 114.5,30.5C 111.774,30.2639 109.441,31.0972 107.5,33C 105.963,34.1096 105.297,35.6096 105.5,37.5C 104.359,40.6399 104.192,43.9733 105,47.5C 106.011,48.3366 107.178,48.67 108.5,48.5C 108.5,48.8333 108.5,49.1667 108.5,49.5C 106.859,53.6081 105.859,57.9415 105.5,62.5C 104.5,59.8333 103.5,57.1667 102.5,54.5C 101.522,51.6752 99.5221,50.3419 96.5,50.5C 96.4431,49.391 96.1098,48.391 95.5,47.5C 97.9535,45.9402 100.62,44.9402 103.5,44.5C 101.497,35.1858 105.164,30.1858 114.5,29.5 Z"/></g>
<g><path style="opacity:1" fill="#e3ba34" d="M 124.5,42.5 C 129.146,41.6285 131.479,43.4618 131.5,48C 130.264,54.8988 126.098,58.7322 119,59.5C 116.566,58.6777 114.066,58.3444 111.5,58.5C 111.238,57.0222 111.571,55.6888 112.5,54.5C 114.598,54.0428 116.264,53.0428 117.5,51.5C 118.833,50.0665 120.333,48.7332 122,47.5C 122.757,45.6854 123.59,44.0188 124.5,42.5 Z"/></g>
<g><path style="opacity:1" fill="#e18c15" d="M 129.5,45.5 C 130.613,46.9464 130.78,48.6131 130,50.5C 127.828,51.5089 126.662,53.1756 126.5,55.5C 123.756,56.205 121.089,56.205 118.5,55.5C 121.537,51.4628 125.203,48.1295 129.5,45.5 Z"/></g>
<g><path style="opacity:1" fill="#e2634d" d="M 82.5,41.5 C 84.7968,43.1652 86.1301,45.4985 86.5,48.5C 87.4288,47.4502 88.0954,47.4502 88.5,48.5C 88.6309,49.3764 88.2975,50.0431 87.5,50.5C 85.5469,49.9756 83.8802,48.9756 82.5,47.5C 79.5445,53.3805 77.2112,59.3805 75.5,65.5C 74.794,64.4427 74.4607,64.7761 74.5,66.5C 73.3995,64.7226 72.5662,62.7226 72,60.5C 71.6972,56.4705 71.1972,52.4705 70.5,48.5C 72.1494,46.3009 71.8161,44.4676 69.5,43C 69.7284,42.6012 70.0618,42.4346 70.5,42.5C 70.8333,42.5 71.1667,42.5 71.5,42.5C 72.2022,43.1157 73.2022,43.1157 74.5,42.5C 74.5,44.1667 74.5,45.8333 74.5,47.5C 74.1375,52.3558 74.8042,53.0224 76.5,49.5C 78.7079,48.977 80.2079,47.6437 81,45.5C 81.3333,45.8333 81.6667,46.1667 82,46.5C 81.4742,44.7725 81.6409,43.1059 82.5,41.5 Z"/></g>
<g><path style="opacity:1" fill="#8ea638" d="M 141.5,36.5 C 142.304,38.1887 143.304,39.8554 144.5,41.5C 143.819,44.1687 144.152,46.8353 145.5,49.5C 145.167,50.1667 144.833,50.8333 144.5,51.5C 146.155,56.3164 146.988,61.3164 147,66.5C 148.744,67.6492 148.911,68.9825 147.5,70.5C 149.421,72.8374 151.754,74.6707 154.5,76C 153.5,76.3333 152.5,76.6667 151.5,77C 154.676,80.3431 158.009,83.5098 161.5,86.5C 162.5,87.8333 163.5,89.1667 164.5,90.5C 161.92,89.2653 159.587,87.5986 157.5,85.5C 156.33,83.7215 154.664,82.7215 152.5,82.5C 150.204,77.2304 147.538,72.2304 144.5,67.5C 144.5,66.8333 144.5,66.1667 144.5,65.5C 144.713,58.7211 144.047,52.0544 142.5,45.5C 141.841,42.5448 141.508,39.5448 141.5,36.5 Z"/></g>
<g><path style="opacity:1" fill="#eedf90" d="M 138.5,32.5 C 138.5,31.8333 138.833,31.5 139.5,31.5C 140.167,31.5 140.833,31.5 141.5,31.5C 142.794,34.3542 144.461,37.0208 146.5,39.5C 146.121,45.5029 147.288,51.1695 150,56.5C 150.667,55.1667 151.333,55.1667 152,56.5C 152.333,55.8333 152.667,55.1667 153,54.5C 153.9,55.7702 155.066,56.7702 156.5,57.5C 154.971,61.3917 153.304,65.2251 151.5,69C 152.056,70.0111 152.722,70.8444 153.5,71.5C 156.567,75.9092 159.233,80.5759 161.5,85.5C 161.5,85.8333 161.5,86.1667 161.5,86.5C 158.009,83.5098 154.676,80.3431 151.5,77C 152.5,76.6667 153.5,76.3333 154.5,76C 151.754,74.6707 149.421,72.8374 147.5,70.5C 148.911,68.9825 148.744,67.6492 147,66.5C 146.988,61.3164 146.155,56.3164 144.5,51.5C 144.833,50.8333 145.167,50.1667 145.5,49.5C 144.152,46.8353 143.819,44.1687 144.5,41.5C 143.304,39.8554 142.304,38.1887 141.5,36.5C 141.532,34.3812 140.532,33.0478 138.5,32.5 Z"/></g>
<g><path style="opacity:1" fill="#7c130a" d="M 95.5,50.5 C 95.8333,50.5 96.1667,50.5 96.5,50.5C 99.5221,50.3419 101.522,51.6752 102.5,54.5C 102.5,56.5 102.5,58.5 102.5,60.5C 102.665,63.5184 102.498,66.5184 102,69.5C 101.292,70.3805 100.458,71.0472 99.5,71.5C 98.5144,73.4077 96.8477,74.4077 94.5,74.5C 91.5155,73.2517 88.6822,71.585 86,69.5C 84.7114,72.3508 84.2114,75.3508 84.5,78.5C 84.1667,78.5 83.8333,78.5 83.5,78.5C 82.1667,76.8333 80.8333,75.1667 79.5,73.5C 80.5,73.5 81.5,73.5 82.5,73.5C 82.3379,71.4727 82.5045,69.4727 83,67.5C 85.9351,64.186 89.6018,62.186 94,61.5C 94.4577,58.8192 95.291,56.3192 96.5,54C 96.3517,52.7441 96.0184,51.5774 95.5,50.5 Z"/></g>
<g><path style="opacity:1" fill="#c53b38" d="M 99.5,53.5 C 100.505,57.5207 100.505,61.5207 99.5,65.5C 97.45,65.7437 95.45,66.077 93.5,66.5C 92.8764,64.4947 93.7097,62.8281 96,61.5C 96.8751,58.5989 98.0418,55.9323 99.5,53.5 Z"/></g>
<g><path style="opacity:1" fill="#bfc839" d="M 133.5,48.5 C 134.405,49.9643 134.405,51.2976 133.5,52.5C 132.445,54.9566 130.612,56.6232 128,57.5C 127.16,60.3413 125.66,62.6747 123.5,64.5C 116.053,68.2698 111.053,66.2698 108.5,58.5C 108.357,56.7376 108.691,55.0709 109.5,53.5C 112.012,52.2054 114.679,51.5387 117.5,51.5C 116.264,53.0428 114.598,54.0428 112.5,54.5C 111.571,55.6888 111.238,57.0222 111.5,58.5C 114.066,58.3444 116.566,58.6777 119,59.5C 126.098,58.7322 130.264,54.8988 131.5,48C 131.479,43.4618 129.146,41.6285 124.5,42.5C 125.11,41.609 125.443,40.609 125.5,39.5C 132.689,38.3592 135.356,41.3592 133.5,48.5 Z"/></g>
<g><path style="opacity:1" fill="#a4cc3f" d="M 126.5,74.5 C 125.833,74.5 125.167,74.5 124.5,74.5C 125.749,72.8639 127.416,71.6972 129.5,71C 129.048,69.3876 127.715,68.3876 125.5,68C 133.943,62.3742 133.277,61.2075 123.5,64.5C 125.66,62.6747 127.16,60.3413 128,57.5C 130.612,56.6232 132.445,54.9566 133.5,52.5C 135.677,52.4139 137.677,51.7472 139.5,50.5C 139.833,50.6667 140.167,50.8333 140.5,51C 139.672,51.9147 138.672,52.5814 137.5,53C 139.433,53.7826 140.933,53.2826 142,51.5C 143.14,54.5282 142.306,56.6949 139.5,58C 141.701,58.7768 141.701,59.9435 139.5,61.5C 137.885,62.154 136.218,62.654 134.5,63C 136.568,63.6869 138.568,63.5202 140.5,62.5C 141.754,64.2592 141.421,65.7592 139.5,67C 136.833,67.6667 134.167,68.3333 131.5,69C 132.167,69.3333 132.833,69.6667 133.5,70C 131.102,71.5242 128.769,73.0242 126.5,74.5 Z"/></g>
<g><path style="opacity:1" fill="#82ac23" d="M 142.5,45.5 C 144.047,52.0544 144.713,58.7211 144.5,65.5C 138.381,68.3642 132.381,71.3642 126.5,74.5C 128.769,73.0242 131.102,71.5242 133.5,70C 132.833,69.6667 132.167,69.3333 131.5,69C 134.167,68.3333 136.833,67.6667 139.5,67C 141.421,65.7592 141.754,64.2592 140.5,62.5C 138.568,63.5202 136.568,63.6869 134.5,63C 136.218,62.654 137.885,62.154 139.5,61.5C 141.701,59.9435 141.701,58.7768 139.5,58C 142.306,56.6949 143.14,54.5282 142,51.5C 140.933,53.2826 139.433,53.7826 137.5,53C 138.672,52.5814 139.672,51.9147 140.5,51C 140.167,50.8333 139.833,50.6667 139.5,50.5C 137.677,51.7472 135.677,52.4139 133.5,52.5C 134.405,51.2976 134.405,49.9643 133.5,48.5C 134.794,47.7101 135.961,46.7101 137,45.5C 137.925,46.0465 138.758,46.7132 139.5,47.5C 136.869,49.0046 137.203,49.6713 140.5,49.5C 140.229,47.6203 140.896,46.287 142.5,45.5 Z"/></g>
<g><path style="opacity:1" fill="#a39e46" d="M 102.5,54.5 C 103.5,57.1667 104.5,59.8333 105.5,62.5C 105.5,64.8333 105.5,67.1667 105.5,69.5C 105.5,70.1667 105.167,70.5 104.5,70.5C 104.802,67.9407 104.468,65.6074 103.5,63.5C 103.737,62.209 103.404,61.209 102.5,60.5C 102.5,58.5 102.5,56.5 102.5,54.5 Z"/></g>
<g><path style="opacity:1" fill="#f9e1ab" d="M 68.5,59.5 C 70.4882,63.0912 72.4882,66.7579 74.5,70.5C 71.478,72.7709 67.6447,74.4376 63,75.5C 62.1699,77.8284 61.3366,80.1617 60.5,82.5C 60.8029,84.1143 61.4695,85.4477 62.5,86.5C 61.1667,86.5 59.8333,86.5 58.5,86.5C 57.9084,83.8728 57.5751,81.2062 57.5,78.5C 55.4176,78.472 53.5843,79.1387 52,80.5C 52.1449,83.5143 52.6449,86.5143 53.5,89.5C 55.698,89.1201 57.3646,89.7868 58.5,91.5C 56.5183,91.0046 54.5183,90.5046 52.5,90C 50.5467,86.7351 49.7134,83.2351 50,79.5C 51.8022,78.2107 52.9688,76.5441 53.5,74.5C 55.5743,71.9505 58.2409,70.1171 61.5,69C 64.0826,65.9319 66.4159,62.7652 68.5,59.5 Z"/></g>
<g><path style="opacity:1" fill="#ce8167" d="M 65.5,31.5 C 65.8333,31.5 66.1667,31.5 66.5,31.5C 66.1706,34.2282 66.8372,36.5615 68.5,38.5C 69.1667,38.8333 69.8333,39.1667 70.5,39.5C 70.5,40.5 70.5,41.5 70.5,42.5C 70.0618,42.4346 69.7284,42.6012 69.5,43C 71.8161,44.4676 72.1494,46.3009 70.5,48.5C 71.1972,52.4705 71.6972,56.4705 72,60.5C 72.5662,62.7226 73.3995,64.7226 74.5,66.5C 75.4333,69.3702 77.1,71.7036 79.5,73.5C 80.8333,75.1667 82.1667,76.8333 83.5,78.5C 81.9382,78.2671 80.6049,77.6005 79.5,76.5C 77.8333,74.5 76.1667,72.5 74.5,70.5C 72.4882,66.7579 70.4882,63.0912 68.5,59.5C 68.5,58.1667 68.5,56.8333 68.5,55.5C 68.5715,52.8067 68.9049,50.1401 69.5,47.5C 67.5552,42.2905 66.2218,36.9572 65.5,31.5 Z"/></g>
<g><path style="opacity:1" fill="#970d0a" d="M 99.5,53.5 C 100.222,53.9175 100.722,54.5842 101,55.5C 101.996,61.0799 101.496,66.4132 99.5,71.5C 95.3817,73.3502 91.715,72.6835 88.5,69.5C 90.0287,68.2371 91.6954,67.2371 93.5,66.5C 95.45,66.077 97.45,65.7437 99.5,65.5C 100.505,61.5207 100.505,57.5207 99.5,53.5 Z"/></g>
<g><path style="opacity:1" fill="#faf5e4" d="M 68.5,55.5 C 68.5,56.8333 68.5,58.1667 68.5,59.5C 66.4159,62.7652 64.0826,65.9319 61.5,69C 58.2409,70.1171 55.5743,71.9505 53.5,74.5C 51.5,76.1667 49.5,77.8333 47.5,79.5C 44.5,78.8333 41.5,78.1667 38.5,77.5C 38.5,77.1667 38.5,76.8333 38.5,76.5C 43.9739,66.7489 52.3072,60.9155 63.5,59C 65.5844,58.3028 67.2511,57.1361 68.5,55.5 Z"/></g>
<g><path style="opacity:1" fill="#4c1e00" d="M 102.5,60.5 C 103.404,61.209 103.737,62.209 103.5,63.5C 104.321,73.0286 100.321,76.6952 91.5,74.5C 92.5,74.5 93.5,74.5 94.5,74.5C 96.8477,74.4077 98.5144,73.4077 99.5,71.5C 100.458,71.0472 101.292,70.3805 102,69.5C 102.498,66.5184 102.665,63.5184 102.5,60.5 Z"/></g>
<g><path style="opacity:1" fill="#a0c837" d="M 108.5,58.5 C 111.053,66.2698 116.053,68.2698 123.5,64.5C 133.277,61.2075 133.943,62.3742 125.5,68C 127.715,68.3876 129.048,69.3876 129.5,71C 127.416,71.6972 125.749,72.8639 124.5,74.5C 121.731,71.6951 119.064,71.8617 116.5,75C 116.957,75.414 117.291,75.914 117.5,76.5C 116.757,77.1818 116.091,77.8485 115.5,78.5C 109.882,80.2873 109.215,79.2873 113.5,75.5C 114.452,73.9547 114.785,72.288 114.5,70.5C 121.043,70.4565 121.043,69.7898 114.5,68.5C 114.558,72.7468 112.558,75.0802 108.5,75.5C 108.59,72.8478 107.924,70.5145 106.5,68.5C 106.31,64.9682 106.977,61.6348 108.5,58.5 Z"/></g>
<g><path style="opacity:1" fill="#895b34" d="M 94.5,74.5 C 93.5,74.5 92.5,74.5 91.5,74.5C 89.8333,74.5 88.1667,74.5 86.5,74.5C 85.684,75.1571 85.0174,76.4905 84.5,78.5C 84.2114,75.3508 84.7114,72.3508 86,69.5C 88.6822,71.585 91.5155,73.2517 94.5,74.5 Z"/></g>
<g><path style="opacity:1" fill="#79a019" d="M 106.5,68.5 C 107.924,70.5145 108.59,72.8478 108.5,75.5C 112.558,75.0802 114.558,72.7468 114.5,68.5C 121.043,69.7898 121.043,70.4565 114.5,70.5C 114.785,72.288 114.452,73.9547 113.5,75.5C 109.215,79.2873 109.882,80.2873 115.5,78.5C 117.735,79.2481 117.402,80.0814 114.5,81C 112.888,81.7203 111.388,81.5536 110,80.5C 107.366,82.594 104.533,82.9273 101.5,81.5C 98.3183,82.1161 95.3183,83.1161 92.5,84.5C 91.1667,82.8333 89.8333,81.1667 88.5,79.5C 88.281,78.325 88.6143,77.325 89.5,76.5C 92.6426,80.5928 96.3092,81.2595 100.5,78.5C 102.405,76.1164 103.739,73.4497 104.5,70.5C 105.167,70.5 105.5,70.1667 105.5,69.5C 106.167,69.5 106.5,69.1667 106.5,68.5 Z"/></g>
<g><path style="opacity:1" fill="#fcf1d2" d="M 74.5,70.5 C 76.1667,72.5 77.8333,74.5 79.5,76.5C 77.635,79.8797 75.135,82.8797 72,85.5C 68.8948,86.3672 65.7281,86.7006 62.5,86.5C 61.4695,85.4477 60.8029,84.1143 60.5,82.5C 61.3366,80.1617 62.1699,77.8284 63,75.5C 67.6447,74.4376 71.478,72.7709 74.5,70.5 Z"/></g>
<g><path style="opacity:1" fill="#9dca40" d="M 144.5,65.5 C 144.5,66.1667 144.5,66.8333 144.5,67.5C 142.639,70.0216 140.639,72.5216 138.5,75C 136.19,75.4966 133.857,75.6633 131.5,75.5C 131.5,76.5 131.5,77.5 131.5,78.5C 130.5,78.5 129.5,78.5 128.5,78.5C 130.116,82.2398 129.449,85.2398 126.5,87.5C 124.51,83.8088 123.177,79.8088 122.5,75.5C 124.099,75.7678 125.432,75.4345 126.5,74.5C 132.381,71.3642 138.381,68.3642 144.5,65.5 Z"/></g>
<g><path style="opacity:1" fill="#596c10" d="M 103.5,63.5 C 104.468,65.6074 104.802,67.9407 104.5,70.5C 103.739,73.4497 102.405,76.1164 100.5,78.5C 96.3092,81.2595 92.6426,80.5928 89.5,76.5C 88.6143,77.325 88.281,78.325 88.5,79.5C 88.5,80.1667 88.1667,80.5 87.5,80.5C 87.1667,78.5 86.8333,76.5 86.5,74.5C 88.1667,74.5 89.8333,74.5 91.5,74.5C 100.321,76.6952 104.321,73.0286 103.5,63.5 Z"/></g>
<g><path style="opacity:1" fill="#88b83b" d="M 144.5,67.5 C 147.538,72.2304 150.204,77.2304 152.5,82.5C 149.743,81.4878 147.076,80.4878 144.5,79.5C 140.314,77.4812 135.814,79.1478 131,84.5C 129.265,88.3454 128.099,92.3454 127.5,96.5C 127.167,96.5 126.833,96.5 126.5,96.5C 126.5,93.5 126.5,90.5 126.5,87.5C 129.449,85.2398 130.116,82.2398 128.5,78.5C 129.5,78.5 130.5,78.5 131.5,78.5C 131.5,77.5 131.5,76.5 131.5,75.5C 133.857,75.6633 136.19,75.4966 138.5,75C 140.639,72.5216 142.639,70.0216 144.5,67.5 Z"/></g>
<g><path style="opacity:0.99" fill="#f8f6f0" d="M 38.5,76.5 C 38.5,76.8333 38.5,77.1667 38.5,77.5C 38.4142,78.4959 38.7476,79.3292 39.5,80C 42.6473,80.2744 44.4806,81.7744 45,84.5C 44.6667,84.1667 44.3333,83.8333 44,83.5C 41.7111,85.9057 39.0444,86.5724 36,85.5C 34.1937,87.3063 32.3604,89.1396 30.5,91C 27.5578,91.1439 25.2244,92.3106 23.5,94.5C 22.5,94.5 21.5,94.5 20.5,94.5C 19.791,93.596 18.791,93.2627 17.5,93.5C 20.0826,92.7761 22.7493,91.9428 25.5,91C 29.6989,85.972 34.0322,81.1387 38.5,76.5 Z"/></g>
<g><path style="opacity:1" fill="#fcfbef" d="M 38.5,77.5 C 41.5,78.1667 44.5,78.8333 47.5,79.5C 47.702,81.9496 47.3686,84.283 46.5,86.5C 39.3745,87.684 39.0411,89.3506 45.5,91.5C 42.8845,92.7616 40.2179,93.9282 37.5,95C 36.3157,96.1455 36.3157,97.3121 37.5,98.5C 32.8333,98.5 28.1667,98.5 23.5,98.5C 25.6074,97.5318 27.9407,97.1984 30.5,97.5C 30.5,96.1667 30.5,94.8333 30.5,93.5C 28.139,93.6741 25.8056,94.0074 23.5,94.5C 25.2244,92.3106 27.5578,91.1439 30.5,91C 32.3604,89.1396 34.1937,87.3063 36,85.5C 39.0444,86.5724 41.7111,85.9057 44,83.5C 44.3333,83.8333 44.6667,84.1667 45,84.5C 44.4806,81.7744 42.6473,80.2744 39.5,80C 38.7476,79.3292 38.4142,78.4959 38.5,77.5 Z"/></g>
<g><path style="opacity:1" fill="#f5d993" d="M 86.5,74.5 C 86.8333,76.5 87.1667,78.5 87.5,80.5C 87.5,80.8333 87.5,81.1667 87.5,81.5C 82.0853,83.0629 77.0853,85.3962 72.5,88.5C 70.6208,89.3414 68.6208,89.6747 66.5,89.5C 64.7991,92.2436 63.4657,95.2436 62.5,98.5C 67.787,99.3424 73.1203,99.6757 78.5,99.5C 72.013,100.654 65.3464,100.821 58.5,100C 57.3279,99.5814 56.3279,98.9147 55.5,98C 57.503,95.9978 59.8364,94.4978 62.5,93.5C 61.0508,92.8281 59.7175,92.1614 58.5,91.5C 57.3646,89.7868 55.698,89.1201 53.5,89.5C 52.6449,86.5143 52.1449,83.5143 52,80.5C 53.5843,79.1387 55.4176,78.472 57.5,78.5C 57.5751,81.2062 57.9084,83.8728 58.5,86.5C 59.8333,86.5 61.1667,86.5 62.5,86.5C 65.7281,86.7006 68.8948,86.3672 72,85.5C 75.135,82.8797 77.635,79.8797 79.5,76.5C 80.6049,77.6005 81.9382,78.2671 83.5,78.5C 83.8333,78.5 84.1667,78.5 84.5,78.5C 85.0174,76.4905 85.684,75.1571 86.5,74.5 Z"/></g>
<g><path style="opacity:1" fill="#92b929" d="M 124.5,74.5 C 125.167,74.5 125.833,74.5 126.5,74.5C 125.432,75.4345 124.099,75.7678 122.5,75.5C 123.177,79.8088 124.51,83.8088 126.5,87.5C 126.5,90.5 126.5,93.5 126.5,96.5C 126.672,97.4916 126.338,98.1583 125.5,98.5C 125.737,97.209 125.404,96.209 124.5,95.5C 124.799,93.396 124.466,91.396 123.5,89.5C 122.391,90.5896 121.391,90.5896 120.5,89.5C 121.853,88.4763 122.52,87.143 122.5,85.5C 117.946,86.8841 113.612,88.7174 109.5,91C 106.8,91.2532 104.133,91.2532 101.5,91C 100.687,92.8847 99.3533,93.5513 97.5,93C 98.7112,92.1072 98.7112,91.2739 97.5,90.5C 96.1401,89.8201 94.8068,89.1534 93.5,88.5C 93.5674,87.0413 93.2341,85.7079 92.5,84.5C 95.3183,83.1161 98.3183,82.1161 101.5,81.5C 104.533,82.9273 107.366,82.594 110,80.5C 111.388,81.5536 112.888,81.7203 114.5,81C 117.402,80.0814 117.735,79.2481 115.5,78.5C 116.091,77.8485 116.757,77.1818 117.5,76.5C 117.291,75.914 116.957,75.414 116.5,75C 119.064,71.8617 121.731,71.6951 124.5,74.5 Z"/></g>
<g><path style="opacity:1" fill="#f5d37a" d="M 87.5,81.5 C 88.5375,82.9303 89.2041,84.597 89.5,86.5C 88.2689,87.7177 87.1022,89.051 86,90.5C 85.502,93.4816 85.3354,96.4816 85.5,99.5C 83.1667,99.5 80.8333,99.5 78.5,99.5C 78.5,95.5 78.5,91.5 78.5,87.5C 76.5,87.8333 74.5,88.1667 72.5,88.5C 77.0853,85.3962 82.0853,83.0629 87.5,81.5 Z"/></g>
<g><path style="opacity:1" fill="#9dc941" d="M 140.5,80.5 C 141.568,79.5655 142.901,79.2322 144.5,79.5C 147.076,80.4878 149.743,81.4878 152.5,82.5C 154.664,82.7215 156.33,83.7215 157.5,85.5C 153.861,85.0489 151.528,86.5489 150.5,90C 150.645,90.772 150.978,91.4387 151.5,92C 149.497,92.3345 147.83,93.1679 146.5,94.5C 144.393,94.2779 142.726,93.2779 141.5,91.5C 140.667,92.5 139.833,93.5 139,94.5C 137.833,93.3333 136.667,92.1667 135.5,91C 137.961,88.703 140.294,86.203 142.5,83.5C 141.624,82.7492 140.624,82.2492 139.5,82C 140.167,81.6667 140.833,81.3333 141.5,81C 141.272,80.6012 140.938,80.4346 140.5,80.5 Z"/></g>
<g><path style="opacity:0.153" fill="#a9b57f" d="M 161.5,85.5 C 163.836,87.0038 165.669,89.0038 167,91.5C 167.871,96.6034 169.038,101.603 170.5,106.5C 169.833,105.5 169.167,104.5 168.5,103.5C 167.135,100.22 166.135,96.8862 165.5,93.5C 165.737,92.209 165.404,91.209 164.5,90.5C 163.5,89.1667 162.5,87.8333 161.5,86.5C 161.5,86.1667 161.5,85.8333 161.5,85.5 Z"/></g>
<g><path style="opacity:1" fill="#fdf8e7" d="M 46.5,86.5 C 48.5058,89.3548 51.1725,91.5215 54.5,93C 53.8921,93.8699 53.0588,94.3699 52,94.5C 50.2341,93.7665 48.4008,93.4332 46.5,93.5C 46.3505,94.552 46.5172,95.552 47,96.5C 48.9923,97.3281 50.4923,98.6614 51.5,100.5C 48.6992,99.3021 45.8659,99.3021 43,100.5C 40.8218,100.605 38.9885,99.9385 37.5,98.5C 36.3157,97.3121 36.3157,96.1455 37.5,95C 40.2179,93.9282 42.8845,92.7616 45.5,91.5C 39.0411,89.3506 39.3745,87.684 46.5,86.5 Z"/></g>
<g><path style="opacity:1" fill="#f6eccd" d="M 53.5,74.5 C 52.9688,76.5441 51.8022,78.2107 50,79.5C 49.7134,83.2351 50.5467,86.7351 52.5,90C 54.5183,90.5046 56.5183,91.0046 58.5,91.5C 59.7175,92.1614 61.0508,92.8281 62.5,93.5C 59.8364,94.4978 57.503,95.9978 55.5,98C 56.3279,98.9147 57.3279,99.5814 58.5,100C 65.3464,100.821 72.013,100.654 78.5,99.5C 80.8333,99.5 83.1667,99.5 85.5,99.5C 85.5,100.167 85.5,100.833 85.5,101.5C 83.1667,101.5 80.8333,101.5 78.5,101.5C 71.1667,101.5 63.8333,101.5 56.5,101.5C 55.0813,100.549 53.4147,100.216 51.5,100.5C 50.4923,98.6614 48.9923,97.3281 47,96.5C 46.5172,95.552 46.3505,94.552 46.5,93.5C 48.4008,93.4332 50.2341,93.7665 52,94.5C 53.0588,94.3699 53.8921,93.8699 54.5,93C 51.1725,91.5215 48.5058,89.3548 46.5,86.5C 47.3686,84.283 47.702,81.9496 47.5,79.5C 49.5,77.8333 51.5,76.1667 53.5,74.5 Z"/></g>
<g><path style="opacity:1" fill="#b3d74f" d="M 157.5,85.5 C 159.587,87.5986 161.92,89.2653 164.5,90.5C 165.404,91.209 165.737,92.209 165.5,93.5C 165.5,96.1667 165.5,98.8333 165.5,101.5C 160.728,101.705 156.062,102.372 151.5,103.5C 149.568,100.634 147.901,97.6339 146.5,94.5C 147.83,93.1679 149.497,92.3345 151.5,92C 150.978,91.4387 150.645,90.772 150.5,90C 151.528,86.5489 153.861,85.0489 157.5,85.5 Z"/></g>
<g><path style="opacity:1" fill="#a1bf5c" d="M 89.5,86.5 C 91.0991,91.0637 92.7657,95.7303 94.5,100.5C 98.4431,101.138 101.776,102.805 104.5,105.5C 102.883,104.962 101.216,104.629 99.5,104.5C 97.4214,104.029 95.4214,103.363 93.5,102.5C 92.0991,99.1882 90.5991,95.8548 89,92.5C 88.2715,95.1868 87.1049,97.5201 85.5,99.5C 85.3354,96.4816 85.502,93.4816 86,90.5C 87.1022,89.051 88.2689,87.7177 89.5,86.5 Z"/></g>
<g><path style="opacity:1" fill="#a5c734" d="M 124.5,95.5 C 123.833,96.5 123.167,97.5 122.5,98.5C 122.883,95.538 121.883,94.538 119.5,95.5C 115.244,94.9243 111.077,93.9243 107,92.5C 105.338,92.3875 104.171,93.0542 103.5,94.5C 104.817,94.3131 106.15,94.9798 107.5,96.5C 106.5,97.3333 105.5,98.1667 104.5,99C 104.833,99.3333 105.167,99.6667 105.5,100C 104.552,100.483 103.552,100.649 102.5,100.5C 98.6291,99.1397 98.9624,98.3064 103.5,98C 103.043,97.586 102.709,97.086 102.5,96.5C 99.7231,96.4688 97.0564,95.9688 94.5,95C 94.9574,94.586 95.2907,94.086 95.5,93.5C 94.0499,92.1502 93.3832,90.4835 93.5,88.5C 94.8068,89.1534 96.1401,89.8201 97.5,90.5C 98.7112,91.2739 98.7112,92.1072 97.5,93C 99.3533,93.5513 100.687,92.8847 101.5,91C 104.133,91.2532 106.8,91.2532 109.5,91C 113.612,88.7174 117.946,86.8841 122.5,85.5C 122.52,87.143 121.853,88.4763 120.5,89.5C 121.391,90.5896 122.391,90.5896 123.5,89.5C 124.466,91.396 124.799,93.396 124.5,95.5 Z"/></g>
<g><path style="opacity:1" fill="#b2d034" d="M 122.5,98.5 C 122.5,101.167 122.5,103.833 122.5,106.5C 117.77,106.717 113.103,106.383 108.5,105.5C 106.5,103.833 104.5,102.167 102.5,100.5C 103.552,100.649 104.552,100.483 105.5,100C 105.167,99.6667 104.833,99.3333 104.5,99C 105.5,98.1667 106.5,97.3333 107.5,96.5C 106.15,94.9798 104.817,94.3131 103.5,94.5C 104.171,93.0542 105.338,92.3875 107,92.5C 111.077,93.9243 115.244,94.9243 119.5,95.5C 121.883,94.538 122.883,95.538 122.5,98.5 Z"/></g>
<g><path style="opacity:1" fill="#f7c768" d="M 78.5,99.5 C 73.1203,99.6757 67.787,99.3424 62.5,98.5C 63.4657,95.2436 64.7991,92.2436 66.5,89.5C 68.6208,89.6747 70.6208,89.3414 72.5,88.5C 74.5,88.1667 76.5,87.8333 78.5,87.5C 78.5,91.5 78.5,95.5 78.5,99.5 Z"/></g>
<g><path style="opacity:1" fill="#a1bd39" d="M 88.5,79.5 C 89.8333,81.1667 91.1667,82.8333 92.5,84.5C 93.2341,85.7079 93.5674,87.0413 93.5,88.5C 93.3832,90.4835 94.0499,92.1502 95.5,93.5C 95.2907,94.086 94.9574,94.586 94.5,95C 97.0564,95.9688 99.7231,96.4688 102.5,96.5C 102.709,97.086 103.043,97.586 103.5,98C 98.9624,98.3064 98.6291,99.1397 102.5,100.5C 104.5,102.167 106.5,103.833 108.5,105.5C 109.502,107.011 110.169,108.678 110.5,110.5C 110.167,110.5 109.833,110.5 109.5,110.5C 109.672,109.508 109.338,108.842 108.5,108.5C 107.128,107.488 105.795,106.488 104.5,105.5C 101.776,102.805 98.4431,101.138 94.5,100.5C 92.7657,95.7303 91.0991,91.0637 89.5,86.5C 89.2041,84.597 88.5375,82.9303 87.5,81.5C 87.5,81.1667 87.5,80.8333 87.5,80.5C 88.1667,80.5 88.5,80.1667 88.5,79.5 Z"/></g>
<g><path style="opacity:1" fill="#f6f4ec" d="M 23.5,98.5 C 28.1667,98.5 32.8333,98.5 37.5,98.5C 38.9885,99.9385 40.8218,100.605 43,100.5C 45.8659,99.3021 48.6992,99.3021 51.5,100.5C 53.4147,100.216 55.0813,100.549 56.5,101.5C 54.901,101.232 53.5676,101.566 52.5,102.5C 47.6904,103.095 43.0238,104.262 38.5,106C 33.0731,109.62 33.4064,112.453 39.5,114.5C 40.9952,114.989 42.3285,115.655 43.5,116.5C 42.1825,116.821 40.8492,117.154 39.5,117.5C 37.3021,115.902 34.9687,114.569 32.5,113.5C 32.6988,110.989 33.0321,108.822 33.5,107C 31.7328,103.69 29.2328,102.857 26,104.5C 20.1797,103.859 19.3464,101.859 23.5,98.5 Z"/></g>
<g><path style="opacity:1" fill="#6d8e48" d="M 93.5,102.5 C 90.7938,102.425 88.1272,102.092 85.5,101.5C 85.5,100.833 85.5,100.167 85.5,99.5C 87.1049,97.5201 88.2715,95.1868 89,92.5C 90.5991,95.8548 92.0991,99.1882 93.5,102.5 Z"/></g>
<g><path style="opacity:1" fill="#aed870" d="M 140.5,80.5 C 140.938,80.4346 141.272,80.6012 141.5,81C 140.833,81.3333 140.167,81.6667 139.5,82C 140.624,82.2492 141.624,82.7492 142.5,83.5C 140.294,86.203 137.961,88.703 135.5,91C 136.667,92.1667 137.833,93.3333 139,94.5C 139.833,93.5 140.667,92.5 141.5,91.5C 142.726,93.2779 144.393,94.2779 146.5,94.5C 147.901,97.6339 149.568,100.634 151.5,103.5C 150.833,103.5 150.167,103.5 149.5,103.5C 146.386,102.909 143.886,101.242 142,98.5C 141.764,100.119 140.931,101.119 139.5,101.5C 138.5,101.5 137.5,101.5 136.5,101.5C 134.59,100.025 133.424,98.0254 133,95.5C 132.374,97.7135 132.541,99.8801 133.5,102C 133.164,103.03 132.497,103.53 131.5,103.5C 131.324,98.1203 131.658,92.787 132.5,87.5C 133.646,85.525 135.313,84.025 137.5,83C 137.167,82.6667 136.833,82.3333 136.5,82C 137.745,81.2086 139.078,80.7086 140.5,80.5 Z"/></g>
<g><path style="opacity:1" fill="#eddebd" d="M 17.5,93.5 C 18.791,93.2627 19.791,93.596 20.5,94.5C 19.8333,94.5 19.1667,94.5 18.5,94.5C 10.2984,95.8047 8.63168,99.638 13.5,106C 11.8217,105.888 10.155,105.388 8.5,104.5C 6.97065,104.529 5.80399,105.196 5,106.5C 4.33333,109.833 4.33333,113.167 5,116.5C 5.35302,119.152 6.51968,121.152 8.5,122.5C 7.80501,124.85 6.47167,125.517 4.5,124.5C -2.23661,109.352 2.09672,99.0184 17.5,93.5 Z"/></g>
<g><path style="opacity:1" fill="#27580e" d="M 149.5,103.5 C 149.918,104.222 150.584,104.722 151.5,105C 148.259,105.495 147.259,106.995 148.5,109.5C 146.854,107.854 145.188,106.188 143.5,104.5C 141.577,103.692 139.577,103.192 137.5,103C 138.416,102.722 139.082,102.222 139.5,101.5C 140.931,101.119 141.764,100.119 142,98.5C 143.886,101.242 146.386,102.909 149.5,103.5 Z"/></g>
<g><path style="opacity:1" fill="#f9f3df" d="M 23.5,98.5 C 19.3464,101.859 20.1797,103.859 26,104.5C 29.2328,102.857 31.7328,103.69 33.5,107C 33.0321,108.822 32.6988,110.989 32.5,113.5C 32.8333,115.5 33.1667,117.5 33.5,119.5C 28.547,120.329 23.547,120.663 18.5,120.5C 18.9175,119.778 19.5842,119.278 20.5,119C 24.1516,118.501 27.8183,118.335 31.5,118.5C 31.4348,116.304 30.7681,114.304 29.5,112.5C 26.7363,111.239 24.403,109.405 22.5,107C 21.552,106.517 20.552,106.351 19.5,106.5C 18.6548,102.402 18.3214,98.402 18.5,94.5C 19.1667,94.5 19.8333,94.5 20.5,94.5C 21.5,94.5 22.5,94.5 23.5,94.5C 25.8056,94.0074 28.139,93.6741 30.5,93.5C 30.5,94.8333 30.5,96.1667 30.5,97.5C 27.9407,97.1984 25.6074,97.5318 23.5,98.5 Z"/></g>
<g><path style="opacity:1" fill="#9fa8b1" d="M 52.5,102.5 C 55.8499,102.335 59.1832,102.502 62.5,103C 57.2063,103.818 57.2063,104.318 62.5,104.5C 62.5,105.5 62.5,106.5 62.5,107.5C 68.0367,108.087 73.37,109.087 78.5,110.5C 72.9738,110.179 67.6405,110.512 62.5,111.5C 59.8333,111.5 57.1667,111.5 54.5,111.5C 55.9516,110.698 57.6183,110.198 59.5,110C 53.5249,108.128 47.5249,108.128 41.5,110C 39.8934,111.049 39.2267,112.549 39.5,114.5C 33.4064,112.453 33.0731,109.62 38.5,106C 43.0238,104.262 47.6904,103.095 52.5,102.5 Z"/></g>
<g><path style="opacity:1" fill="#85bf6e" d="M 136.5,101.5 C 135.732,102.263 135.232,103.263 135,104.5C 134.812,108.378 134.646,112.044 134.5,115.5C 133.188,111.584 132.188,107.584 131.5,103.5C 132.497,103.53 133.164,103.03 133.5,102C 132.541,99.8801 132.374,97.7135 133,95.5C 133.424,98.0254 134.59,100.025 136.5,101.5 Z"/></g>
<g><path style="opacity:1" fill="#d4d7d4" d="M 78.5,101.5 C 80.8333,101.5 83.1667,101.5 85.5,101.5C 88.1272,102.092 90.7938,102.425 93.5,102.5C 95.4214,103.363 97.4214,104.029 99.5,104.5C 101.751,105.818 103.751,107.484 105.5,109.5C 103.516,109.617 101.85,108.95 100.5,107.5C 99.0692,109.938 97.0692,111.604 94.5,112.5C 91.1667,112.5 87.8333,112.5 84.5,112.5C 83.8333,112.5 83.1667,112.5 82.5,112.5C 76.021,111.509 69.3543,111.176 62.5,111.5C 67.6405,110.512 72.9738,110.179 78.5,110.5C 81.1731,110.316 81.8398,109.149 80.5,107C 81.1667,106.667 81.8333,106.333 82.5,106C 78.3466,105.616 74.3466,104.616 70.5,103C 73.3647,102.817 76.0314,102.317 78.5,101.5 Z"/></g>
<g><path style="opacity:1" fill="#faebbf" d="M 18.5,94.5 C 18.3214,98.402 18.6548,102.402 19.5,106.5C 20.552,106.351 21.552,106.517 22.5,107C 24.403,109.405 26.7363,111.239 29.5,112.5C 30.7681,114.304 31.4348,116.304 31.5,118.5C 27.8183,118.335 24.1516,118.501 20.5,119C 19.5842,119.278 18.9175,119.778 18.5,120.5C 15.7827,121.563 12.9494,122.563 10,123.5C 9.61742,122.944 9.11742,122.611 8.5,122.5C 6.51968,121.152 5.35302,119.152 5,116.5C 4.33333,113.167 4.33333,109.833 5,106.5C 5.80399,105.196 6.97065,104.529 8.5,104.5C 10.155,105.388 11.8217,105.888 13.5,106C 8.63168,99.638 10.2984,95.8047 18.5,94.5 Z"/></g>
<g><path style="opacity:1" fill="#cdd6dd" d="M 52.5,102.5 C 53.5676,101.566 54.901,101.232 56.5,101.5C 63.8333,101.5 71.1667,101.5 78.5,101.5C 76.0314,102.317 73.3647,102.817 70.5,103C 74.3466,104.616 78.3466,105.616 82.5,106C 81.8333,106.333 81.1667,106.667 80.5,107C 81.8398,109.149 81.1731,110.316 78.5,110.5C 73.37,109.087 68.0367,108.087 62.5,107.5C 62.5,106.5 62.5,105.5 62.5,104.5C 57.2063,104.318 57.2063,103.818 62.5,103C 59.1832,102.502 55.8499,102.335 52.5,102.5 Z"/></g>
<g><path style="opacity:1" fill="#9db920" d="M 124.5,95.5 C 125.404,96.209 125.737,97.209 125.5,98.5C 126.075,104.167 126.242,109.833 126,115.5C 123.959,117.65 121.459,118.65 118.5,118.5C 118.286,116.856 118.62,115.356 119.5,114C 115.148,113.581 114.815,112.914 118.5,112C 115.854,111.503 113.187,111.336 110.5,111.5C 110.5,111.167 110.5,110.833 110.5,110.5C 110.169,108.678 109.502,107.011 108.5,105.5C 113.103,106.383 117.77,106.717 122.5,106.5C 122.5,103.833 122.5,101.167 122.5,98.5C 123.167,97.5 123.833,96.5 124.5,95.5 Z"/></g>
<g><path style="opacity:1" fill="#56913b" d="M 136.5,101.5 C 137.5,101.5 138.5,101.5 139.5,101.5C 139.082,102.222 138.416,102.722 137.5,103C 139.577,103.192 141.577,103.692 143.5,104.5C 145.188,106.188 146.854,107.854 148.5,109.5C 149.29,110.794 150.29,111.961 151.5,113C 150.833,113.333 150.167,113.667 149.5,114C 150.711,114.893 150.711,115.726 149.5,116.5C 147.581,115.388 145.914,114.054 144.5,112.5C 143.02,110.397 141.853,110.397 141,112.5C 139.844,111.007 139.01,111.174 138.5,113C 139.029,114.559 139.696,116.059 140.5,117.5C 139.603,117.669 138.603,118.002 137.5,118.5C 138.456,120.075 139.123,121.742 139.5,123.5C 137.684,121.882 136.351,119.882 135.5,117.5C 135.167,116.833 134.833,116.167 134.5,115.5C 134.646,112.044 134.812,108.378 135,104.5C 135.232,103.263 135.732,102.263 136.5,101.5 Z"/></g>
<g><path style="opacity:1" fill="#589030" d="M 165.5,93.5 C 166.135,96.8862 167.135,100.22 168.5,103.5C 168.5,104.833 168.5,106.167 168.5,107.5C 167.082,109.308 165.082,109.975 162.5,109.5C 162.542,111.849 161.375,113.182 159,113.5C 157.343,112.516 155.677,111.516 154,110.5C 153.586,110.957 153.086,111.291 152.5,111.5C 151.378,110.37 150.044,109.703 148.5,109.5C 147.259,106.995 148.259,105.495 151.5,105C 150.584,104.722 149.918,104.222 149.5,103.5C 150.167,103.5 150.833,103.5 151.5,103.5C 156.062,102.372 160.728,101.705 165.5,101.5C 165.5,98.8333 165.5,96.1667 165.5,93.5 Z"/></g>
<g><path style="opacity:1" fill="#9f7a6c" d="M 54.5,111.5 C 57.1667,111.5 59.8333,111.5 62.5,111.5C 69.3543,111.176 76.021,111.509 82.5,112.5C 82.1667,112.5 81.8333,112.5 81.5,112.5C 76.1667,112.5 70.8333,112.5 65.5,112.5C 59.143,112.476 52.8097,112.81 46.5,113.5C 48.9608,112.469 51.6275,111.802 54.5,111.5 Z"/></g>
<g><path style="opacity:1" fill="#6c6e7e" d="M 54.5,111.5 C 51.6275,111.802 48.9608,112.469 46.5,113.5C 46.4431,114.609 46.1098,115.609 45.5,116.5C 44.8333,116.5 44.1667,116.5 43.5,116.5C 42.3285,115.655 40.9952,114.989 39.5,114.5C 39.2267,112.549 39.8934,111.049 41.5,110C 47.5249,108.128 53.5249,108.128 59.5,110C 57.6183,110.198 55.9516,110.698 54.5,111.5 Z"/></g>
<g><path style="opacity:1" fill="#2e5803" d="M 131.5,103.5 C 132.188,107.584 133.188,111.584 134.5,115.5C 134.833,116.167 135.167,116.833 135.5,117.5C 134.072,119.795 134.572,121.795 137,123.5C 138.44,127.041 139.274,130.708 139.5,134.5C 137.833,131.176 135.666,128.176 133,125.5C 132.296,119.646 131.462,113.813 130.5,108C 130.508,106.293 130.842,104.793 131.5,103.5 Z"/></g>
<g><path style="opacity:1" fill="#823f32" d="M 65.5,112.5 C 61.1653,113.311 56.6653,113.978 52,114.5C 49.4219,114.682 48.9219,115.682 50.5,117.5C 48.7085,117.634 47.0418,117.301 45.5,116.5C 46.1098,115.609 46.4431,114.609 46.5,113.5C 52.8097,112.81 59.143,112.476 65.5,112.5 Z"/></g>
<g><path style="opacity:1" fill="#9e9bae" d="M 105.5,109.5 C 105.201,113.133 103.201,115.133 99.5,115.5C 97.58,114.935 95.9133,113.935 94.5,112.5C 97.0692,111.604 99.0692,109.938 100.5,107.5C 101.85,108.95 103.516,109.617 105.5,109.5 Z"/></g>
<g><path style="opacity:0.992" fill="#769650" d="M 168.5,103.5 C 169.167,104.5 169.833,105.5 170.5,106.5C 172.677,111.51 174.01,116.844 174.5,122.5C 173.167,122.5 171.833,122.5 170.5,122.5C 169.624,118.538 168.958,114.538 168.5,110.5C 169.833,109.5 169.833,108.5 168.5,107.5C 168.5,106.167 168.5,104.833 168.5,103.5 Z"/></g>
<g><path style="opacity:1" fill="#a2481e" d="M 65.5,112.5 C 70.8333,112.5 76.1667,112.5 81.5,112.5C 80.791,113.404 79.791,113.737 78.5,113.5C 78.5,114.5 78.5,115.5 78.5,116.5C 74.1539,116.334 69.8206,116.501 65.5,117C 64.2625,117.232 63.2625,117.732 62.5,118.5C 58.4659,118.495 54.4659,118.162 50.5,117.5C 48.9219,115.682 49.4219,114.682 52,114.5C 56.6653,113.978 61.1653,113.311 65.5,112.5 Z"/></g>
<g><path style="opacity:1" fill="#975837" d="M 84.5,112.5 C 87.8333,112.5 91.1667,112.5 94.5,112.5C 95.9133,113.935 97.58,114.935 99.5,115.5C 96.3061,116.758 92.9728,117.424 89.5,117.5C 88.7375,116.732 87.7375,116.232 86.5,116C 86.8333,115.667 87.1667,115.333 87.5,115C 86.4293,114.148 85.4293,113.315 84.5,112.5 Z"/></g>
<g><path style="opacity:1" fill="#366c21" d="M 168.5,107.5 C 169.833,108.5 169.833,109.5 168.5,110.5C 163.695,113.071 159.028,115.904 154.5,119C 155.305,120.113 155.972,121.279 156.5,122.5C 156.67,123.822 156.337,124.989 155.5,126C 153.288,126.789 151.288,126.622 149.5,125.5C 151.783,125.392 153.783,124.559 155.5,123C 154.833,122 154.167,121 153.5,120C 149.917,119.054 146.584,118.221 143.5,117.5C 142.366,115.561 142.7,113.895 144.5,112.5C 145.914,114.054 147.581,115.388 149.5,116.5C 150.711,115.726 150.711,114.893 149.5,114C 150.167,113.667 150.833,113.333 151.5,113C 150.29,111.961 149.29,110.794 148.5,109.5C 150.044,109.703 151.378,110.37 152.5,111.5C 153.086,111.291 153.586,110.957 154,110.5C 155.677,111.516 157.343,112.516 159,113.5C 161.375,113.182 162.542,111.849 162.5,109.5C 165.082,109.975 167.082,109.308 168.5,107.5 Z"/></g>
<g><path style="opacity:1" fill="#dfb682" d="M 81.5,112.5 C 81.8333,112.5 82.1667,112.5 82.5,112.5C 83.1667,112.5 83.8333,112.5 84.5,112.5C 85.4293,113.315 86.4293,114.148 87.5,115C 87.1667,115.333 86.8333,115.667 86.5,116C 87.7375,116.232 88.7375,116.732 89.5,117.5C 80.4166,119.449 71.4166,119.783 62.5,118.5C 63.2625,117.732 64.2625,117.232 65.5,117C 69.8206,116.501 74.1539,116.334 78.5,116.5C 78.5,115.5 78.5,114.5 78.5,113.5C 79.791,113.737 80.791,113.404 81.5,112.5 Z"/></g>
<g><path style="opacity:1" fill="#f5ede3" d="M 105.5,109.5 C 107.176,110.183 107.843,111.517 107.5,113.5C 101.061,117.202 94.0608,119.535 86.5,120.5C 86.1667,120.5 85.8333,120.5 85.5,120.5C 83.8333,120.5 82.1667,120.5 80.5,120.5C 69.1483,120.627 57.815,120.294 46.5,119.5C 41.9452,119.222 37.6118,119.555 33.5,120.5C 33.5,120.167 33.5,119.833 33.5,119.5C 33.1667,117.5 32.8333,115.5 32.5,113.5C 34.9687,114.569 37.3021,115.902 39.5,117.5C 40.8492,117.154 42.1825,116.821 43.5,116.5C 44.1667,116.5 44.8333,116.5 45.5,116.5C 47.0418,117.301 48.7085,117.634 50.5,117.5C 54.4659,118.162 58.4659,118.495 62.5,118.5C 71.4166,119.783 80.4166,119.449 89.5,117.5C 92.9728,117.424 96.3061,116.758 99.5,115.5C 103.201,115.133 105.201,113.133 105.5,109.5 Z"/></g>
<g><path style="opacity:1" fill="#8696a7" d="M 107.5,113.5 C 106.64,117.434 106.307,121.434 106.5,125.5C 105.698,124.048 105.198,122.382 105,120.5C 104.621,123.03 103.787,125.363 102.5,127.5C 98.3992,127.798 95.7326,126.132 94.5,122.5C 92.8333,122.5 91.1667,122.5 89.5,122.5C 88.5,121.833 87.5,121.167 86.5,120.5C 94.0608,119.535 101.061,117.202 107.5,113.5 Z"/></g>
<g><path style="opacity:1" fill="#83a519" d="M 126.5,96.5 C 126.833,96.5 127.167,96.5 127.5,96.5C 127.666,105.173 127.5,113.84 127,122.5C 126.064,126.649 123.398,128.649 119,128.5C 116.611,128.518 114.444,127.851 112.5,126.5C 110.63,121.739 109.963,116.739 110.5,111.5C 113.187,111.336 115.854,111.503 118.5,112C 114.815,112.914 115.148,113.581 119.5,114C 118.62,115.356 118.286,116.856 118.5,118.5C 121.459,118.65 123.959,117.65 126,115.5C 126.242,109.833 126.075,104.167 125.5,98.5C 126.338,98.1583 126.672,97.4916 126.5,96.5 Z"/></g>
<g><path style="opacity:1" fill="#6c9215" d="M 144.5,79.5 C 142.901,79.2322 141.568,79.5655 140.5,80.5C 139.078,80.7086 137.745,81.2086 136.5,82C 136.833,82.3333 137.167,82.6667 137.5,83C 135.313,84.025 133.646,85.525 132.5,87.5C 129.74,91.05 128.407,95.2166 128.5,100C 129.035,109.251 130.201,118.417 132,127.5C 134.11,129.443 135.61,131.776 136.5,134.5C 136.357,136.262 136.691,137.929 137.5,139.5C 132.1,140.393 126.767,139.893 121.5,138C 118.118,135.045 114.452,132.545 110.5,130.5C 109.503,123.866 109.17,117.2 109.5,110.5C 109.833,110.5 110.167,110.5 110.5,110.5C 110.5,110.833 110.5,111.167 110.5,111.5C 109.963,116.739 110.63,121.739 112.5,126.5C 114.444,127.851 116.611,128.518 119,128.5C 123.398,128.649 126.064,126.649 127,122.5C 127.5,113.84 127.666,105.173 127.5,96.5C 128.099,92.3454 129.265,88.3454 131,84.5C 135.814,79.1478 140.314,77.4812 144.5,79.5 Z"/></g>
<g><path style="opacity:1" fill="#9eadb5" d="M 33.5,122.5 C 34.038,124.117 34.3713,125.784 34.5,127.5C 32.3193,127.716 30.6526,126.883 29.5,125C 25.8484,124.501 22.1817,124.335 18.5,124.5C 23.2502,122.969 28.2502,122.302 33.5,122.5 Z"/></g>
<g><path style="opacity:1" fill="#dee4dd" d="M 46.5,119.5 C 57.815,120.294 69.1483,120.627 80.5,120.5C 75.3595,121.488 70.0262,121.821 64.5,121.5C 62.6558,122.204 62.1558,123.537 63,125.5C 64.0113,126.337 65.1779,126.67 66.5,126.5C 68.352,129.289 70.852,131.289 74,132.5C 75.903,134.4 77.403,136.567 78.5,139C 77.3653,141.482 76.1986,143.982 75,146.5C 71.5056,148.473 70.0056,151.473 70.5,155.5C 67.9512,155.387 65.6179,156.054 63.5,157.5C 60.2071,157.024 57.2071,156.024 54.5,154.5C 55.5498,154.095 55.5498,153.429 54.5,152.5C 55.6888,151.571 57.0222,151.238 58.5,151.5C 62.6928,151.047 66.6928,149.881 70.5,148C 71.6886,145.122 73.0219,142.288 74.5,139.5C 71.5366,132.34 66.2033,128.006 58.5,126.5C 57.5655,125.432 57.2322,124.099 57.5,122.5C 56.5,122.5 55.5,122.5 54.5,122.5C 51.963,122.209 49.2963,122.042 46.5,122C 47.1667,121.667 47.8333,121.333 48.5,121C 47.5842,120.722 46.9175,120.222 46.5,119.5 Z"/></g>
<g><path style="opacity:1" fill="#adbcc6" d="M 85.5,120.5 C 85.8333,120.5 86.1667,120.5 86.5,120.5C 87.5,121.167 88.5,121.833 89.5,122.5C 90.2099,126.361 92.5433,128.027 96.5,127.5C 97.562,135.392 96.2287,142.725 92.5,149.5C 89.6061,150.256 87.6061,151.923 86.5,154.5C 86.5,152.833 86.5,151.167 86.5,149.5C 87.7124,148.77 88.7124,147.77 89.5,146.5C 92.0444,140.374 91.8777,134.374 89,128.5C 86.8154,127.33 84.6488,126.164 82.5,125C 83.4581,123.853 83.1247,122.853 81.5,122C 83.0581,121.79 84.3915,121.29 85.5,120.5 Z"/></g>
<g><path style="opacity:1" fill="#bdcfb7" d="M 99.5,104.5 C 101.216,104.629 102.883,104.962 104.5,105.5C 105.795,106.488 107.128,107.488 108.5,108.5C 108.5,114.167 108.5,119.833 108.5,125.5C 107.566,128.656 106.899,131.989 106.5,135.5C 105.335,139.114 104.002,142.78 102.5,146.5C 102.863,147.183 103.196,147.85 103.5,148.5C 102.351,148.209 101.684,147.376 101.5,146C 104.031,139.376 105.698,132.543 106.5,125.5C 106.307,121.434 106.64,117.434 107.5,113.5C 107.843,111.517 107.176,110.183 105.5,109.5C 103.751,107.484 101.751,105.818 99.5,104.5 Z"/></g>
<g><path style="opacity:1" fill="#174c08" d="M 149.5,125.5 C 151.288,126.622 153.288,126.789 155.5,126C 156.337,124.989 156.67,123.822 156.5,122.5C 159.445,123.468 162.445,123.634 165.5,123C 166.337,121.989 166.67,120.822 166.5,119.5C 167.552,119.351 168.552,119.517 169.5,120C 167.996,121.491 167.163,123.324 167,125.5C 161.36,125.865 160.527,127.699 164.5,131C 167.804,132.042 169.971,130.875 171,127.5C 172.38,132.291 170.547,134.624 165.5,134.5C 165.5,135.5 165.5,136.5 165.5,137.5C 164.5,137.5 163.5,137.5 162.5,137.5C 160.368,137.554 159.035,138.554 158.5,140.5C 158.167,140.5 157.833,140.5 157.5,140.5C 157.643,138.738 157.309,137.071 156.5,135.5C 158.396,134.534 160.396,134.201 162.5,134.5C 162.519,131.341 161.352,128.674 159,126.5C 154.668,128.767 150.168,128.934 145.5,127C 143.751,124.303 142.585,121.469 142,118.5C 144.043,121.378 146.543,123.711 149.5,125.5 Z"/></g>
<g><path style="opacity:1" fill="#538b30" d="M 168.5,110.5 C 168.958,114.538 169.624,118.538 170.5,122.5C 171.833,122.5 173.167,122.5 174.5,122.5C 174.336,125.187 174.503,127.854 175,130.5C 176.372,131.91 177.205,133.577 177.5,135.5C 178.039,138.695 177.039,141.195 174.5,143C 175.677,145.158 175.01,146.658 172.5,147.5C 167.534,146.876 163.534,144.543 160.5,140.5C 161.612,139.735 162.279,138.735 162.5,137.5C 163.5,137.5 164.5,137.5 165.5,137.5C 165.5,136.5 165.5,135.5 165.5,134.5C 170.547,134.624 172.38,132.291 171,127.5C 169.971,130.875 167.804,132.042 164.5,131C 160.527,127.699 161.36,125.865 167,125.5C 167.163,123.324 167.996,121.491 169.5,120C 168.552,119.517 167.552,119.351 166.5,119.5C 166.67,120.822 166.337,121.989 165.5,123C 162.445,123.634 159.445,123.468 156.5,122.5C 155.972,121.279 155.305,120.113 154.5,119C 159.028,115.904 163.695,113.071 168.5,110.5 Z"/></g>
<g><path style="opacity:1" fill="#e9e2c1" d="M 35.5,133.5 C 36.1174,133.389 36.6174,133.056 37,132.5C 37.5662,134.723 38.3995,136.723 39.5,138.5C 39.5,140.5 39.5,142.5 39.5,144.5C 38.596,145.209 38.2627,146.209 38.5,147.5C 33.1409,147.33 27.8076,146.83 22.5,146C 19.4985,145.262 16.8318,144.096 14.5,142.5C 21.6123,143.456 28.6123,144.289 35.5,145C 36.8112,142.726 36.8112,140.56 35.5,138.5C 35.0432,136.227 33.7099,134.894 31.5,134.5C 30.9332,132.97 30.2666,131.47 29.5,130C 24.9967,128.22 20.33,127.387 15.5,127.5C 15.9175,126.778 16.5842,126.278 17.5,126C 20.5,125.333 23.5,125.333 26.5,126C 29.6267,128.517 32.6267,131.017 35.5,133.5 Z"/></g>
<g><path style="opacity:1" fill="#f1f3ee" d="M 46.5,119.5 C 46.9175,120.222 47.5842,120.722 48.5,121C 47.8333,121.333 47.1667,121.667 46.5,122C 49.2963,122.042 51.963,122.209 54.5,122.5C 56.017,125.587 56.6837,128.921 56.5,132.5C 55.7784,132.082 55.2784,131.416 55,130.5C 52.544,132.321 49.7107,132.988 46.5,132.5C 46.196,129.478 45.696,126.478 45,123.5C 42.482,121.972 40.3153,122.306 38.5,124.5C 40.1437,127.311 42.3103,129.644 45,131.5C 46.2022,133.677 46.7022,136.011 46.5,138.5C 49.6685,139.002 52.0019,140.669 53.5,143.5C 53.1583,144.338 52.4916,144.672 51.5,144.5C 49.1708,142.722 46.5042,141.722 43.5,141.5C 43.5,140.5 43.5,139.5 43.5,138.5C 42.1667,138.5 40.8333,138.5 39.5,138.5C 38.3995,136.723 37.5662,134.723 37,132.5C 36.6174,133.056 36.1174,133.389 35.5,133.5C 34.8505,131.565 34.5172,129.565 34.5,127.5C 34.3713,125.784 34.038,124.117 33.5,122.5C 33.5,121.833 33.5,121.167 33.5,120.5C 37.6118,119.555 41.9452,119.222 46.5,119.5 Z"/></g>
<g><path style="opacity:1" fill="#4a700d" d="M 132.5,87.5 C 131.658,92.787 131.324,98.1203 131.5,103.5C 130.842,104.793 130.508,106.293 130.5,108C 131.462,113.813 132.296,119.646 133,125.5C 135.666,128.176 137.833,131.176 139.5,134.5C 140.674,135.514 141.34,136.847 141.5,138.5C 141.5,140.833 141.5,143.167 141.5,145.5C 140.5,145.5 139.5,145.5 138.5,145.5C 138.665,142.482 138.498,139.482 138,136.5C 137.722,135.584 137.222,134.918 136.5,134.5C 135.61,131.776 134.11,129.443 132,127.5C 130.201,118.417 129.035,109.251 128.5,100C 128.407,95.2166 129.74,91.05 132.5,87.5 Z"/></g>
<g><path style="opacity:1" fill="#477e36" d="M 144.5,112.5 C 142.7,113.895 142.366,115.561 143.5,117.5C 146.584,118.221 149.917,119.054 153.5,120C 154.167,121 154.833,122 155.5,123C 153.783,124.559 151.783,125.392 149.5,125.5C 146.543,123.711 144.043,121.378 142,118.5C 142.585,121.469 143.751,124.303 145.5,127C 150.168,128.934 154.668,128.767 159,126.5C 161.352,128.674 162.519,131.341 162.5,134.5C 160.396,134.201 158.396,134.534 156.5,135.5C 157.309,137.071 157.643,138.738 157.5,140.5C 154.465,141.666 151.798,141 149.5,138.5C 145.356,134.026 142.023,129.026 139.5,123.5C 139.123,121.742 138.456,120.075 137.5,118.5C 138.603,118.002 139.603,117.669 140.5,117.5C 139.696,116.059 139.029,114.559 138.5,113C 139.01,111.174 139.844,111.007 141,112.5C 141.853,110.397 143.02,110.397 144.5,112.5 Z"/></g>
<g><path style="opacity:0.78" fill="#7c9261" d="M 174.5,122.5 C 176.667,128.334 178.667,134.334 180.5,140.5C 180.547,142.038 179.88,143.038 178.5,143.5C 178.806,140.615 178.473,137.948 177.5,135.5C 177.205,133.577 176.372,131.91 175,130.5C 174.503,127.854 174.336,125.187 174.5,122.5 Z"/></g>
<g><path style="opacity:1" fill="#fcdea0" d="M 31.5,134.5 C 33.7099,134.894 35.0432,136.227 35.5,138.5C 36.2447,141.93 34.9114,143.597 31.5,143.5C 26.205,142.241 20.8717,141.241 15.5,140.5C 15.5,136.833 15.5,133.167 15.5,129.5C 21.9012,128.435 27.2346,130.102 31.5,134.5 Z"/></g>
<g><path style="opacity:1" fill="#ccd7d8" d="M 64.5,121.5 C 71.4323,124.712 78.599,127.712 86,130.5C 86.9813,132.96 87.8146,135.46 88.5,138C 87.5961,141.195 86.2628,144.028 84.5,146.5C 82.9699,147.211 81.6366,148.211 80.5,149.5C 80.0618,149.565 79.7284,149.399 79.5,149C 81.8852,144.764 84.0519,140.597 86,136.5C 81.3325,129.729 74.8325,126.396 66.5,126.5C 65.1779,126.67 64.0113,126.337 63,125.5C 62.1558,123.537 62.6558,122.204 64.5,121.5 Z"/></g>
<g><path style="opacity:1" fill="#bfcbd1" d="M 80.5,120.5 C 82.1667,120.5 83.8333,120.5 85.5,120.5C 84.3915,121.29 83.0581,121.79 81.5,122C 83.1247,122.853 83.4581,123.853 82.5,125C 84.6488,126.164 86.8154,127.33 89,128.5C 91.8777,134.374 92.0444,140.374 89.5,146.5C 88.7124,147.77 87.7124,148.77 86.5,149.5C 84.9519,149.179 84.2852,148.179 84.5,146.5C 86.2628,144.028 87.5961,141.195 88.5,138C 87.8146,135.46 86.9813,132.96 86,130.5C 78.599,127.712 71.4323,124.712 64.5,121.5C 70.0262,121.821 75.3595,121.488 80.5,120.5 Z"/></g>
<g><path style="opacity:1" fill="#f5f6eb" d="M 56.5,132.5 C 56.871,136.696 55.871,140.363 53.5,143.5C 52.0019,140.669 49.6685,139.002 46.5,138.5C 46.7022,136.011 46.2022,133.677 45,131.5C 42.3103,129.644 40.1437,127.311 38.5,124.5C 40.3153,122.306 42.482,121.972 45,123.5C 45.696,126.478 46.196,129.478 46.5,132.5C 49.7107,132.988 52.544,132.321 55,130.5C 55.2784,131.416 55.7784,132.082 56.5,132.5 Z"/></g>
<g><path style="opacity:1" fill="#e4e9e0" d="M 58.5,126.5 C 66.2033,128.006 71.5366,132.34 74.5,139.5C 73.0219,142.288 71.6886,145.122 70.5,148C 66.6928,149.881 62.6928,151.047 58.5,151.5C 61.2869,149.795 60.9535,148.628 57.5,148C 59.1341,147.506 60.8008,147.34 62.5,147.5C 63.5832,147.461 64.5832,147.127 65.5,146.5C 66.8034,144.063 68.4701,141.896 70.5,140C 68.171,134.675 64.171,131.508 58.5,130.5C 58.5,129.167 58.5,127.833 58.5,126.5 Z"/></g>
<g><path style="opacity:1" fill="#193e07" d="M 135.5,117.5 C 136.351,119.882 137.684,121.882 139.5,123.5C 142.023,129.026 145.356,134.026 149.5,138.5C 147.345,141.603 145.011,144.603 142.5,147.5C 142.344,144.934 142.678,142.434 143.5,140C 143.164,138.97 142.497,138.47 141.5,138.5C 141.34,136.847 140.674,135.514 139.5,134.5C 139.274,130.708 138.44,127.041 137,123.5C 134.572,121.795 134.072,119.795 135.5,117.5 Z"/></g>
<g><path style="opacity:0.267" fill="#888888" d="M 18.5,124.5 C 22.1817,124.335 25.8484,124.501 29.5,125C 30.6526,126.883 32.3193,127.716 34.5,127.5C 34.5172,129.565 34.8505,131.565 35.5,133.5C 32.6267,131.017 29.6267,128.517 26.5,126C 23.5,125.333 20.5,125.333 17.5,126C 16.5842,126.278 15.9175,126.778 15.5,127.5C 12.7026,127.967 11.3692,129.633 11.5,132.5C 10.6618,132.842 10.3284,133.508 10.5,134.5C 9.01508,139.747 8.01508,139.413 7.5,133.5C 9.05758,127.944 12.7242,124.944 18.5,124.5 Z"/></g>
<g><path style="opacity:1" fill="#527810" d="M 108.5,108.5 C 109.338,108.842 109.672,109.508 109.5,110.5C 109.17,117.2 109.503,123.866 110.5,130.5C 114.452,132.545 118.118,135.045 121.5,138C 126.767,139.893 132.1,140.393 137.5,139.5C 136.691,137.929 136.357,136.262 136.5,134.5C 137.222,134.918 137.722,135.584 138,136.5C 138.498,139.482 138.665,142.482 138.5,145.5C 137.828,146.267 136.995,146.934 136,147.5C 132.943,146.549 129.777,146.216 126.5,146.5C 126.5,145.167 126.5,143.833 126.5,142.5C 121.268,142.383 116.935,140.383 113.5,136.5C 112.446,136.68 111.446,137.013 110.5,137.5C 108.997,133.645 108.33,129.645 108.5,125.5C 108.5,119.833 108.5,114.167 108.5,108.5 Z"/></g>
<g><path style="opacity:1" fill="#ebeee2" d="M 54.5,122.5 C 55.5,122.5 56.5,122.5 57.5,122.5C 57.2322,124.099 57.5655,125.432 58.5,126.5C 58.5,127.833 58.5,129.167 58.5,130.5C 64.171,131.508 68.171,134.675 70.5,140C 68.4701,141.896 66.8034,144.063 65.5,146.5C 64.5832,147.127 63.5832,147.461 62.5,147.5C 59.7699,146.183 56.9365,146.183 54,147.5C 53.3021,146.309 52.4687,145.309 51.5,144.5C 52.4916,144.672 53.1583,144.338 53.5,143.5C 55.871,140.363 56.871,136.696 56.5,132.5C 56.6837,128.921 56.017,125.587 54.5,122.5 Z"/></g>
<g><path style="opacity:1" fill="#d2ddd9" d="M 66.5,126.5 C 74.8325,126.396 81.3325,129.729 86,136.5C 84.0519,140.597 81.8852,144.764 79.5,149C 79.7284,149.399 80.0618,149.565 80.5,149.5C 77.2147,157.407 71.2147,160.74 62.5,159.5C 58.0903,158.316 53.757,156.983 49.5,155.5C 49.4614,154.244 49.9614,153.244 51,152.5C 51.8159,153.823 52.9826,154.489 54.5,154.5C 57.2071,156.024 60.2071,157.024 63.5,157.5C 65.6179,156.054 67.9512,155.387 70.5,155.5C 70.0056,151.473 71.5056,148.473 75,146.5C 76.1986,143.982 77.3653,141.482 78.5,139C 77.403,136.567 75.903,134.4 74,132.5C 70.852,131.289 68.352,129.289 66.5,126.5 Z"/></g>
<g><path style="opacity:1" fill="#3b5f11" d="M 108.5,125.5 C 108.33,129.645 108.997,133.645 110.5,137.5C 111.446,137.013 112.446,136.68 113.5,136.5C 116.935,140.383 121.268,142.383 126.5,142.5C 126.5,143.833 126.5,145.167 126.5,146.5C 129.777,146.216 132.943,146.549 136,147.5C 136.995,146.934 137.828,146.267 138.5,145.5C 139.5,145.5 140.5,145.5 141.5,145.5C 141.5,143.167 141.5,140.833 141.5,138.5C 142.497,138.47 143.164,138.97 143.5,140C 142.678,142.434 142.344,144.934 142.5,147.5C 142.833,148.833 143.167,150.167 143.5,151.5C 142.883,151.389 142.383,151.056 142,150.5C 140.259,151.758 138.426,152.758 136.5,153.5C 135.77,151.955 134.437,151.122 132.5,151C 127.833,150.667 123.167,150.333 118.5,150C 114.961,149.227 113.127,148.061 113,146.5C 110.943,147.797 108.776,148.297 106.5,148C 106.098,143.942 106.098,139.775 106.5,135.5C 106.899,131.989 107.566,128.656 108.5,125.5 Z"/></g>
<g><path style="opacity:0.826" fill="#dddcdd" d="M 33.5,119.5 C 33.5,119.833 33.5,120.167 33.5,120.5C 33.5,121.167 33.5,121.833 33.5,122.5C 28.2502,122.302 23.2502,122.969 18.5,124.5C 12.7242,124.944 9.05758,127.944 7.5,133.5C 6.84761,134.449 6.51428,135.615 6.5,137C 7.02779,139.881 7.69446,142.715 8.5,145.5C 7.44802,145.649 6.44802,145.483 5.5,145C 4.83663,143.482 3.83663,142.315 2.5,141.5C 1.53353,139.208 0.866865,136.708 0.5,134C 1.44267,130.621 2.776,127.454 4.5,124.5C 6.47167,125.517 7.80501,124.85 8.5,122.5C 9.11742,122.611 9.61742,122.944 10,123.5C 12.9494,122.563 15.7827,121.563 18.5,120.5C 23.547,120.663 28.547,120.329 33.5,119.5 Z"/></g>
<g><path style="opacity:1" fill="#efdbae" d="M 15.5,127.5 C 20.33,127.387 24.9967,128.22 29.5,130C 30.2666,131.47 30.9332,132.97 31.5,134.5C 27.2346,130.102 21.9012,128.435 15.5,129.5C 15.5,133.167 15.5,136.833 15.5,140.5C 20.8717,141.241 26.205,142.241 31.5,143.5C 34.9114,143.597 36.2447,141.93 35.5,138.5C 36.8112,140.56 36.8112,142.726 35.5,145C 28.6123,144.289 21.6123,143.456 14.5,142.5C 13.5,141.833 12.5,141.167 11.5,140.5C 12.6567,137.974 12.6567,135.307 11.5,132.5C 11.3692,129.633 12.7026,127.967 15.5,127.5 Z"/></g>
<g><path style="opacity:1" fill="#e4e9e3" d="M 39.5,138.5 C 40.8333,138.5 42.1667,138.5 43.5,138.5C 43.5,139.5 43.5,140.5 43.5,141.5C 46.5042,141.722 49.1708,142.722 51.5,144.5C 52.4687,145.309 53.3021,146.309 54,147.5C 56.9365,146.183 59.7699,146.183 62.5,147.5C 60.8008,147.34 59.1341,147.506 57.5,148C 60.9535,148.628 61.2869,149.795 58.5,151.5C 57.0222,151.238 55.6888,151.571 54.5,152.5C 55.5498,153.429 55.5498,154.095 54.5,154.5C 52.9826,154.489 51.8159,153.823 51,152.5C 49.9614,153.244 49.4614,154.244 49.5,155.5C 48.5041,155.586 47.6708,155.252 47,154.5C 44.3634,150.928 42.6967,146.928 42,142.5C 41.2917,143.381 40.4584,144.047 39.5,144.5C 39.5,142.5 39.5,140.5 39.5,138.5 Z"/></g>
<g><path style="opacity:1" fill="#bec8d2" d="M 106.5,125.5 C 105.698,132.543 104.031,139.376 101.5,146C 101.684,147.376 102.351,148.209 103.5,148.5C 99.9174,150.943 97.2507,154.276 95.5,158.5C 95.1667,159.167 94.8333,159.833 94.5,160.5C 92.8333,161.833 91.1667,163.167 89.5,164.5C 88.9569,164.44 88.6236,164.107 88.5,163.5C 90.0192,161.576 91.3525,159.576 92.5,157.5C 94.2225,155.747 95.7225,153.747 97,151.5C 99.9693,143.759 101.803,135.759 102.5,127.5C 103.787,125.363 104.621,123.03 105,120.5C 105.198,122.382 105.698,124.048 106.5,125.5 Z"/></g>
<g><path style="opacity:1" fill="#081a14" d="M 160.5,144.5 C 162.39,146.578 164.724,147.911 167.5,148.5C 165.507,149.472 165.174,150.805 166.5,152.5C 163.675,152.838 161.508,151.838 160,149.5C 160,150.833 160,152.167 160,153.5C 155.743,150.274 150.91,148.774 145.5,149C 146.944,147.237 147.944,145.237 148.5,143C 152.135,143.055 155.635,143.889 159,145.5C 159.383,144.944 159.883,144.611 160.5,144.5 Z"/></g>
<g><path style="opacity:1" fill="#cbcfd1" d="M 7.5,133.5 C 8.01508,139.413 9.01508,139.747 10.5,134.5C 10.3253,136.621 10.6586,138.621 11.5,140.5C 12.5,141.167 13.5,141.833 14.5,142.5C 16.8318,144.096 19.4985,145.262 22.5,146C 27.8076,146.83 33.1409,147.33 38.5,147.5C 38.2627,146.209 38.596,145.209 39.5,144.5C 40.4584,144.047 41.2917,143.381 42,142.5C 42.6967,146.928 44.3634,150.928 47,154.5C 47.6708,155.252 48.5041,155.586 49.5,155.5C 53.757,156.983 58.0903,158.316 62.5,159.5C 57.9134,159.132 53.58,159.132 49.5,159.5C 49.5,158.833 49.1667,158.5 48.5,158.5C 47.5084,158.672 46.8417,158.338 46.5,157.5C 44.883,154.38 43.0497,151.38 41,148.5C 40.5172,149.448 40.3505,150.448 40.5,151.5C 31.5051,150.867 22.5051,150.2 13.5,149.5C 12.2739,149.52 11.2739,149.853 10.5,150.5C 6.41176,148.746 3.74509,145.746 2.5,141.5C 3.83663,142.315 4.83663,143.482 5.5,145C 6.44802,145.483 7.44802,145.649 8.5,145.5C 7.69446,142.715 7.02779,139.881 6.5,137C 6.51428,135.615 6.84761,134.449 7.5,133.5 Z"/></g>
<g><path style="opacity:1" fill="#487630" d="M 177.5,135.5 C 178.473,137.948 178.806,140.615 178.5,143.5C 179.438,145.91 179.438,148.244 178.5,150.5C 178.511,152.017 179.177,153.184 180.5,154C 179.263,154.232 178.263,154.732 177.5,155.5C 176.211,153.752 174.711,153.419 173,154.5C 173.134,156.189 173.634,157.856 174.5,159.5C 173.833,159.167 173.167,158.833 172.5,158.5C 170.8,156.79 169.467,154.79 168.5,152.5C 175.146,150.352 174.813,149.018 167.5,148.5C 164.724,147.911 162.39,146.578 160.5,144.5C 159.4,143.395 158.733,142.062 158.5,140.5C 159.035,138.554 160.368,137.554 162.5,137.5C 162.279,138.735 161.612,139.735 160.5,140.5C 163.534,144.543 167.534,146.876 172.5,147.5C 175.01,146.658 175.677,145.158 174.5,143C 177.039,141.195 178.039,138.695 177.5,135.5 Z"/></g>
<g><path style="opacity:0.582" fill="#3c451c" d="M 106.5,135.5 C 106.098,139.775 106.098,143.942 106.5,148C 108.776,148.297 110.943,147.797 113,146.5C 113.127,148.061 114.961,149.227 118.5,150C 123.167,150.333 127.833,150.667 132.5,151C 134.437,151.122 135.77,151.955 136.5,153.5C 136.027,154.906 135.027,155.573 133.5,155.5C 133.158,154.662 132.492,154.328 131.5,154.5C 131.167,154.5 130.833,154.5 130.5,154.5C 128.517,154.157 127.183,154.824 126.5,156.5C 123.174,154.508 119.674,152.841 116,151.5C 115.617,152.056 115.117,152.389 114.5,152.5C 113.432,151.566 112.099,151.232 110.5,151.5C 109.167,151.5 107.833,151.5 106.5,151.5C 106.19,149.856 105.19,148.856 103.5,148.5C 103.196,147.85 102.863,147.183 102.5,146.5C 104.002,142.78 105.335,139.114 106.5,135.5 Z"/></g>
<g><path style="opacity:1" fill="#335846" d="M 157.5,160.5 C 150.727,160.719 146.06,157.719 143.5,151.5C 145.669,150.918 148.002,150.918 150.5,151.5C 150.351,152.552 150.517,153.552 151,154.5C 153.664,155.998 155.83,157.998 157.5,160.5 Z"/></g>
<g><path style="opacity:1" fill="#0d3a0d" d="M 167.5,148.5 C 174.813,149.018 175.146,150.352 168.5,152.5C 169.467,154.79 170.8,156.79 172.5,158.5C 170.784,158.371 169.117,158.038 167.5,157.5C 166.825,155.717 166.492,154.05 166.5,152.5C 165.174,150.805 165.507,149.472 167.5,148.5 Z"/></g>
<g><path style="opacity:1" fill="#639f36" d="M 177.5,155.5 C 183.817,158.138 186.483,162.805 185.5,169.5C 183.379,169.675 181.379,169.341 179.5,168.5C 177.94,166.871 178.273,165.704 180.5,165C 178.604,162.932 176.604,161.099 174.5,159.5C 173.634,157.856 173.134,156.189 173,154.5C 174.711,153.419 176.211,153.752 177.5,155.5 Z"/></g>
<g><path style="opacity:1" fill="#834347" d="M 103.5,148.5 C 105.19,148.856 106.19,149.856 106.5,151.5C 105.565,153.861 104.232,156.028 102.5,158C 101.258,158.311 100.258,157.811 99.5,156.5C 98.3777,157.63 97.0443,158.297 95.5,158.5C 97.2507,154.276 99.9174,150.943 103.5,148.5 Z"/></g>
<g><path style="opacity:1" fill="#b9c7ca" d="M 84.5,146.5 C 84.2852,148.179 84.9519,149.179 86.5,149.5C 86.5,151.167 86.5,152.833 86.5,154.5C 81.6084,156.319 76.9417,158.819 72.5,162C 67.3053,162.703 62.1386,162.536 57,161.5C 54.6627,164.251 52.1627,163.584 49.5,159.5C 53.58,159.132 57.9134,159.132 62.5,159.5C 71.2147,160.74 77.2147,157.407 80.5,149.5C 81.6366,148.211 82.9699,147.211 84.5,146.5 Z"/></g>
<g><path style="opacity:1" fill="#0d2d1b" d="M 149.5,138.5 C 151.798,141 154.465,141.666 157.5,140.5C 157.833,140.5 158.167,140.5 158.5,140.5C 158.733,142.062 159.4,143.395 160.5,144.5C 159.883,144.611 159.383,144.944 159,145.5C 155.635,143.889 152.135,143.055 148.5,143C 147.944,145.237 146.944,147.237 145.5,149C 150.91,148.774 155.743,150.274 160,153.5C 160,152.167 160,150.833 160,149.5C 161.508,151.838 163.675,152.838 166.5,152.5C 166.492,154.05 166.825,155.717 167.5,157.5C 166.316,158.688 166.316,159.855 167.5,161C 165.285,162.044 162.952,162.71 160.5,163C 161.252,163.671 161.586,164.504 161.5,165.5C 159.413,164.415 158.08,162.749 157.5,160.5C 155.83,157.998 153.664,155.998 151,154.5C 150.517,153.552 150.351,152.552 150.5,151.5C 148.002,150.918 145.669,150.918 143.5,151.5C 143.167,150.167 142.833,148.833 142.5,147.5C 145.011,144.603 147.345,141.603 149.5,138.5 Z"/></g>
<g><path style="opacity:1" fill="#6a7588" d="M 46.5,157.5 C 46.8417,158.338 47.5084,158.672 48.5,158.5C 48.2965,160.39 48.9632,161.89 50.5,163C 49.9056,163.464 49.2389,163.631 48.5,163.5C 46.8828,162.962 45.2161,162.629 43.5,162.5C 39.0047,161.922 34.5047,160.922 30,159.5C 29.0862,160.654 28.2529,160.487 27.5,159C 29.0577,156.946 31.0577,155.446 33.5,154.5C 29.2889,153.098 24.9555,152.264 20.5,152C 26.5482,151.337 32.5482,151.67 38.5,153C 39.7433,154.154 40.7433,155.488 41.5,157C 43.1341,157.494 44.8008,157.66 46.5,157.5 Z"/></g>
<g><path style="opacity:1" fill="#412935" d="M 106.5,151.5 C 107.833,151.5 109.167,151.5 110.5,151.5C 111.058,152.79 112.058,153.623 113.5,154C 111.167,154.333 108.833,154.667 106.5,155C 105.512,157.167 104.179,159 102.5,160.5C 101.732,161.263 101.232,162.263 101,163.5C 99.6459,158.463 97.9792,158.463 96,163.5C 94.9614,162.756 94.4614,161.756 94.5,160.5C 94.8333,159.833 95.1667,159.167 95.5,158.5C 97.0443,158.297 98.3777,157.63 99.5,156.5C 100.258,157.811 101.258,158.311 102.5,158C 104.232,156.028 105.565,153.861 106.5,151.5 Z"/></g>
<g><path style="opacity:1" fill="#52566d" d="M 110.5,151.5 C 112.099,151.232 113.432,151.566 114.5,152.5C 115.833,153.5 117.167,154.5 118.5,155.5C 118.1,157.377 117.1,158.877 115.5,160C 115.743,160.902 116.077,161.735 116.5,162.5C 114.606,163.048 112.94,164.048 111.5,165.5C 110.893,165.376 110.56,165.043 110.5,164.5C 111.23,163.288 112.23,162.288 113.5,161.5C 112.975,160.808 112.308,160.308 111.5,160C 112.731,158.817 112.731,157.651 111.5,156.5C 109.697,157.137 108.364,158.303 107.5,160C 105.866,160.494 104.199,160.66 102.5,160.5C 104.179,159 105.512,157.167 106.5,155C 108.833,154.667 111.167,154.333 113.5,154C 112.058,153.623 111.058,152.79 110.5,151.5 Z"/></g>
<g><path style="opacity:0.953" fill="#804648" d="M 130.5,154.5 C 129.941,158.216 128.108,160.216 125,160.5C 124.333,162.833 124.333,165.167 125,167.5C 126,166.833 127,166.167 128,165.5C 129.333,166.833 130.667,166.833 132,165.5C 131.89,161.871 131.724,158.204 131.5,154.5C 132.492,154.328 133.158,154.662 133.5,155.5C 133.018,156.416 132.685,157.416 132.5,158.5C 133.942,161.028 134.442,163.695 134,166.5C 131.932,168.396 130.099,170.396 128.5,172.5C 127.74,170.015 126.74,170.015 125.5,172.5C 124.833,171.833 124.167,171.167 123.5,170.5C 122.5,170.5 121.5,170.5 120.5,170.5C 121.36,168.184 121.86,165.851 122,163.5C 120.301,162.594 118.467,162.261 116.5,162.5C 116.077,161.735 115.743,160.902 115.5,160C 117.1,158.877 118.1,157.377 118.5,155.5C 120.148,156.777 121.982,157.777 124,158.5C 124.995,157.934 125.828,157.267 126.5,156.5C 127.183,154.824 128.517,154.157 130.5,154.5 Z"/></g>
<g><path style="opacity:1" fill="#939aa9" d="M 46.5,157.5 C 44.8008,157.66 43.1341,157.494 41.5,157C 40.7433,155.488 39.7433,154.154 38.5,153C 32.5482,151.67 26.5482,151.337 20.5,152C 24.9555,152.264 29.2889,153.098 33.5,154.5C 31.0577,155.446 29.0577,156.946 27.5,159C 28.2529,160.487 29.0862,160.654 30,159.5C 34.5047,160.922 39.0047,161.922 43.5,162.5C 41.4086,162.318 39.4086,162.652 37.5,163.5C 36.3869,166.441 35.0536,169.108 33.5,171.5C 26.7995,168.866 24.1328,164.199 25.5,157.5C 25.9528,156.542 26.6195,155.708 27.5,155C 21.6792,153.938 16.0125,152.438 10.5,150.5C 11.2739,149.853 12.2739,149.52 13.5,149.5C 22.5051,150.2 31.5051,150.867 40.5,151.5C 40.3505,150.448 40.5172,149.448 41,148.5C 43.0497,151.38 44.883,154.38 46.5,157.5 Z"/></g>
<g><path style="opacity:1" fill="#9a373a" d="M 130.5,154.5 C 130.833,154.5 131.167,154.5 131.5,154.5C 131.724,158.204 131.89,161.871 132,165.5C 130.667,166.833 129.333,166.833 128,165.5C 127,166.167 126,166.833 125,167.5C 124.333,165.167 124.333,162.833 125,160.5C 128.108,160.216 129.941,158.216 130.5,154.5 Z"/></g>
<g><path style="opacity:1" fill="#97a7b6" d="M 89.5,122.5 C 91.1667,122.5 92.8333,122.5 94.5,122.5C 95.7326,126.132 98.3992,127.798 102.5,127.5C 101.803,135.759 99.9693,143.759 97,151.5C 95.7225,153.747 94.2225,155.747 92.5,157.5C 90.7411,157.046 88.7411,157.046 86.5,157.5C 84.1175,159.046 81.4509,159.713 78.5,159.5C 78.3737,162.595 76.707,164.428 73.5,165C 69.5787,165.203 65.7454,165.703 62,166.5C 60.1745,165.429 59.0079,166.096 58.5,168.5C 59.6888,169.429 61.0222,169.762 62.5,169.5C 62.6495,170.552 62.4828,171.552 62,172.5C 58.7655,171.267 56.0989,169.267 54,166.5C 53.3872,168.495 53.8872,170.162 55.5,171.5C 53.8333,171.5 52.1667,171.5 50.5,171.5C 50.9926,169.194 51.3259,166.861 51.5,164.5C 50.209,164.737 49.209,164.404 48.5,163.5C 49.2389,163.631 49.9056,163.464 50.5,163C 48.9632,161.89 48.2965,160.39 48.5,158.5C 49.1667,158.5 49.5,158.833 49.5,159.5C 52.1627,163.584 54.6627,164.251 57,161.5C 62.1386,162.536 67.3053,162.703 72.5,162C 76.9417,158.819 81.6084,156.319 86.5,154.5C 87.6061,151.923 89.6061,150.256 92.5,149.5C 96.2287,142.725 97.562,135.392 96.5,127.5C 92.5433,128.027 90.2099,126.361 89.5,122.5 Z"/></g>
<g><path style="opacity:1" fill="#607393" d="M 110.5,164.5 C 108.697,166.481 107.03,168.648 105.5,171C 99.9905,172.89 94.3238,173.723 88.5,173.5C 87.8333,173.5 87.1667,173.5 86.5,173.5C 91.3358,170.436 96.3358,168.27 101.5,167C 102.423,164.959 102.756,162.792 102.5,160.5C 104.199,160.66 105.866,160.494 107.5,160C 108.364,158.303 109.697,157.137 111.5,156.5C 112.731,157.651 112.731,158.817 111.5,160C 112.308,160.308 112.975,160.808 113.5,161.5C 112.23,162.288 111.23,163.288 110.5,164.5 Z"/></g>
<g><path style="opacity:1" fill="#306d34" d="M 167.5,157.5 C 169.117,158.038 170.784,158.371 172.5,158.5C 173.167,158.833 173.833,159.167 174.5,159.5C 176.604,161.099 178.604,162.932 180.5,165C 178.273,165.704 177.94,166.871 179.5,168.5C 176.201,167.621 172.701,167.621 169,168.5C 167.513,167.747 167.346,166.914 168.5,166C 167.234,165.691 166.067,165.191 165,164.5C 164.667,165.167 164.333,165.833 164,166.5C 163.329,165.748 162.496,165.414 161.5,165.5C 161.586,164.504 161.252,163.671 160.5,163C 162.952,162.71 165.285,162.044 167.5,161C 166.316,159.855 166.316,158.688 167.5,157.5 Z"/></g>
<g><path style="opacity:1" fill="#6e7f94" d="M 92.5,157.5 C 91.3525,159.576 90.0192,161.576 88.5,163.5C 88.6236,164.107 88.9569,164.44 89.5,164.5C 87.5899,166.562 85.2565,168.062 82.5,169C 84.3008,169.317 84.6341,169.984 83.5,171C 81.913,171.862 80.2464,172.529 78.5,173C 81.146,173.497 83.8127,173.664 86.5,173.5C 87.1667,173.5 87.8333,173.5 88.5,173.5C 88.5,173.833 88.5,174.167 88.5,174.5C 82.5,174.5 76.5,174.5 70.5,174.5C 70.5,173.167 70.5,171.833 70.5,170.5C 73.0414,168.401 76.0414,167.068 79.5,166.5C 79.281,165.325 79.6143,164.325 80.5,163.5C 82.9029,161.764 84.9029,159.764 86.5,157.5C 88.7411,157.046 90.7411,157.046 92.5,157.5 Z"/></g>
<g><path style="opacity:0.612" fill="#83a455" d="M 178.5,150.5 C 181.833,154.167 185.167,157.833 188.5,161.5C 188.5,163.5 188.5,165.5 188.5,167.5C 187.5,168.167 186.5,168.833 185.5,169.5C 186.483,162.805 183.817,158.138 177.5,155.5C 178.263,154.732 179.263,154.232 180.5,154C 179.177,153.184 178.511,152.017 178.5,150.5 Z"/></g>
<g><path style="opacity:1" fill="#8799aa" d="M 86.5,157.5 C 84.9029,159.764 82.9029,161.764 80.5,163.5C 79.6143,164.325 79.281,165.325 79.5,166.5C 76.0414,167.068 73.0414,168.401 70.5,170.5C 70.5,171.833 70.5,173.167 70.5,174.5C 76.5,174.5 82.5,174.5 88.5,174.5C 90.4352,175.15 92.4352,175.483 94.5,175.5C 91.5,176.167 88.5,176.833 85.5,177.5C 83.8333,177.5 82.1667,177.5 80.5,177.5C 72.0992,176.309 63.7658,174.309 55.5,171.5C 53.8872,170.162 53.3872,168.495 54,166.5C 56.0989,169.267 58.7655,171.267 62,172.5C 62.4828,171.552 62.6495,170.552 62.5,169.5C 61.0222,169.762 59.6888,169.429 58.5,168.5C 59.0079,166.096 60.1745,165.429 62,166.5C 65.7454,165.703 69.5787,165.203 73.5,165C 76.707,164.428 78.3737,162.595 78.5,159.5C 81.4509,159.713 84.1175,159.046 86.5,157.5 Z"/></g>
<g><path style="opacity:0.106" fill="#7d9f70" d="M 179.5,168.5 C 181.379,169.341 183.379,169.675 185.5,169.5C 186.5,168.833 187.5,168.167 188.5,167.5C 188.5,168.167 188.5,168.833 188.5,169.5C 184.112,172.068 179.612,172.068 175,169.5C 169.461,171.472 164.961,170.139 161.5,165.5C 162.496,165.414 163.329,165.748 164,166.5C 164.333,165.833 164.667,165.167 165,164.5C 166.067,165.191 167.234,165.691 168.5,166C 167.346,166.914 167.513,167.747 169,168.5C 172.701,167.621 176.201,167.621 179.5,168.5 Z"/></g>
<g><path style="opacity:1" fill="#74839d" d="M 116.5,162.5 C 119.25,164.008 120.084,166.341 119,169.5C 118.329,170.252 117.496,170.586 116.5,170.5C 116.44,169.957 116.107,169.624 115.5,169.5C 108.857,172.762 101.857,174.762 94.5,175.5C 92.4352,175.483 90.4352,175.15 88.5,174.5C 88.5,174.167 88.5,173.833 88.5,173.5C 94.3238,173.723 99.9905,172.89 105.5,171C 107.03,168.648 108.697,166.481 110.5,164.5C 110.56,165.043 110.893,165.376 111.5,165.5C 112.94,164.048 114.606,163.048 116.5,162.5 Z"/></g>
<g><path style="opacity:1" fill="#4e5d79" d="M 102.5,160.5 C 102.756,162.792 102.423,164.959 101.5,167C 96.3358,168.27 91.3358,170.436 86.5,173.5C 83.8127,173.664 81.146,173.497 78.5,173C 80.2464,172.529 81.913,171.862 83.5,171C 84.6341,169.984 84.3008,169.317 82.5,169C 85.2565,168.062 87.5899,166.562 89.5,164.5C 91.1667,163.167 92.8333,161.833 94.5,160.5C 94.4614,161.756 94.9614,162.756 96,163.5C 97.9792,158.463 99.6459,158.463 101,163.5C 101.232,162.263 101.732,161.263 102.5,160.5 Z"/></g>
<g><path style="opacity:1" fill="#4f4c61" d="M 116.5,162.5 C 118.467,162.261 120.301,162.594 122,163.5C 121.86,165.851 121.36,168.184 120.5,170.5C 121.5,170.5 122.5,170.5 123.5,170.5C 121.407,171.058 119.907,172.391 119,174.5C 118.601,174.272 118.435,173.938 118.5,173.5C 117.5,172.833 116.5,172.167 115.5,171.5C 116.167,171.5 116.5,171.167 116.5,170.5C 117.496,170.586 118.329,170.252 119,169.5C 120.084,166.341 119.25,164.008 116.5,162.5 Z"/></g>
<g><path style="opacity:1" fill="#c4cfd9" d="M 43.5,162.5 C 43.4424,166.091 44.4424,169.258 46.5,172C 46.1667,172.333 45.8333,172.667 45.5,173C 49.9683,173.493 54.3017,174.493 58.5,176C 57.944,176.383 57.6107,176.883 57.5,177.5C 49.004,177.043 41.004,175.043 33.5,171.5C 35.0536,169.108 36.3869,166.441 37.5,163.5C 39.4086,162.652 41.4086,162.318 43.5,162.5 Z"/></g>
<g><path style="opacity:1" fill="#9393a7" d="M 123.5,170.5 C 124.167,171.167 124.833,171.833 125.5,172.5C 121.474,176.852 116.474,179.685 110.5,181C 102.743,182.553 95.0759,183.72 87.5,184.5C 77.8333,184.5 68.1667,184.5 58.5,184.5C 54.7328,183.903 51.0661,182.903 47.5,181.5C 65.6099,184.474 83.6099,183.974 101.5,180C 107.375,178.32 113.041,176.154 118.5,173.5C 118.435,173.938 118.601,174.272 119,174.5C 119.907,172.391 121.407,171.058 123.5,170.5 Z"/></g>
<g><path style="opacity:1" fill="#bbc5d2" d="M 43.5,162.5 C 45.2161,162.629 46.8828,162.962 48.5,163.5C 49.209,164.404 50.209,164.737 51.5,164.5C 51.3259,166.861 50.9926,169.194 50.5,171.5C 52.1667,171.5 53.8333,171.5 55.5,171.5C 63.7658,174.309 72.0992,176.309 80.5,177.5C 72.982,178.709 65.3154,178.709 57.5,177.5C 57.6107,176.883 57.944,176.383 58.5,176C 54.3017,174.493 49.9683,173.493 45.5,173C 45.8333,172.667 46.1667,172.333 46.5,172C 44.4424,169.258 43.4424,166.091 43.5,162.5 Z"/></g>
<g><path style="opacity:1" fill="#bdc8e3" d="M 116.5,170.5 C 116.5,171.167 116.167,171.5 115.5,171.5C 107.235,175.068 98.5679,177.401 89.5,178.5C 88.4324,177.566 87.099,177.232 85.5,177.5C 88.5,176.833 91.5,176.167 94.5,175.5C 101.857,174.762 108.857,172.762 115.5,169.5C 116.107,169.624 116.44,169.957 116.5,170.5 Z"/></g>
<g><path style="opacity:0.608" fill="#c5bfcb" d="M 128.5,172.5 C 127.432,175.075 125.765,177.242 123.5,179C 116.522,180.245 109.855,182.078 103.5,184.5C 98.1667,184.5 92.8333,184.5 87.5,184.5C 95.0759,183.72 102.743,182.553 110.5,181C 116.474,179.685 121.474,176.852 125.5,172.5C 126.74,170.015 127.74,170.015 128.5,172.5 Z"/></g>
<g><path style="opacity:0.784" fill="#dbdbe3" d="M 25.5,157.5 C 24.1328,164.199 26.7995,168.866 33.5,171.5C 41.004,175.043 49.004,177.043 57.5,177.5C 65.3154,178.709 72.982,178.709 80.5,177.5C 82.1667,177.5 83.8333,177.5 85.5,177.5C 87.099,177.232 88.4324,177.566 89.5,178.5C 77.1997,179.607 64.8663,179.773 52.5,179C 43.1513,177.841 34.4846,175.174 26.5,171C 32.2043,177.069 39.2043,180.569 47.5,181.5C 51.0661,182.903 54.7328,183.903 58.5,184.5C 53.1667,184.5 47.8333,184.5 42.5,184.5C 34.8903,183.445 28.3903,180.111 23,174.5C 21.4548,169.953 21.1215,165.287 22,160.5C 22.7589,158.937 23.9256,157.937 25.5,157.5 Z"/></g>
<g><path style="opacity:1" fill="#7c8398" d="M 89.5,178.5 C 98.5679,177.401 107.235,175.068 115.5,171.5C 116.5,172.167 117.5,172.833 118.5,173.5C 113.041,176.154 107.375,178.32 101.5,180C 83.6099,183.974 65.6099,184.474 47.5,181.5C 39.2043,180.569 32.2043,177.069 26.5,171C 34.4846,175.174 43.1513,177.841 52.5,179C 64.8663,179.773 77.1997,179.607 89.5,178.5 Z"/></g>
</svg>
