<?xml version="1.0" encoding="UTF-8"?>
<!DOCTYPE svg PUBLIC "-//W3C//DTD SVG 1.1//EN" "http://www.w3.org/Graphics/SVG/1.1/DTD/svg11.dtd">
<svg xmlns="http://www.w3.org/2000/svg" version="1.1" width="188px" height="184px" style="shape-rendering:geometricPrecision; text-rendering:geometricPrecision; image-rendering:optimizeQuality; fill-rule:evenodd; clip-rule:evenodd" xmlns:xlink="http://www.w3.org/1999/xlink">
<g><path style="opacity:1" fill="#ee9518" d="M 118.5,8.5 C 118.5,9.16667 118.833,9.5 119.5,9.5C 119.611,10.1174 119.944,10.6174 120.5,11C 119.09,12.3717 117.423,13.205 115.5,13.5C 114.402,12.603 114.402,11.7697 115.5,11C 111.955,10.2829 108.455,10.4496 105,11.5C 103.699,10.9019 102.865,9.90191 102.5,8.5C 104.166,3.93101 106.833,3.76434 110.5,8C 113.146,8.49742 115.813,8.66409 118.5,8.5 Z"/></g>
<g><path style="opacity:1" fill="#f1c74e" d="M 88.5,2.5 C 91.4658,2.11032 94.1324,2.77699 96.5,4.5C 99.0841,3.60724 101.751,3.27391 104.5,3.5C 102.5,4.16667 100.5,4.83333 98.5,5.5C 97.0695,5.42082 95.7362,5.75415 94.5,6.5C 93.8076,5.97473 93.3076,5.30806 93,4.5C 90.9286,5.10287 89.7619,6.4362 89.5,8.5C 89.2942,10.5492 88.4609,10.8825 87,9.5C 86.1475,11.1247 85.1475,11.4581 84,10.5C 81.0991,11.2367 78.9325,12.9033 77.5,15.5C 75.9826,15.5106 74.8159,16.1772 74,17.5C 72.1053,22.0621 69.9386,25.7288 67.5,28.5C 67.4904,22.6823 68.9904,17.3489 72,12.5C 72.3333,13.8333 72.6667,15.1667 73,16.5C 75.3333,13.8333 77.6667,11.1667 80,8.5C 80.3333,8.83333 80.6667,9.16667 81,9.5C 84.6295,8.37031 87.1295,6.03698 88.5,2.5 Z"/></g>
<g><path style="opacity:1" fill="#f3ae2e" d="M 118.5,8.5 C 115.813,8.66409 113.146,8.49742 110.5,8C 106.833,3.76434 104.166,3.93101 102.5,8.5C 102.865,9.90191 103.699,10.9019 105,11.5C 108.455,10.4496 111.955,10.2829 115.5,11C 114.402,11.7697 114.402,12.603 115.5,13.5C 115.158,14.3382 114.492,14.6716 113.5,14.5C 109.464,14.2821 108.13,15.9488 109.5,19.5C 108.167,19.5 106.833,19.5 105.5,19.5C 105.699,16.9887 106.032,14.822 106.5,13C 104.744,12.7978 103.078,12.2978 101.5,11.5C 100.871,9.25915 99.8714,7.25915 98.5,5.5C 100.5,4.83333 102.5,4.16667 104.5,3.5C 107.427,2.77532 110.094,3.60865 112.5,6C 115.623,6.20649 118.623,6.87315 121.5,8C 120.552,8.48278 119.552,8.64945 118.5,8.5 Z"/></g>
<g><path style="opacity:0.196" fill="#dead72" d="M 140.5,29.5 C 139.833,29.5 139.167,29.5 138.5,29.5C 138.084,27.2475 136.751,25.7475 134.5,25C 137.097,24.2208 137.097,23.7208 134.5,23.5C 132.782,21.2804 131.948,18.9471 132,16.5C 129.948,15.2766 127.781,14.2766 125.5,13.5C 126.582,13.2514 127.915,13.0848 129.5,13C 126.368,11.2182 123.035,10.0516 119.5,9.5C 118.833,9.5 118.5,9.16667 118.5,8.5C 119.552,8.64945 120.552,8.48278 121.5,8C 118.623,6.87315 115.623,6.20649 112.5,6C 110.094,3.60865 107.427,2.77532 104.5,3.5C 101.751,3.27391 99.0841,3.60724 96.5,4.5C 94.1324,2.77699 91.4658,2.11032 88.5,2.5C 104.7,-1.18308 119.2,2.48359 132,13.5C 134.656,18.9727 137.489,24.306 140.5,29.5 Z"/></g>
<g><path style="opacity:0.145" fill="#dec176" d="M 88.5,2.5 C 87.1295,6.03698 84.6295,8.37031 81,9.5C 80.6667,9.16667 80.3333,8.83333 80,8.5C 77.6667,11.1667 75.3333,13.8333 73,16.5C 72.6667,15.1667 72.3333,13.8333 72,12.5C 68.9904,17.3489 67.4904,22.6823 67.5,28.5C 66.8333,28.8333 66.1667,29.1667 65.5,29.5C 65.1667,29.5 64.8333,29.5 64.5,29.5C 65.4367,21.1334 68.4367,13.6334 73.5,7C 78.5074,5.49463 83.5074,3.99463 88.5,2.5 Z"/></g>
<g><path style="opacity:1" fill="#e27c1b" d="M 119.5,9.5 C 123.035,10.0516 126.368,11.2182 129.5,13C 127.915,13.0848 126.582,13.2514 125.5,13.5C 127.781,14.2766 129.948,15.2766 132,16.5C 131.948,18.9471 132.782,21.2804 134.5,23.5C 133.833,23.8333 133.167,24.1667 132.5,24.5C 128.955,21.8119 124.955,19.9785 120.5,19C 118.68,18.0206 117.513,16.5206 117,14.5C 115.708,15.7911 114.542,15.7911 113.5,14.5C 114.492,14.6716 115.158,14.3382 115.5,13.5C 117.423,13.205 119.09,12.3717 120.5,11C 119.944,10.6174 119.611,10.1174 119.5,9.5 Z"/></g>
<g><path style="opacity:1" fill="#f8c638" d="M 98.5,5.5 C 99.8714,7.25915 100.871,9.25915 101.5,11.5C 103.078,12.2978 104.744,12.7978 106.5,13C 106.032,14.822 105.699,16.9887 105.5,19.5C 106.833,19.5 108.167,19.5 109.5,19.5C 112.385,19.1936 115.052,19.5269 117.5,20.5C 113.295,20.1906 109.295,20.8572 105.5,22.5C 101.831,19.4684 98.8313,19.9684 96.5,24C 92.6416,27.6319 88.3082,28.7985 83.5,27.5C 78.7335,28.3648 74.0668,28.3648 69.5,27.5C 69.5,28.5 69.5,29.5 69.5,30.5C 69.2964,32.6854 68.6298,34.6854 67.5,36.5C 65.8372,34.5615 65.1706,32.2282 65.5,29.5C 66.1667,29.1667 66.8333,28.8333 67.5,28.5C 69.9386,25.7288 72.1053,22.0621 74,17.5C 74.8159,16.1772 75.9826,15.5106 77.5,15.5C 80.0546,17.6064 82.3879,19.9398 84.5,22.5C 85.6721,22.0814 86.6721,21.4147 87.5,20.5C 91.9072,19.8754 96.2406,19.042 100.5,18C 102.994,15.6068 102.327,14.4401 98.5,14.5C 98.1972,8.52029 95.1972,6.52029 89.5,8.5C 89.7619,6.4362 90.9286,5.10287 93,4.5C 93.3076,5.30806 93.8076,5.97473 94.5,6.5C 95.7362,5.75415 97.0695,5.42082 98.5,5.5 Z"/></g>
<g><path style="opacity:1" fill="#f9d74a" d="M 77.5,15.5 C 78.9325,12.9033 81.0991,11.2367 84,10.5C 85.1475,11.4581 86.1475,11.1247 87,9.5C 88.4609,10.8825 89.2942,10.5492 89.5,8.5C 95.1972,6.52029 98.1972,8.52029 98.5,14.5C 102.327,14.4401 102.994,15.6068 100.5,18C 96.2406,19.042 91.9072,19.8754 87.5,20.5C 86.6721,21.4147 85.6721,22.0814 84.5,22.5C 82.3879,19.9398 80.0546,17.6064 77.5,15.5 Z"/></g>
<g><path style="opacity:1" fill="#df9219" d="M 113.5,14.5 C 114.542,15.7911 115.708,15.7911 117,14.5C 117.513,16.5206 118.68,18.0206 120.5,19C 124.955,19.9785 128.955,21.8119 132.5,24.5C 130.097,24.552 127.764,24.2186 125.5,23.5C 122.79,22.4942 120.124,21.4942 117.5,20.5C 115.052,19.5269 112.385,19.1936 109.5,19.5C 108.13,15.9488 109.464,14.2821 113.5,14.5 Z"/></g>
<g><path style="opacity:1" fill="#b8a529" d="M 117.5,20.5 C 120.124,21.4942 122.79,22.4942 125.5,23.5C 128.33,25.9538 131.663,27.6205 135.5,28.5C 136.298,28.9569 136.631,29.6236 136.5,30.5C 130.289,29.8211 124.956,27.3211 120.5,23C 111.083,21.7086 104.083,25.2086 99.5,33.5C 99.1667,33.5 98.8333,33.5 98.5,33.5C 98.238,32.0222 98.5713,30.6888 99.5,29.5C 102.461,27.3999 104.461,25.0666 105.5,22.5C 109.295,20.8572 113.295,20.1906 117.5,20.5 Z"/></g>
<g><path style="opacity:1" fill="#ae8319" d="M 125.5,23.5 C 127.764,24.2186 130.097,24.552 132.5,24.5C 133.167,24.1667 133.833,23.8333 134.5,23.5C 137.097,23.7208 137.097,24.2208 134.5,25C 136.751,25.7475 138.084,27.2475 138.5,29.5C 137.833,29.5 137.5,29.8333 137.5,30.5C 137.167,30.5 136.833,30.5 136.5,30.5C 136.631,29.6236 136.298,28.9569 135.5,28.5C 131.663,27.6205 128.33,25.9538 125.5,23.5 Z"/></g>
<g><path style="opacity:1" fill="#ef8d1c" d="M 83.5,27.5 C 84.9117,28.5325 86.5784,29.1992 88.5,29.5C 91.4116,28.9315 94.4116,28.9315 97.5,29.5C 97.5,30.8333 97.5,32.1667 97.5,33.5C 97.7373,34.791 97.404,35.791 96.5,36.5C 96.5,35.5 96.5,34.5 96.5,33.5C 96.4413,31.2776 95.2747,30.2776 93,30.5C 91.5531,30.9452 90.2197,31.6119 89,32.5C 82.5513,29.2237 76.0513,28.557 69.5,30.5C 69.5,29.5 69.5,28.5 69.5,27.5C 74.0668,28.3648 78.7335,28.3648 83.5,27.5 Z"/></g>
<g><path style="opacity:1" fill="#f0a120" d="M 105.5,22.5 C 104.461,25.0666 102.461,27.3999 99.5,29.5C 98.5713,30.6888 98.238,32.0222 98.5,33.5C 98.1667,33.5 97.8333,33.5 97.5,33.5C 97.5,32.1667 97.5,30.8333 97.5,29.5C 94.4116,28.9315 91.4116,28.9315 88.5,29.5C 86.5784,29.1992 84.9117,28.5325 83.5,27.5C 88.3082,28.7985 92.6416,27.6319 96.5,24C 98.8313,19.9684 101.831,19.4684 105.5,22.5 Z"/></g>
<g><path style="opacity:1" fill="#6e8654" d="M 113.5,28.5 C 116.792,28.1196 119.125,29.4529 120.5,32.5C 120.03,33.463 119.363,33.463 118.5,32.5C 118.167,32.5 117.833,32.5 117.5,32.5C 112.262,29.3198 107.929,30.3198 104.5,35.5C 104.297,33.6096 104.963,32.1096 106.5,31C 108.441,29.0972 110.774,28.2639 113.5,28.5 Z"/></g>
<g><path style="opacity:1" fill="#dad6c8" d="M 117.5,32.5 C 118.387,41.9418 114.054,45.9418 104.5,44.5C 104.5,41.5 104.5,38.5 104.5,35.5C 107.929,30.3198 112.262,29.3198 117.5,32.5 Z"/></g>
<g><path style="opacity:1" fill="#f16a1a" d="M 96.5,33.5 C 95.7281,34.6935 94.7281,35.6935 93.5,36.5C 86.8552,32.4035 79.5219,30.9035 71.5,32C 70.1387,33.5843 69.472,35.4176 69.5,37.5C 68.8333,37.1667 68.1667,36.8333 67.5,36.5C 68.6298,34.6854 69.2964,32.6854 69.5,30.5C 76.0513,28.557 82.5513,29.2237 89,32.5C 90.2197,31.6119 91.5531,30.9452 93,30.5C 95.2747,30.2776 96.4413,31.2776 96.5,33.5 Z"/></g>
<g><path style="opacity:1" fill="#e93a16" d="M 93.5,36.5 C 90.5927,41.7906 87.5927,41.7906 84.5,36.5C 85.6405,35.5745 85.6405,34.7412 84.5,34C 82.3766,34.7325 80.21,34.5658 78,33.5C 75.5,34.5 73,35.5 70.5,36.5C 71.8069,37.865 71.8069,39.1984 70.5,40.5C 70.1667,40.5 69.8333,40.5 69.5,40.5C 69.5,39.5 69.5,38.5 69.5,37.5C 69.472,35.4176 70.1387,33.5843 71.5,32C 79.5219,30.9035 86.8552,32.4035 93.5,36.5 Z"/></g>
<g><path style="opacity:1" fill="#9dae3a" d="M 136.5,30.5 C 136.833,30.5 137.167,30.5 137.5,30.5C 139.532,31.0478 140.532,32.3812 140.5,34.5C 135.411,33.6065 130.744,31.7732 126.5,29C 124.866,28.5065 123.199,28.3398 121.5,28.5C 118.873,27.9084 116.206,27.5751 113.5,27.5C 104.164,28.1858 100.497,33.1858 102.5,42.5C 99.6202,42.9402 96.9535,43.9402 94.5,45.5C 96.524,41.7919 98.1907,37.7919 99.5,33.5C 104.083,25.2086 111.083,21.7086 120.5,23C 124.956,27.3211 130.289,29.8211 136.5,30.5 Z"/></g>
<g><path style="opacity:1" fill="#b3ce58" d="M 124.5,37.5 C 124.443,38.609 124.11,39.609 123.5,40.5C 122.59,42.0188 121.757,43.6854 121,45.5C 119.333,46.7332 117.833,48.0665 116.5,49.5C 113.679,49.5387 111.012,50.2054 108.5,51.5C 107.691,53.0709 107.357,54.7376 107.5,56.5C 105.977,59.6348 105.31,62.9682 105.5,66.5C 105.5,67.1667 105.167,67.5 104.5,67.5C 104.5,65.1667 104.5,62.8333 104.5,60.5C 104.859,55.9415 105.859,51.6081 107.5,47.5C 110.518,47.6646 113.518,47.498 116.5,47C 119.944,43.176 121.944,38.676 122.5,33.5C 123.824,32.1501 124.824,32.3167 125.5,34C 125.011,35.1385 124.678,36.3052 124.5,37.5 Z"/></g>
<g><path style="opacity:1" fill="#2c1418" d="M 112.5,32.5 C 113.496,32.4142 114.329,32.7476 115,33.5C 117.168,39.979 115.001,42.8123 108.5,42C 106.203,39.2212 106.036,36.3879 108,33.5C 108.333,34.1667 108.667,34.8333 109,35.5C 110.518,34.8366 111.685,33.8366 112.5,32.5 Z"/></g>
<g><path style="opacity:1" fill="#fec9af" d="M 75.5,47.5 C 73.8042,51.0224 73.1375,50.3558 73.5,45.5C 74.3145,43.2187 75.6478,41.2187 77.5,39.5C 78.4756,41.1233 77.9756,42.4567 76,43.5C 75.51,44.7932 75.3433,46.1266 75.5,47.5 Z"/></g>
<g><path style="opacity:1" fill="#be1e07" d="M 93.5,36.5 C 94.7281,35.6935 95.7281,34.6935 96.5,33.5C 96.5,34.5 96.5,35.5 96.5,36.5C 95.1798,38.4632 93.8465,40.4632 92.5,42.5C 87.9405,42.0562 83.9405,40.2229 80.5,37C 78.5,36.3333 76.5,36.3333 74.5,37C 73.2617,37.69 73.2617,38.19 74.5,38.5C 74.1667,39.1667 73.8333,39.8333 73.5,40.5C 72.2022,41.1157 71.2022,41.1157 70.5,40.5C 71.8069,39.1984 71.8069,37.865 70.5,36.5C 73,35.5 75.5,34.5 78,33.5C 80.21,34.5658 82.3766,34.7325 84.5,34C 85.6405,34.7412 85.6405,35.5745 84.5,36.5C 87.5927,41.7906 90.5927,41.7906 93.5,36.5 Z"/></g>
<g><path style="opacity:1" fill="#9eba25" d="M 121.5,28.5 C 123.199,28.3398 124.866,28.5065 126.5,29C 130.744,31.7732 135.411,33.6065 140.5,34.5C 140.508,37.5448 140.841,40.5448 141.5,43.5C 139.896,44.287 139.229,45.6203 139.5,47.5C 136.203,47.6713 135.869,47.0046 138.5,45.5C 137.758,44.7132 136.925,44.0465 136,43.5C 134.961,44.7101 133.794,45.7101 132.5,46.5C 134.356,39.3592 131.689,36.3592 124.5,37.5C 124.678,36.3052 125.011,35.1385 125.5,34C 124.824,32.3167 123.824,32.1501 122.5,33.5C 122.634,31.7085 122.301,30.0418 121.5,28.5 Z"/></g>
<g><path style="opacity:1" fill="#951609" d="M 92.5,42.5 C 92.2525,44.8583 92.9192,46.8583 94.5,48.5C 95.0184,49.5774 95.3517,50.7441 95.5,52C 94.291,54.3192 93.4577,56.8192 93,59.5C 88.6018,60.186 84.9351,62.186 82,65.5C 81.5045,67.4727 81.3379,69.4727 81.5,71.5C 80.5,71.5 79.5,71.5 78.5,71.5C 76.1,69.7036 74.4333,67.3702 73.5,64.5C 73.4607,62.7761 73.794,62.4427 74.5,63.5C 75.1916,66.935 77.1916,68.935 80.5,69.5C 80.7609,63.7338 83.7609,60.2338 89.5,59C 91.6632,57.0016 93.3298,54.6682 94.5,52C 93.7468,48.0739 91.4134,46.2405 87.5,46.5C 87.0954,45.4502 86.4288,45.4502 85.5,46.5C 85.1301,43.4985 83.7968,41.1652 81.5,39.5C 79.3926,38.5318 77.0593,38.1984 74.5,38.5C 73.2617,38.19 73.2617,37.69 74.5,37C 76.5,36.3333 78.5,36.3333 80.5,37C 83.9405,40.2229 87.9405,42.0562 92.5,42.5 Z"/></g>
<g><path style="opacity:1" fill="#927321" d="M 97.5,33.5 C 97.8333,33.5 98.1667,33.5 98.5,33.5C 98.8333,33.5 99.1667,33.5 99.5,33.5C 98.1907,37.7919 96.524,41.7919 94.5,45.5C 95.1098,46.391 95.4431,47.391 95.5,48.5C 95.1667,48.5 94.8333,48.5 94.5,48.5C 92.9192,46.8583 92.2525,44.8583 92.5,42.5C 93.8465,40.4632 95.1798,38.4632 96.5,36.5C 97.404,35.791 97.7373,34.791 97.5,33.5 Z"/></g>
<g><path style="opacity:1" fill="#e48b72" d="M 74.5,38.5 C 77.0593,38.1984 79.3926,38.5318 81.5,39.5C 80.6409,41.1059 80.4742,42.7725 81,44.5C 80.6667,44.1667 80.3333,43.8333 80,43.5C 79.2079,45.6437 77.7079,46.977 75.5,47.5C 75.3433,46.1266 75.51,44.7932 76,43.5C 77.9756,42.4567 78.4756,41.1233 77.5,39.5C 75.6478,41.2187 74.3145,43.2187 73.5,45.5C 73.5,43.8333 73.5,42.1667 73.5,40.5C 73.8333,39.8333 74.1667,39.1667 74.5,38.5 Z"/></g>
<g><path style="opacity:1" fill="#96af7d" d="M 117.5,32.5 C 117.833,32.5 118.167,32.5 118.5,32.5C 120.169,36.9892 119.335,40.9892 116,44.5C 113.061,45.1281 110.228,45.7948 107.5,46.5C 106.178,46.67 105.011,46.3366 104,45.5C 103.192,41.9733 103.359,38.6399 104.5,35.5C 104.5,38.5 104.5,41.5 104.5,44.5C 114.054,45.9418 118.387,41.9418 117.5,32.5 Z"/></g>
<g><path style="opacity:1" fill="#79a248" d="M 113.5,28.5 C 113.5,28.1667 113.5,27.8333 113.5,27.5C 116.206,27.5751 118.873,27.9084 121.5,28.5C 122.301,30.0418 122.634,31.7085 122.5,33.5C 121.944,38.676 119.944,43.176 116.5,47C 113.518,47.498 110.518,47.6646 107.5,47.5C 107.5,47.1667 107.5,46.8333 107.5,46.5C 110.228,45.7948 113.061,45.1281 116,44.5C 119.335,40.9892 120.169,36.9892 118.5,32.5C 119.363,33.463 120.03,33.463 120.5,32.5C 119.125,29.4529 116.792,28.1196 113.5,28.5 Z"/></g>
<g><path style="opacity:1" fill="#fae4a6" d="M 145.5,37.5 C 147.915,38.3052 150.249,39.3052 152.5,40.5C 152.48,42.143 153.147,43.4763 154.5,44.5C 156.353,44.92 158.187,45.2533 160,45.5C 161.952,49.0829 161.786,52.5829 159.5,56C 159.833,56.3333 160.167,56.6667 160.5,57C 157.922,58.7156 156.589,61.2156 156.5,64.5C 155.92,66.7488 154.587,68.4154 152.5,69.5C 151.722,68.8444 151.056,68.0111 150.5,67C 152.304,63.2251 153.971,59.3917 155.5,55.5C 154.066,54.7702 152.9,53.7702 152,52.5C 151.667,53.1667 151.333,53.8333 151,54.5C 150.333,53.1667 149.667,53.1667 149,54.5C 146.288,49.1695 145.121,43.5029 145.5,37.5 Z"/></g>
<g><path style="opacity:0.445" fill="#e8d8b7" d="M 152.5,40.5 C 162.125,42.0897 165.291,47.423 162,56.5C 160.884,59.7556 159.051,62.4223 156.5,64.5C 156.589,61.2156 157.922,58.7156 160.5,57C 160.167,56.6667 159.833,56.3333 159.5,56C 161.786,52.5829 161.952,49.0829 160,45.5C 158.187,45.2533 156.353,44.92 154.5,44.5C 153.147,43.4763 152.48,42.143 152.5,40.5 Z"/></g>
<g><path style="opacity:1" fill="#d72f1b" d="M 87.5,46.5 C 91.4134,46.2405 93.7468,48.0739 94.5,52C 93.3298,54.6682 91.6632,57.0016 89.5,59C 83.7609,60.2338 80.7609,63.7338 80.5,69.5C 77.1916,68.935 75.1916,66.935 74.5,63.5C 76.2112,57.3805 78.5445,51.3805 81.5,45.5C 82.8802,46.9756 84.5469,47.9756 86.5,48.5C 87.2975,48.0431 87.6309,47.3764 87.5,46.5 Z"/></g>
<g><path style="opacity:1" fill="#a8ca71" d="M 113.5,27.5 C 113.5,27.8333 113.5,28.1667 113.5,28.5C 110.774,28.2639 108.441,29.0972 106.5,31C 104.963,32.1096 104.297,33.6096 104.5,35.5C 103.359,38.6399 103.192,41.9733 104,45.5C 105.011,46.3366 106.178,46.67 107.5,46.5C 107.5,46.8333 107.5,47.1667 107.5,47.5C 105.859,51.6081 104.859,55.9415 104.5,60.5C 103.5,57.8333 102.5,55.1667 101.5,52.5C 100.522,49.6752 98.5221,48.3419 95.5,48.5C 95.4431,47.391 95.1098,46.391 94.5,45.5C 96.9535,43.9402 99.6202,42.9402 102.5,42.5C 100.497,33.1858 104.164,28.1858 113.5,27.5 Z"/></g>
<g><path style="opacity:1" fill="#e3ba34" d="M 123.5,40.5 C 128.146,39.6285 130.479,41.4618 130.5,46C 129.264,52.8988 125.098,56.7322 118,57.5C 115.566,56.6777 113.066,56.3444 110.5,56.5C 110.238,55.0222 110.571,53.6888 111.5,52.5C 113.598,52.0428 115.264,51.0428 116.5,49.5C 117.833,48.0665 119.333,46.7332 121,45.5C 121.757,43.6854 122.59,42.0188 123.5,40.5 Z"/></g>
<g><path style="opacity:1" fill="#e18c15" d="M 128.5,43.5 C 129.613,44.9464 129.78,46.6131 129,48.5C 126.828,49.5089 125.662,51.1756 125.5,53.5C 122.756,54.205 120.089,54.205 117.5,53.5C 120.537,49.4628 124.203,46.1295 128.5,43.5 Z"/></g>
<g><path style="opacity:1" fill="#e2634d" d="M 81.5,39.5 C 83.7968,41.1652 85.1301,43.4985 85.5,46.5C 86.4288,45.4502 87.0954,45.4502 87.5,46.5C 87.6309,47.3764 87.2975,48.0431 86.5,48.5C 84.5469,47.9756 82.8802,46.9756 81.5,45.5C 78.5445,51.3805 76.2112,57.3805 74.5,63.5C 73.794,62.4427 73.4607,62.7761 73.5,64.5C 72.3995,62.7226 71.5662,60.7226 71,58.5C 70.6972,54.4705 70.1972,50.4705 69.5,46.5C 71.1494,44.3009 70.8161,42.4676 68.5,41C 68.7284,40.6012 69.0618,40.4346 69.5,40.5C 69.8333,40.5 70.1667,40.5 70.5,40.5C 71.2022,41.1157 72.2022,41.1157 73.5,40.5C 73.5,42.1667 73.5,43.8333 73.5,45.5C 73.1375,50.3558 73.8042,51.0224 75.5,47.5C 77.7079,46.977 79.2079,45.6437 80,43.5C 80.3333,43.8333 80.6667,44.1667 81,44.5C 80.4742,42.7725 80.6409,41.1059 81.5,39.5 Z"/></g>
<g><path style="opacity:1" fill="#8ea638" d="M 140.5,34.5 C 141.304,36.1887 142.304,37.8554 143.5,39.5C 142.819,42.1687 143.152,44.8353 144.5,47.5C 144.167,48.1667 143.833,48.8333 143.5,49.5C 145.155,54.3164 145.988,59.3164 146,64.5C 147.744,65.6492 147.911,66.9825 146.5,68.5C 148.421,70.8374 150.754,72.6707 153.5,74C 152.5,74.3333 151.5,74.6667 150.5,75C 153.676,78.3431 157.009,81.5098 160.5,84.5C 161.5,85.8333 162.5,87.1667 163.5,88.5C 160.92,87.2653 158.587,85.5986 156.5,83.5C 155.33,81.7215 153.664,80.7215 151.5,80.5C 149.204,75.2304 146.538,70.2304 143.5,65.5C 143.5,64.8333 143.5,64.1667 143.5,63.5C 143.713,56.7211 143.047,50.0544 141.5,43.5C 140.841,40.5448 140.508,37.5448 140.5,34.5 Z"/></g>
<g><path style="opacity:1" fill="#eedf90" d="M 137.5,30.5 C 137.5,29.8333 137.833,29.5 138.5,29.5C 139.167,29.5 139.833,29.5 140.5,29.5C 141.794,32.3542 143.461,35.0208 145.5,37.5C 145.121,43.5029 146.288,49.1695 149,54.5C 149.667,53.1667 150.333,53.1667 151,54.5C 151.333,53.8333 151.667,53.1667 152,52.5C 152.9,53.7702 154.066,54.7702 155.5,55.5C 153.971,59.3917 152.304,63.2251 150.5,67C 151.056,68.0111 151.722,68.8444 152.5,69.5C 155.567,73.9092 158.233,78.5759 160.5,83.5C 160.5,83.8333 160.5,84.1667 160.5,84.5C 157.009,81.5098 153.676,78.3431 150.5,75C 151.5,74.6667 152.5,74.3333 153.5,74C 150.754,72.6707 148.421,70.8374 146.5,68.5C 147.911,66.9825 147.744,65.6492 146,64.5C 145.988,59.3164 145.155,54.3164 143.5,49.5C 143.833,48.8333 144.167,48.1667 144.5,47.5C 143.152,44.8353 142.819,42.1687 143.5,39.5C 142.304,37.8554 141.304,36.1887 140.5,34.5C 140.532,32.3812 139.532,31.0478 137.5,30.5 Z"/></g>
<g><path style="opacity:1" fill="#7c130a" d="M 94.5,48.5 C 94.8333,48.5 95.1667,48.5 95.5,48.5C 98.5221,48.3419 100.522,49.6752 101.5,52.5C 101.5,54.5 101.5,56.5 101.5,58.5C 101.665,61.5184 101.498,64.5184 101,67.5C 100.292,68.3805 99.4584,69.0472 98.5,69.5C 97.5144,71.4077 95.8477,72.4077 93.5,72.5C 90.5155,71.2517 87.6822,69.585 85,67.5C 83.7114,70.3508 83.2114,73.3508 83.5,76.5C 83.1667,76.5 82.8333,76.5 82.5,76.5C 81.1667,74.8333 79.8333,73.1667 78.5,71.5C 79.5,71.5 80.5,71.5 81.5,71.5C 81.3379,69.4727 81.5045,67.4727 82,65.5C 84.9351,62.186 88.6018,60.186 93,59.5C 93.4577,56.8192 94.291,54.3192 95.5,52C 95.3517,50.7441 95.0184,49.5774 94.5,48.5 Z"/></g>
<g><path style="opacity:1" fill="#c53b38" d="M 98.5,51.5 C 99.5051,55.5207 99.5051,59.5207 98.5,63.5C 96.45,63.7437 94.45,64.077 92.5,64.5C 91.8764,62.4947 92.7097,60.8281 95,59.5C 95.8751,56.5989 97.0418,53.9323 98.5,51.5 Z"/></g>
<g><path style="opacity:1" fill="#bfc839" d="M 132.5,46.5 C 133.405,47.9643 133.405,49.2976 132.5,50.5C 131.445,52.9566 129.612,54.6232 127,55.5C 126.16,58.3413 124.66,60.6747 122.5,62.5C 115.053,66.2698 110.053,64.2698 107.5,56.5C 107.357,54.7376 107.691,53.0709 108.5,51.5C 111.012,50.2054 113.679,49.5387 116.5,49.5C 115.264,51.0428 113.598,52.0428 111.5,52.5C 110.571,53.6888 110.238,55.0222 110.5,56.5C 113.066,56.3444 115.566,56.6777 118,57.5C 125.098,56.7322 129.264,52.8988 130.5,46C 130.479,41.4618 128.146,39.6285 123.5,40.5C 124.11,39.609 124.443,38.609 124.5,37.5C 131.689,36.3592 134.356,39.3592 132.5,46.5 Z"/></g>
<g><path style="opacity:1" fill="#a4cc3f" d="M 125.5,72.5 C 124.833,72.5 124.167,72.5 123.5,72.5C 124.749,70.8639 126.416,69.6972 128.5,69C 128.048,67.3876 126.715,66.3876 124.5,66C 132.943,60.3742 132.277,59.2075 122.5,62.5C 124.66,60.6747 126.16,58.3413 127,55.5C 129.612,54.6232 131.445,52.9566 132.5,50.5C 134.677,50.4139 136.677,49.7472 138.5,48.5C 138.833,48.6667 139.167,48.8333 139.5,49C 138.672,49.9147 137.672,50.5814 136.5,51C 138.433,51.7826 139.933,51.2826 141,49.5C 142.14,52.5282 141.306,54.6949 138.5,56C 140.701,56.7768 140.701,57.9435 138.5,59.5C 136.885,60.154 135.218,60.654 133.5,61C 135.568,61.6869 137.568,61.5202 139.5,60.5C 140.754,62.2592 140.421,63.7592 138.5,65C 135.833,65.6667 133.167,66.3333 130.5,67C 131.167,67.3333 131.833,67.6667 132.5,68C 130.102,69.5242 127.769,71.0242 125.5,72.5 Z"/></g>
<g><path style="opacity:1" fill="#82ac23" d="M 141.5,43.5 C 143.047,50.0544 143.713,56.7211 143.5,63.5C 137.381,66.3642 131.381,69.3642 125.5,72.5C 127.769,71.0242 130.102,69.5242 132.5,68C 131.833,67.6667 131.167,67.3333 130.5,67C 133.167,66.3333 135.833,65.6667 138.5,65C 140.421,63.7592 140.754,62.2592 139.5,60.5C 137.568,61.5202 135.568,61.6869 133.5,61C 135.218,60.654 136.885,60.154 138.5,59.5C 140.701,57.9435 140.701,56.7768 138.5,56C 141.306,54.6949 142.14,52.5282 141,49.5C 139.933,51.2826 138.433,51.7826 136.5,51C 137.672,50.5814 138.672,49.9147 139.5,49C 139.167,48.8333 138.833,48.6667 138.5,48.5C 136.677,49.7472 134.677,50.4139 132.5,50.5C 133.405,49.2976 133.405,47.9643 132.5,46.5C 133.794,45.7101 134.961,44.7101 136,43.5C 136.925,44.0465 137.758,44.7132 138.5,45.5C 135.869,47.0046 136.203,47.6713 139.5,47.5C 139.229,45.6203 139.896,44.287 141.5,43.5 Z"/></g>
<g><path style="opacity:1" fill="#a39e46" d="M 101.5,52.5 C 102.5,55.1667 103.5,57.8333 104.5,60.5C 104.5,62.8333 104.5,65.1667 104.5,67.5C 104.5,68.1667 104.167,68.5 103.5,68.5C 103.802,65.9407 103.468,63.6074 102.5,61.5C 102.737,60.209 102.404,59.209 101.5,58.5C 101.5,56.5 101.5,54.5 101.5,52.5 Z"/></g>
<g><path style="opacity:1" fill="#f9e1ab" d="M 67.5,57.5 C 69.4882,61.0912 71.4882,64.7579 73.5,68.5C 70.478,70.7709 66.6447,72.4376 62,73.5C 61.1699,75.8284 60.3366,78.1617 59.5,80.5C 59.8029,82.1143 60.4695,83.4477 61.5,84.5C 60.1667,84.5 58.8333,84.5 57.5,84.5C 56.9084,81.8728 56.5751,79.2062 56.5,76.5C 54.4176,76.472 52.5843,77.1387 51,78.5C 51.1449,81.5143 51.6449,84.5143 52.5,87.5C 54.698,87.1201 56.3646,87.7868 57.5,89.5C 55.5183,89.0046 53.5183,88.5046 51.5,88C 49.5467,84.7351 48.7134,81.2351 49,77.5C 50.8022,76.2107 51.9688,74.5441 52.5,72.5C 54.5743,69.9505 57.2409,68.1171 60.5,67C 63.0826,63.9319 65.4159,60.7652 67.5,57.5 Z"/></g>
<g><path style="opacity:1" fill="#ce8167" d="M 64.5,29.5 C 64.8333,29.5 65.1667,29.5 65.5,29.5C 65.1706,32.2282 65.8372,34.5615 67.5,36.5C 68.1667,36.8333 68.8333,37.1667 69.5,37.5C 69.5,38.5 69.5,39.5 69.5,40.5C 69.0618,40.4346 68.7284,40.6012 68.5,41C 70.8161,42.4676 71.1494,44.3009 69.5,46.5C 70.1972,50.4705 70.6972,54.4705 71,58.5C 71.5662,60.7226 72.3995,62.7226 73.5,64.5C 74.4333,67.3702 76.1,69.7036 78.5,71.5C 79.8333,73.1667 81.1667,74.8333 82.5,76.5C 80.9382,76.2671 79.6049,75.6005 78.5,74.5C 76.8333,72.5 75.1667,70.5 73.5,68.5C 71.4882,64.7579 69.4882,61.0912 67.5,57.5C 67.5,56.1667 67.5,54.8333 67.5,53.5C 67.5715,50.8067 67.9049,48.1401 68.5,45.5C 66.5552,40.2905 65.2218,34.9572 64.5,29.5 Z"/></g>
<g><path style="opacity:1" fill="#970d0a" d="M 98.5,51.5 C 99.2216,51.9175 99.7216,52.5842 100,53.5C 100.996,59.0799 100.496,64.4132 98.5,69.5C 94.3817,71.3502 90.715,70.6835 87.5,67.5C 89.0287,66.2371 90.6954,65.2371 92.5,64.5C 94.45,64.077 96.45,63.7437 98.5,63.5C 99.5051,59.5207 99.5051,55.5207 98.5,51.5 Z"/></g>
<g><path style="opacity:1" fill="#faf5e4" d="M 67.5,53.5 C 67.5,54.8333 67.5,56.1667 67.5,57.5C 65.4159,60.7652 63.0826,63.9319 60.5,67C 57.2409,68.1171 54.5743,69.9505 52.5,72.5C 50.5,74.1667 48.5,75.8333 46.5,77.5C 43.5,76.8333 40.5,76.1667 37.5,75.5C 37.5,75.1667 37.5,74.8333 37.5,74.5C 42.9739,64.7489 51.3072,58.9155 62.5,57C 64.5844,56.3028 66.2511,55.1361 67.5,53.5 Z"/></g>
<g><path style="opacity:1" fill="#4c1e00" d="M 101.5,58.5 C 102.404,59.209 102.737,60.209 102.5,61.5C 103.321,71.0286 99.3213,74.6952 90.5,72.5C 91.5,72.5 92.5,72.5 93.5,72.5C 95.8477,72.4077 97.5144,71.4077 98.5,69.5C 99.4584,69.0472 100.292,68.3805 101,67.5C 101.498,64.5184 101.665,61.5184 101.5,58.5 Z"/></g>
<g><path style="opacity:1" fill="#a0c837" d="M 107.5,56.5 C 110.053,64.2698 115.053,66.2698 122.5,62.5C 132.277,59.2075 132.943,60.3742 124.5,66C 126.715,66.3876 128.048,67.3876 128.5,69C 126.416,69.6972 124.749,70.8639 123.5,72.5C 120.731,69.6951 118.064,69.8617 115.5,73C 115.957,73.414 116.291,73.914 116.5,74.5C 115.757,75.1818 115.091,75.8485 114.5,76.5C 108.882,78.2873 108.215,77.2873 112.5,73.5C 113.452,71.9547 113.785,70.288 113.5,68.5C 120.043,68.4565 120.043,67.7898 113.5,66.5C 113.558,70.7468 111.558,73.0802 107.5,73.5C 107.59,70.8478 106.924,68.5145 105.5,66.5C 105.31,62.9682 105.977,59.6348 107.5,56.5 Z"/></g>
<g><path style="opacity:1" fill="#895b34" d="M 93.5,72.5 C 92.5,72.5 91.5,72.5 90.5,72.5C 88.8333,72.5 87.1667,72.5 85.5,72.5C 84.684,73.1571 84.0174,74.4905 83.5,76.5C 83.2114,73.3508 83.7114,70.3508 85,67.5C 87.6822,69.585 90.5155,71.2517 93.5,72.5 Z"/></g>
<g><path style="opacity:1" fill="#79a019" d="M 105.5,66.5 C 106.924,68.5145 107.59,70.8478 107.5,73.5C 111.558,73.0802 113.558,70.7468 113.5,66.5C 120.043,67.7898 120.043,68.4565 113.5,68.5C 113.785,70.288 113.452,71.9547 112.5,73.5C 108.215,77.2873 108.882,78.2873 114.5,76.5C 116.735,77.2481 116.402,78.0814 113.5,79C 111.888,79.7203 110.388,79.5536 109,78.5C 106.366,80.594 103.533,80.9273 100.5,79.5C 97.3183,80.1161 94.3183,81.1161 91.5,82.5C 90.1667,80.8333 88.8333,79.1667 87.5,77.5C 87.281,76.325 87.6143,75.325 88.5,74.5C 91.6426,78.5928 95.3092,79.2595 99.5,76.5C 101.405,74.1164 102.739,71.4497 103.5,68.5C 104.167,68.5 104.5,68.1667 104.5,67.5C 105.167,67.5 105.5,67.1667 105.5,66.5 Z"/></g>
<g><path style="opacity:1" fill="#fcf1d2" d="M 73.5,68.5 C 75.1667,70.5 76.8333,72.5 78.5,74.5C 76.635,77.8797 74.135,80.8797 71,83.5C 67.8948,84.3672 64.7281,84.7006 61.5,84.5C 60.4695,83.4477 59.8029,82.1143 59.5,80.5C 60.3366,78.1617 61.1699,75.8284 62,73.5C 66.6447,72.4376 70.478,70.7709 73.5,68.5 Z"/></g>
<g><path style="opacity:1" fill="#9dca40" d="M 143.5,63.5 C 143.5,64.1667 143.5,64.8333 143.5,65.5C 141.639,68.0216 139.639,70.5216 137.5,73C 135.19,73.4966 132.857,73.6633 130.5,73.5C 130.5,74.5 130.5,75.5 130.5,76.5C 129.5,76.5 128.5,76.5 127.5,76.5C 129.116,80.2398 128.449,83.2398 125.5,85.5C 123.51,81.8088 122.177,77.8088 121.5,73.5C 123.099,73.7678 124.432,73.4345 125.5,72.5C 131.381,69.3642 137.381,66.3642 143.5,63.5 Z"/></g>
<g><path style="opacity:1" fill="#596c10" d="M 102.5,61.5 C 103.468,63.6074 103.802,65.9407 103.5,68.5C 102.739,71.4497 101.405,74.1164 99.5,76.5C 95.3092,79.2595 91.6426,78.5928 88.5,74.5C 87.6143,75.325 87.281,76.325 87.5,77.5C 87.5,78.1667 87.1667,78.5 86.5,78.5C 86.1667,76.5 85.8333,74.5 85.5,72.5C 87.1667,72.5 88.8333,72.5 90.5,72.5C 99.3213,74.6952 103.321,71.0286 102.5,61.5 Z"/></g>
<g><path style="opacity:1" fill="#88b83b" d="M 143.5,65.5 C 146.538,70.2304 149.204,75.2304 151.5,80.5C 148.743,79.4878 146.076,78.4878 143.5,77.5C 139.314,75.4812 134.814,77.1478 130,82.5C 128.265,86.3454 127.099,90.3454 126.5,94.5C 126.167,94.5 125.833,94.5 125.5,94.5C 125.5,91.5 125.5,88.5 125.5,85.5C 128.449,83.2398 129.116,80.2398 127.5,76.5C 128.5,76.5 129.5,76.5 130.5,76.5C 130.5,75.5 130.5,74.5 130.5,73.5C 132.857,73.6633 135.19,73.4966 137.5,73C 139.639,70.5216 141.639,68.0216 143.5,65.5 Z"/></g>
<g><path style="opacity:0.99" fill="#f8f6f0" d="M 37.5,74.5 C 37.5,74.8333 37.5,75.1667 37.5,75.5C 37.4142,76.4959 37.7476,77.3292 38.5,78C 41.6473,78.2744 43.4806,79.7744 44,82.5C 43.6667,82.1667 43.3333,81.8333 43,81.5C 40.7111,83.9057 38.0444,84.5724 35,83.5C 33.1937,85.3063 31.3604,87.1396 29.5,89C 26.5578,89.1439 24.2244,90.3106 22.5,92.5C 21.5,92.5 20.5,92.5 19.5,92.5C 18.791,91.596 17.791,91.2627 16.5,91.5C 19.0826,90.7761 21.7493,89.9428 24.5,89C 28.6989,83.972 33.0322,79.1387 37.5,74.5 Z"/></g>
<g><path style="opacity:1" fill="#fcfbef" d="M 37.5,75.5 C 40.5,76.1667 43.5,76.8333 46.5,77.5C 46.702,79.9496 46.3686,82.283 45.5,84.5C 38.3745,85.684 38.0411,87.3506 44.5,89.5C 41.8845,90.7616 39.2179,91.9282 36.5,93C 35.3157,94.1455 35.3157,95.3121 36.5,96.5C 31.8333,96.5 27.1667,96.5 22.5,96.5C 24.6074,95.5318 26.9407,95.1984 29.5,95.5C 29.5,94.1667 29.5,92.8333 29.5,91.5C 27.139,91.6741 24.8056,92.0074 22.5,92.5C 24.2244,90.3106 26.5578,89.1439 29.5,89C 31.3604,87.1396 33.1937,85.3063 35,83.5C 38.0444,84.5724 40.7111,83.9057 43,81.5C 43.3333,81.8333 43.6667,82.1667 44,82.5C 43.4806,79.7744 41.6473,78.2744 38.5,78C 37.7476,77.3292 37.4142,76.4959 37.5,75.5 Z"/></g>
<g><path style="opacity:1" fill="#f5d993" d="M 85.5,72.5 C 85.8333,74.5 86.1667,76.5 86.5,78.5C 86.5,78.8333 86.5,79.1667 86.5,79.5C 81.0853,81.0629 76.0853,83.3962 71.5,86.5C 69.6208,87.3414 67.6208,87.6747 65.5,87.5C 63.7991,90.2436 62.4657,93.2436 61.5,96.5C 66.787,97.3424 72.1203,97.6757 77.5,97.5C 71.013,98.654 64.3464,98.8206 57.5,98C 56.3279,97.5814 55.3279,96.9147 54.5,96C 56.503,93.9978 58.8364,92.4978 61.5,91.5C 60.0508,90.8281 58.7175,90.1614 57.5,89.5C 56.3646,87.7868 54.698,87.1201 52.5,87.5C 51.6449,84.5143 51.1449,81.5143 51,78.5C 52.5843,77.1387 54.4176,76.472 56.5,76.5C 56.5751,79.2062 56.9084,81.8728 57.5,84.5C 58.8333,84.5 60.1667,84.5 61.5,84.5C 64.7281,84.7006 67.8948,84.3672 71,83.5C 74.135,80.8797 76.635,77.8797 78.5,74.5C 79.6049,75.6005 80.9382,76.2671 82.5,76.5C 82.8333,76.5 83.1667,76.5 83.5,76.5C 84.0174,74.4905 84.684,73.1571 85.5,72.5 Z"/></g>
<g><path style="opacity:1" fill="#92b929" d="M 123.5,72.5 C 124.167,72.5 124.833,72.5 125.5,72.5C 124.432,73.4345 123.099,73.7678 121.5,73.5C 122.177,77.8088 123.51,81.8088 125.5,85.5C 125.5,88.5 125.5,91.5 125.5,94.5C 125.672,95.4916 125.338,96.1583 124.5,96.5C 124.737,95.209 124.404,94.209 123.5,93.5C 123.799,91.396 123.466,89.396 122.5,87.5C 121.391,88.5896 120.391,88.5896 119.5,87.5C 120.853,86.4763 121.52,85.143 121.5,83.5C 116.946,84.8841 112.612,86.7174 108.5,89C 105.8,89.2532 103.133,89.2532 100.5,89C 99.6867,90.8847 98.3533,91.5513 96.5,91C 97.7112,90.1072 97.7112,89.2739 96.5,88.5C 95.1401,87.8201 93.8068,87.1534 92.5,86.5C 92.5674,85.0413 92.2341,83.7079 91.5,82.5C 94.3183,81.1161 97.3183,80.1161 100.5,79.5C 103.533,80.9273 106.366,80.594 109,78.5C 110.388,79.5536 111.888,79.7203 113.5,79C 116.402,78.0814 116.735,77.2481 114.5,76.5C 115.091,75.8485 115.757,75.1818 116.5,74.5C 116.291,73.914 115.957,73.414 115.5,73C 118.064,69.8617 120.731,69.6951 123.5,72.5 Z"/></g>
<g><path style="opacity:1" fill="#f5d37a" d="M 86.5,79.5 C 87.5375,80.9303 88.2041,82.597 88.5,84.5C 87.2689,85.7177 86.1022,87.051 85,88.5C 84.502,91.4816 84.3354,94.4816 84.5,97.5C 82.1667,97.5 79.8333,97.5 77.5,97.5C 77.5,93.5 77.5,89.5 77.5,85.5C 75.5,85.8333 73.5,86.1667 71.5,86.5C 76.0853,83.3962 81.0853,81.0629 86.5,79.5 Z"/></g>
<g><path style="opacity:1" fill="#9dc941" d="M 139.5,78.5 C 140.568,77.5655 141.901,77.2322 143.5,77.5C 146.076,78.4878 148.743,79.4878 151.5,80.5C 153.664,80.7215 155.33,81.7215 156.5,83.5C 152.861,83.0489 150.528,84.5489 149.5,88C 149.645,88.772 149.978,89.4387 150.5,90C 148.497,90.3345 146.83,91.1679 145.5,92.5C 143.393,92.2779 141.726,91.2779 140.5,89.5C 139.667,90.5 138.833,91.5 138,92.5C 136.833,91.3333 135.667,90.1667 134.5,89C 136.961,86.703 139.294,84.203 141.5,81.5C 140.624,80.7492 139.624,80.2492 138.5,80C 139.167,79.6667 139.833,79.3333 140.5,79C 140.272,78.6012 139.938,78.4346 139.5,78.5 Z"/></g>
<g><path style="opacity:0.153" fill="#a9b57f" d="M 160.5,83.5 C 162.836,85.0038 164.669,87.0038 166,89.5C 166.871,94.6034 168.038,99.6034 169.5,104.5C 168.833,103.5 168.167,102.5 167.5,101.5C 166.135,98.2196 165.135,94.8862 164.5,91.5C 164.737,90.209 164.404,89.209 163.5,88.5C 162.5,87.1667 161.5,85.8333 160.5,84.5C 160.5,84.1667 160.5,83.8333 160.5,83.5 Z"/></g>
<g><path style="opacity:1" fill="#fdf8e7" d="M 45.5,84.5 C 47.5058,87.3548 50.1725,89.5215 53.5,91C 52.8921,91.8699 52.0588,92.3699 51,92.5C 49.2341,91.7665 47.4008,91.4332 45.5,91.5C 45.3505,92.552 45.5172,93.552 46,94.5C 47.9923,95.3281 49.4923,96.6614 50.5,98.5C 47.6992,97.3021 44.8659,97.3021 42,98.5C 39.8218,98.6052 37.9885,97.9385 36.5,96.5C 35.3157,95.3121 35.3157,94.1455 36.5,93C 39.2179,91.9282 41.8845,90.7616 44.5,89.5C 38.0411,87.3506 38.3745,85.684 45.5,84.5 Z"/></g>
<g><path style="opacity:1" fill="#f6eccd" d="M 52.5,72.5 C 51.9688,74.5441 50.8022,76.2107 49,77.5C 48.7134,81.2351 49.5467,84.7351 51.5,88C 53.5183,88.5046 55.5183,89.0046 57.5,89.5C 58.7175,90.1614 60.0508,90.8281 61.5,91.5C 58.8364,92.4978 56.503,93.9978 54.5,96C 55.3279,96.9147 56.3279,97.5814 57.5,98C 64.3464,98.8206 71.013,98.654 77.5,97.5C 79.8333,97.5 82.1667,97.5 84.5,97.5C 84.5,98.1667 84.5,98.8333 84.5,99.5C 82.1667,99.5 79.8333,99.5 77.5,99.5C 70.1667,99.5 62.8333,99.5 55.5,99.5C 54.0813,98.5489 52.4147,98.2155 50.5,98.5C 49.4923,96.6614 47.9923,95.3281 46,94.5C 45.5172,93.552 45.3505,92.552 45.5,91.5C 47.4008,91.4332 49.2341,91.7665 51,92.5C 52.0588,92.3699 52.8921,91.8699 53.5,91C 50.1725,89.5215 47.5058,87.3548 45.5,84.5C 46.3686,82.283 46.702,79.9496 46.5,77.5C 48.5,75.8333 50.5,74.1667 52.5,72.5 Z"/></g>
<g><path style="opacity:1" fill="#b3d74f" d="M 156.5,83.5 C 158.587,85.5986 160.92,87.2653 163.5,88.5C 164.404,89.209 164.737,90.209 164.5,91.5C 164.5,94.1667 164.5,96.8333 164.5,99.5C 159.728,99.7054 155.062,100.372 150.5,101.5C 148.568,98.6339 146.901,95.6339 145.5,92.5C 146.83,91.1679 148.497,90.3345 150.5,90C 149.978,89.4387 149.645,88.772 149.5,88C 150.528,84.5489 152.861,83.0489 156.5,83.5 Z"/></g>
<g><path style="opacity:1" fill="#a1bf5c" d="M 88.5,84.5 C 90.0991,89.0637 91.7657,93.7303 93.5,98.5C 97.4431,99.138 100.776,100.805 103.5,103.5C 101.883,102.962 100.216,102.629 98.5,102.5C 96.4214,102.029 94.4214,101.363 92.5,100.5C 91.0991,97.1882 89.5991,93.8548 88,90.5C 87.2715,93.1868 86.1049,95.5201 84.5,97.5C 84.3354,94.4816 84.502,91.4816 85,88.5C 86.1022,87.051 87.2689,85.7177 88.5,84.5 Z"/></g>
<g><path style="opacity:1" fill="#a5c734" d="M 123.5,93.5 C 122.833,94.5 122.167,95.5 121.5,96.5C 121.883,93.538 120.883,92.538 118.5,93.5C 114.244,92.9243 110.077,91.9243 106,90.5C 104.338,90.3875 103.171,91.0542 102.5,92.5C 103.817,92.3131 105.15,92.9798 106.5,94.5C 105.5,95.3333 104.5,96.1667 103.5,97C 103.833,97.3333 104.167,97.6667 104.5,98C 103.552,98.4828 102.552,98.6495 101.5,98.5C 97.6291,97.1397 97.9624,96.3064 102.5,96C 102.043,95.586 101.709,95.086 101.5,94.5C 98.7231,94.4688 96.0564,93.9688 93.5,93C 93.9574,92.586 94.2907,92.086 94.5,91.5C 93.0499,90.1502 92.3832,88.4835 92.5,86.5C 93.8068,87.1534 95.1401,87.8201 96.5,88.5C 97.7112,89.2739 97.7112,90.1072 96.5,91C 98.3533,91.5513 99.6867,90.8847 100.5,89C 103.133,89.2532 105.8,89.2532 108.5,89C 112.612,86.7174 116.946,84.8841 121.5,83.5C 121.52,85.143 120.853,86.4763 119.5,87.5C 120.391,88.5896 121.391,88.5896 122.5,87.5C 123.466,89.396 123.799,91.396 123.5,93.5 Z"/></g>
<g><path style="opacity:1" fill="#b2d034" d="M 121.5,96.5 C 121.5,99.1667 121.5,101.833 121.5,104.5C 116.77,104.717 112.103,104.383 107.5,103.5C 105.5,101.833 103.5,100.167 101.5,98.5C 102.552,98.6495 103.552,98.4828 104.5,98C 104.167,97.6667 103.833,97.3333 103.5,97C 104.5,96.1667 105.5,95.3333 106.5,94.5C 105.15,92.9798 103.817,92.3131 102.5,92.5C 103.171,91.0542 104.338,90.3875 106,90.5C 110.077,91.9243 114.244,92.9243 118.5,93.5C 120.883,92.538 121.883,93.538 121.5,96.5 Z"/></g>
<g><path style="opacity:1" fill="#f7c768" d="M 77.5,97.5 C 72.1203,97.6757 66.787,97.3424 61.5,96.5C 62.4657,93.2436 63.7991,90.2436 65.5,87.5C 67.6208,87.6747 69.6208,87.3414 71.5,86.5C 73.5,86.1667 75.5,85.8333 77.5,85.5C 77.5,89.5 77.5,93.5 77.5,97.5 Z"/></g>
<g><path style="opacity:1" fill="#a1bd39" d="M 87.5,77.5 C 88.8333,79.1667 90.1667,80.8333 91.5,82.5C 92.2341,83.7079 92.5674,85.0413 92.5,86.5C 92.3832,88.4835 93.0499,90.1502 94.5,91.5C 94.2907,92.086 93.9574,92.586 93.5,93C 96.0564,93.9688 98.7231,94.4688 101.5,94.5C 101.709,95.086 102.043,95.586 102.5,96C 97.9624,96.3064 97.6291,97.1397 101.5,98.5C 103.5,100.167 105.5,101.833 107.5,103.5C 108.502,105.011 109.169,106.678 109.5,108.5C 109.167,108.5 108.833,108.5 108.5,108.5C 108.672,107.508 108.338,106.842 107.5,106.5C 106.128,105.488 104.795,104.488 103.5,103.5C 100.776,100.805 97.4431,99.138 93.5,98.5C 91.7657,93.7303 90.0991,89.0637 88.5,84.5C 88.2041,82.597 87.5375,80.9303 86.5,79.5C 86.5,79.1667 86.5,78.8333 86.5,78.5C 87.1667,78.5 87.5,78.1667 87.5,77.5 Z"/></g>
<g><path style="opacity:1" fill="#f6f4ec" d="M 22.5,96.5 C 27.1667,96.5 31.8333,96.5 36.5,96.5C 37.9885,97.9385 39.8218,98.6052 42,98.5C 44.8659,97.3021 47.6992,97.3021 50.5,98.5C 52.4147,98.2155 54.0813,98.5489 55.5,99.5C 53.901,99.2322 52.5676,99.5655 51.5,100.5C 46.6904,101.095 42.0238,102.262 37.5,104C 32.0731,107.62 32.4064,110.453 38.5,112.5C 39.9952,112.989 41.3285,113.655 42.5,114.5C 41.1825,114.821 39.8492,115.154 38.5,115.5C 36.3021,113.902 33.9687,112.569 31.5,111.5C 31.6988,108.989 32.0321,106.822 32.5,105C 30.7328,101.69 28.2328,100.857 25,102.5C 19.1797,101.859 18.3464,99.8586 22.5,96.5 Z"/></g>
<g><path style="opacity:1" fill="#6d8e48" d="M 92.5,100.5 C 89.7938,100.425 87.1272,100.092 84.5,99.5C 84.5,98.8333 84.5,98.1667 84.5,97.5C 86.1049,95.5201 87.2715,93.1868 88,90.5C 89.5991,93.8548 91.0991,97.1882 92.5,100.5 Z"/></g>
<g><path style="opacity:1" fill="#aed870" d="M 139.5,78.5 C 139.938,78.4346 140.272,78.6012 140.5,79C 139.833,79.3333 139.167,79.6667 138.5,80C 139.624,80.2492 140.624,80.7492 141.5,81.5C 139.294,84.203 136.961,86.703 134.5,89C 135.667,90.1667 136.833,91.3333 138,92.5C 138.833,91.5 139.667,90.5 140.5,89.5C 141.726,91.2779 143.393,92.2779 145.5,92.5C 146.901,95.6339 148.568,98.6339 150.5,101.5C 149.833,101.5 149.167,101.5 148.5,101.5C 145.386,100.909 142.886,99.242 141,96.5C 140.764,98.1193 139.931,99.1193 138.5,99.5C 137.5,99.5 136.5,99.5 135.5,99.5C 133.59,98.0254 132.424,96.0254 132,93.5C 131.374,95.7135 131.541,97.8801 132.5,100C 132.164,101.03 131.497,101.53 130.5,101.5C 130.324,96.1203 130.658,90.787 131.5,85.5C 132.646,83.525 134.313,82.025 136.5,81C 136.167,80.6667 135.833,80.3333 135.5,80C 136.745,79.2086 138.078,78.7086 139.5,78.5 Z"/></g>
<g><path style="opacity:1" fill="#eddebd" d="M 16.5,91.5 C 17.791,91.2627 18.791,91.596 19.5,92.5C 18.8333,92.5 18.1667,92.5 17.5,92.5C 9.29835,93.8047 7.63168,97.638 12.5,104C 10.8217,103.888 9.15501,103.388 7.5,102.5C 5.97065,102.529 4.80399,103.196 4,104.5C 3.33333,107.833 3.33333,111.167 4,114.5C 4.35302,117.152 5.51968,119.152 7.5,120.5C 6.80501,122.85 5.47167,123.517 3.5,122.5C -3.23661,107.352 1.09672,97.0184 16.5,91.5 Z"/></g>
<g><path style="opacity:1" fill="#27580e" d="M 148.5,101.5 C 148.918,102.222 149.584,102.722 150.5,103C 147.259,103.495 146.259,104.995 147.5,107.5C 145.854,105.854 144.188,104.188 142.5,102.5C 140.577,101.692 138.577,101.192 136.5,101C 137.416,100.722 138.082,100.222 138.5,99.5C 139.931,99.1193 140.764,98.1193 141,96.5C 142.886,99.242 145.386,100.909 148.5,101.5 Z"/></g>
<g><path style="opacity:1" fill="#f9f3df" d="M 22.5,96.5 C 18.3464,99.8586 19.1797,101.859 25,102.5C 28.2328,100.857 30.7328,101.69 32.5,105C 32.0321,106.822 31.6988,108.989 31.5,111.5C 31.8333,113.5 32.1667,115.5 32.5,117.5C 27.547,118.329 22.547,118.663 17.5,118.5C 17.9175,117.778 18.5842,117.278 19.5,117C 23.1516,116.501 26.8183,116.335 30.5,116.5C 30.4348,114.304 29.7681,112.304 28.5,110.5C 25.7363,109.239 23.403,107.405 21.5,105C 20.552,104.517 19.552,104.351 18.5,104.5C 17.6548,100.402 17.3214,96.402 17.5,92.5C 18.1667,92.5 18.8333,92.5 19.5,92.5C 20.5,92.5 21.5,92.5 22.5,92.5C 24.8056,92.0074 27.139,91.6741 29.5,91.5C 29.5,92.8333 29.5,94.1667 29.5,95.5C 26.9407,95.1984 24.6074,95.5318 22.5,96.5 Z"/></g>
<g><path style="opacity:1" fill="#9fa8b1" d="M 51.5,100.5 C 54.8499,100.335 58.1832,100.502 61.5,101C 56.2063,101.818 56.2063,102.318 61.5,102.5C 61.5,103.5 61.5,104.5 61.5,105.5C 67.0367,106.087 72.37,107.087 77.5,108.5C 71.9738,108.179 66.6405,108.512 61.5,109.5C 58.8333,109.5 56.1667,109.5 53.5,109.5C 54.9516,108.698 56.6183,108.198 58.5,108C 52.5249,106.128 46.5249,106.128 40.5,108C 38.8934,109.049 38.2267,110.549 38.5,112.5C 32.4064,110.453 32.0731,107.62 37.5,104C 42.0238,102.262 46.6904,101.095 51.5,100.5 Z"/></g>
<g><path style="opacity:1" fill="#85bf6e" d="M 135.5,99.5 C 134.732,100.263 134.232,101.263 134,102.5C 133.812,106.378 133.646,110.044 133.5,113.5C 132.188,109.584 131.188,105.584 130.5,101.5C 131.497,101.53 132.164,101.03 132.5,100C 131.541,97.8801 131.374,95.7135 132,93.5C 132.424,96.0254 133.59,98.0254 135.5,99.5 Z"/></g>
<g><path style="opacity:1" fill="#d4d7d4" d="M 77.5,99.5 C 79.8333,99.5 82.1667,99.5 84.5,99.5C 87.1272,100.092 89.7938,100.425 92.5,100.5C 94.4214,101.363 96.4214,102.029 98.5,102.5C 100.751,103.818 102.751,105.484 104.5,107.5C 102.516,107.617 100.85,106.95 99.5,105.5C 98.0692,107.938 96.0692,109.604 93.5,110.5C 90.1667,110.5 86.8333,110.5 83.5,110.5C 82.8333,110.5 82.1667,110.5 81.5,110.5C 75.021,109.509 68.3543,109.176 61.5,109.5C 66.6405,108.512 71.9738,108.179 77.5,108.5C 80.1731,108.316 80.8398,107.149 79.5,105C 80.1667,104.667 80.8333,104.333 81.5,104C 77.3466,103.616 73.3466,102.616 69.5,101C 72.3647,100.817 75.0314,100.317 77.5,99.5 Z"/></g>
<g><path style="opacity:1" fill="#faebbf" d="M 17.5,92.5 C 17.3214,96.402 17.6548,100.402 18.5,104.5C 19.552,104.351 20.552,104.517 21.5,105C 23.403,107.405 25.7363,109.239 28.5,110.5C 29.7681,112.304 30.4348,114.304 30.5,116.5C 26.8183,116.335 23.1516,116.501 19.5,117C 18.5842,117.278 17.9175,117.778 17.5,118.5C 14.7827,119.563 11.9494,120.563 9,121.5C 8.61742,120.944 8.11742,120.611 7.5,120.5C 5.51968,119.152 4.35302,117.152 4,114.5C 3.33333,111.167 3.33333,107.833 4,104.5C 4.80399,103.196 5.97065,102.529 7.5,102.5C 9.15501,103.388 10.8217,103.888 12.5,104C 7.63168,97.638 9.29835,93.8047 17.5,92.5 Z"/></g>
<g><path style="opacity:1" fill="#cdd6dd" d="M 51.5,100.5 C 52.5676,99.5655 53.901,99.2322 55.5,99.5C 62.8333,99.5 70.1667,99.5 77.5,99.5C 75.0314,100.317 72.3647,100.817 69.5,101C 73.3466,102.616 77.3466,103.616 81.5,104C 80.8333,104.333 80.1667,104.667 79.5,105C 80.8398,107.149 80.1731,108.316 77.5,108.5C 72.37,107.087 67.0367,106.087 61.5,105.5C 61.5,104.5 61.5,103.5 61.5,102.5C 56.2063,102.318 56.2063,101.818 61.5,101C 58.1832,100.502 54.8499,100.335 51.5,100.5 Z"/></g>
<g><path style="opacity:1" fill="#9db920" d="M 123.5,93.5 C 124.404,94.209 124.737,95.209 124.5,96.5C 125.075,102.167 125.242,107.833 125,113.5C 122.959,115.65 120.459,116.65 117.5,116.5C 117.286,114.856 117.62,113.356 118.5,112C 114.148,111.581 113.815,110.914 117.5,110C 114.854,109.503 112.187,109.336 109.5,109.5C 109.5,109.167 109.5,108.833 109.5,108.5C 109.169,106.678 108.502,105.011 107.5,103.5C 112.103,104.383 116.77,104.717 121.5,104.5C 121.5,101.833 121.5,99.1667 121.5,96.5C 122.167,95.5 122.833,94.5 123.5,93.5 Z"/></g>
<g><path style="opacity:1" fill="#56913b" d="M 135.5,99.5 C 136.5,99.5 137.5,99.5 138.5,99.5C 138.082,100.222 137.416,100.722 136.5,101C 138.577,101.192 140.577,101.692 142.5,102.5C 144.188,104.188 145.854,105.854 147.5,107.5C 148.29,108.794 149.29,109.961 150.5,111C 149.833,111.333 149.167,111.667 148.5,112C 149.711,112.893 149.711,113.726 148.5,114.5C 146.581,113.388 144.914,112.054 143.5,110.5C 142.02,108.397 140.853,108.397 140,110.5C 138.844,109.007 138.01,109.174 137.5,111C 138.029,112.559 138.696,114.059 139.5,115.5C 138.603,115.669 137.603,116.002 136.5,116.5C 137.456,118.075 138.123,119.742 138.5,121.5C 136.684,119.882 135.351,117.882 134.5,115.5C 134.167,114.833 133.833,114.167 133.5,113.5C 133.646,110.044 133.812,106.378 134,102.5C 134.232,101.263 134.732,100.263 135.5,99.5 Z"/></g>
<g><path style="opacity:1" fill="#589030" d="M 164.5,91.5 C 165.135,94.8862 166.135,98.2196 167.5,101.5C 167.5,102.833 167.5,104.167 167.5,105.5C 166.082,107.308 164.082,107.975 161.5,107.5C 161.542,109.849 160.375,111.182 158,111.5C 156.343,110.516 154.677,109.516 153,108.5C 152.586,108.957 152.086,109.291 151.5,109.5C 150.378,108.37 149.044,107.703 147.5,107.5C 146.259,104.995 147.259,103.495 150.5,103C 149.584,102.722 148.918,102.222 148.5,101.5C 149.167,101.5 149.833,101.5 150.5,101.5C 155.062,100.372 159.728,99.7054 164.5,99.5C 164.5,96.8333 164.5,94.1667 164.5,91.5 Z"/></g>
<g><path style="opacity:1" fill="#9f7a6c" d="M 53.5,109.5 C 56.1667,109.5 58.8333,109.5 61.5,109.5C 68.3543,109.176 75.021,109.509 81.5,110.5C 81.1667,110.5 80.8333,110.5 80.5,110.5C 75.1667,110.5 69.8333,110.5 64.5,110.5C 58.143,110.476 51.8097,110.81 45.5,111.5C 47.9608,110.469 50.6275,109.802 53.5,109.5 Z"/></g>
<g><path style="opacity:1" fill="#6c6e7e" d="M 53.5,109.5 C 50.6275,109.802 47.9608,110.469 45.5,111.5C 45.4431,112.609 45.1098,113.609 44.5,114.5C 43.8333,114.5 43.1667,114.5 42.5,114.5C 41.3285,113.655 39.9952,112.989 38.5,112.5C 38.2267,110.549 38.8934,109.049 40.5,108C 46.5249,106.128 52.5249,106.128 58.5,108C 56.6183,108.198 54.9516,108.698 53.5,109.5 Z"/></g>
<g><path style="opacity:1" fill="#2e5803" d="M 130.5,101.5 C 131.188,105.584 132.188,109.584 133.5,113.5C 133.833,114.167 134.167,114.833 134.5,115.5C 133.072,117.795 133.572,119.795 136,121.5C 137.44,125.041 138.274,128.708 138.5,132.5C 136.833,129.176 134.666,126.176 132,123.5C 131.296,117.646 130.462,111.813 129.5,106C 129.508,104.293 129.842,102.793 130.5,101.5 Z"/></g>
<g><path style="opacity:1" fill="#823f32" d="M 64.5,110.5 C 60.1653,111.311 55.6653,111.978 51,112.5C 48.4219,112.682 47.9219,113.682 49.5,115.5C 47.7085,115.634 46.0418,115.301 44.5,114.5C 45.1098,113.609 45.4431,112.609 45.5,111.5C 51.8097,110.81 58.143,110.476 64.5,110.5 Z"/></g>
<g><path style="opacity:1" fill="#9e9bae" d="M 104.5,107.5 C 104.201,111.133 102.201,113.133 98.5,113.5C 96.58,112.935 94.9133,111.935 93.5,110.5C 96.0692,109.604 98.0692,107.938 99.5,105.5C 100.85,106.95 102.516,107.617 104.5,107.5 Z"/></g>
<g><path style="opacity:0.992" fill="#769650" d="M 167.5,101.5 C 168.167,102.5 168.833,103.5 169.5,104.5C 171.677,109.51 173.01,114.844 173.5,120.5C 172.167,120.5 170.833,120.5 169.5,120.5C 168.624,116.538 167.958,112.538 167.5,108.5C 168.833,107.5 168.833,106.5 167.5,105.5C 167.5,104.167 167.5,102.833 167.5,101.5 Z"/></g>
<g><path style="opacity:1" fill="#a2481e" d="M 64.5,110.5 C 69.8333,110.5 75.1667,110.5 80.5,110.5C 79.791,111.404 78.791,111.737 77.5,111.5C 77.5,112.5 77.5,113.5 77.5,114.5C 73.1539,114.334 68.8206,114.501 64.5,115C 63.2625,115.232 62.2625,115.732 61.5,116.5C 57.4659,116.495 53.4659,116.162 49.5,115.5C 47.9219,113.682 48.4219,112.682 51,112.5C 55.6653,111.978 60.1653,111.311 64.5,110.5 Z"/></g>
<g><path style="opacity:1" fill="#975837" d="M 83.5,110.5 C 86.8333,110.5 90.1667,110.5 93.5,110.5C 94.9133,111.935 96.58,112.935 98.5,113.5C 95.3061,114.758 91.9728,115.424 88.5,115.5C 87.7375,114.732 86.7375,114.232 85.5,114C 85.8333,113.667 86.1667,113.333 86.5,113C 85.4293,112.148 84.4293,111.315 83.5,110.5 Z"/></g>
<g><path style="opacity:1" fill="#366c21" d="M 167.5,105.5 C 168.833,106.5 168.833,107.5 167.5,108.5C 162.695,111.071 158.028,113.904 153.5,117C 154.305,118.113 154.972,119.279 155.5,120.5C 155.67,121.822 155.337,122.989 154.5,124C 152.288,124.789 150.288,124.622 148.5,123.5C 150.783,123.392 152.783,122.559 154.5,121C 153.833,120 153.167,119 152.5,118C 148.917,117.054 145.584,116.221 142.5,115.5C 141.366,113.561 141.7,111.895 143.5,110.5C 144.914,112.054 146.581,113.388 148.5,114.5C 149.711,113.726 149.711,112.893 148.5,112C 149.167,111.667 149.833,111.333 150.5,111C 149.29,109.961 148.29,108.794 147.5,107.5C 149.044,107.703 150.378,108.37 151.5,109.5C 152.086,109.291 152.586,108.957 153,108.5C 154.677,109.516 156.343,110.516 158,111.5C 160.375,111.182 161.542,109.849 161.5,107.5C 164.082,107.975 166.082,107.308 167.5,105.5 Z"/></g>
<g><path style="opacity:1" fill="#dfb682" d="M 80.5,110.5 C 80.8333,110.5 81.1667,110.5 81.5,110.5C 82.1667,110.5 82.8333,110.5 83.5,110.5C 84.4293,111.315 85.4293,112.148 86.5,113C 86.1667,113.333 85.8333,113.667 85.5,114C 86.7375,114.232 87.7375,114.732 88.5,115.5C 79.4166,117.449 70.4166,117.783 61.5,116.5C 62.2625,115.732 63.2625,115.232 64.5,115C 68.8206,114.501 73.1539,114.334 77.5,114.5C 77.5,113.5 77.5,112.5 77.5,111.5C 78.791,111.737 79.791,111.404 80.5,110.5 Z"/></g>
<g><path style="opacity:1" fill="#f5ede3" d="M 104.5,107.5 C 106.176,108.183 106.843,109.517 106.5,111.5C 100.061,115.202 93.0608,117.535 85.5,118.5C 85.1667,118.5 84.8333,118.5 84.5,118.5C 82.8333,118.5 81.1667,118.5 79.5,118.5C 67.0806,118.211 54.7472,118.211 42.5,118.5C 38.9436,117.609 35.6103,117.609 32.5,118.5C 32.5,118.167 32.5,117.833 32.5,117.5C 32.1667,115.5 31.8333,113.5 31.5,111.5C 33.9687,112.569 36.3021,113.902 38.5,115.5C 39.8492,115.154 41.1825,114.821 42.5,114.5C 43.1667,114.5 43.8333,114.5 44.5,114.5C 46.0418,115.301 47.7085,115.634 49.5,115.5C 53.4659,116.162 57.4659,116.495 61.5,116.5C 70.4166,117.783 79.4166,117.449 88.5,115.5C 91.9728,115.424 95.3061,114.758 98.5,113.5C 102.201,113.133 104.201,111.133 104.5,107.5 Z"/></g>
<g><path style="opacity:1" fill="#f0f1eb" d="M 79.5,118.5 C 74.3595,119.488 69.0262,119.821 63.5,119.5C 61.2901,120.455 60.9568,121.955 62.5,124C 63.5,124.333 64.5,124.667 65.5,125C 64.5842,125.278 63.9175,125.778 63.5,126.5C 57.2549,128.411 52.9215,132.411 50.5,138.5C 49.1805,137.058 47.5138,136.392 45.5,136.5C 45.7022,134.011 45.2022,131.677 44,129.5C 41.3103,127.644 39.1437,125.311 37.5,122.5C 38.707,120.459 40.3737,119.126 42.5,118.5C 54.7472,118.211 67.0806,118.211 79.5,118.5 Z"/></g>
<g><path style="opacity:1" fill="#8696a7" d="M 106.5,111.5 C 105.64,115.434 105.307,119.434 105.5,123.5C 104.698,122.048 104.198,120.382 104,118.5C 103.621,121.03 102.787,123.363 101.5,125.5C 97.3992,125.798 94.7326,124.132 93.5,120.5C 91.8333,120.5 90.1667,120.5 88.5,120.5C 87.5,119.833 86.5,119.167 85.5,118.5C 93.0608,117.535 100.061,115.202 106.5,111.5 Z"/></g>
<g><path style="opacity:1" fill="#83a519" d="M 125.5,94.5 C 125.833,94.5 126.167,94.5 126.5,94.5C 126.666,103.173 126.5,111.84 126,120.5C 125.064,124.649 122.398,126.649 118,126.5C 115.611,126.518 113.444,125.851 111.5,124.5C 109.63,119.739 108.963,114.739 109.5,109.5C 112.187,109.336 114.854,109.503 117.5,110C 113.815,110.914 114.148,111.581 118.5,112C 117.62,113.356 117.286,114.856 117.5,116.5C 120.459,116.65 122.959,115.65 125,113.5C 125.242,107.833 125.075,102.167 124.5,96.5C 125.338,96.1583 125.672,95.4916 125.5,94.5 Z"/></g>
<g><path style="opacity:1" fill="#6c9215" d="M 143.5,77.5 C 141.901,77.2322 140.568,77.5655 139.5,78.5C 138.078,78.7086 136.745,79.2086 135.5,80C 135.833,80.3333 136.167,80.6667 136.5,81C 134.313,82.025 132.646,83.525 131.5,85.5C 128.74,89.05 127.407,93.2166 127.5,98C 128.035,107.251 129.201,116.417 131,125.5C 133.11,127.443 134.61,129.776 135.5,132.5C 135.357,134.262 135.691,135.929 136.5,137.5C 131.1,138.393 125.767,137.893 120.5,136C 117.118,133.045 113.452,130.545 109.5,128.5C 108.503,121.866 108.17,115.2 108.5,108.5C 108.833,108.5 109.167,108.5 109.5,108.5C 109.5,108.833 109.5,109.167 109.5,109.5C 108.963,114.739 109.63,119.739 111.5,124.5C 113.444,125.851 115.611,126.518 118,126.5C 122.398,126.649 125.064,124.649 126,120.5C 126.5,111.84 126.666,103.173 126.5,94.5C 127.099,90.3454 128.265,86.3454 130,82.5C 134.814,77.1478 139.314,75.4812 143.5,77.5 Z"/></g>
<g><path style="opacity:1" fill="#9eadb5" d="M 32.5,120.5 C 33.038,122.117 33.3713,123.784 33.5,125.5C 31.3193,125.716 29.6526,124.883 28.5,123C 24.8484,122.501 21.1817,122.335 17.5,122.5C 22.2502,120.969 27.2502,120.302 32.5,120.5 Z"/></g>
<g><path style="opacity:1" fill="#adbcc6" d="M 84.5,118.5 C 84.8333,118.5 85.1667,118.5 85.5,118.5C 86.5,119.167 87.5,119.833 88.5,120.5C 89.2099,124.361 91.5433,126.027 95.5,125.5C 96.562,133.392 95.2287,140.725 91.5,147.5C 88.6226,149.069 85.956,150.736 83.5,152.5C 83.8023,149.627 84.469,146.961 85.5,144.5C 85.678,148.102 86.678,148.102 88.5,144.5C 91.0444,138.374 90.8777,132.374 88,126.5C 85.8154,125.33 83.6488,124.164 81.5,123C 82.4581,121.853 82.1247,120.853 80.5,120C 82.0581,119.79 83.3915,119.29 84.5,118.5 Z"/></g>
<g><path style="opacity:1" fill="#bdcfb7" d="M 98.5,102.5 C 100.216,102.629 101.883,102.962 103.5,103.5C 104.795,104.488 106.128,105.488 107.5,106.5C 107.5,112.167 107.5,117.833 107.5,123.5C 106.566,126.656 105.899,129.989 105.5,133.5C 104.335,137.114 103.002,140.78 101.5,144.5C 101.863,145.183 102.196,145.85 102.5,146.5C 101.351,146.209 100.684,145.376 100.5,144C 103.031,137.376 104.698,130.543 105.5,123.5C 105.307,119.434 105.64,115.434 106.5,111.5C 106.843,109.517 106.176,108.183 104.5,107.5C 102.751,105.484 100.751,103.818 98.5,102.5 Z"/></g>
<g><path style="opacity:1" fill="#174c08" d="M 148.5,123.5 C 150.288,124.622 152.288,124.789 154.5,124C 155.337,122.989 155.67,121.822 155.5,120.5C 158.445,121.468 161.445,121.634 164.5,121C 165.337,119.989 165.67,118.822 165.5,117.5C 166.552,117.351 167.552,117.517 168.5,118C 166.996,119.491 166.163,121.324 166,123.5C 160.36,123.865 159.527,125.699 163.5,129C 166.804,130.042 168.971,128.875 170,125.5C 171.38,130.291 169.547,132.624 164.5,132.5C 164.5,133.5 164.5,134.5 164.5,135.5C 163.5,135.5 162.5,135.5 161.5,135.5C 159.368,135.554 158.035,136.554 157.5,138.5C 157.167,138.5 156.833,138.5 156.5,138.5C 156.643,136.738 156.309,135.071 155.5,133.5C 157.396,132.534 159.396,132.201 161.5,132.5C 161.519,129.341 160.352,126.674 158,124.5C 153.668,126.767 149.168,126.934 144.5,125C 142.751,122.303 141.585,119.469 141,116.5C 143.043,119.378 145.543,121.711 148.5,123.5 Z"/></g>
<g><path style="opacity:1" fill="#538b30" d="M 167.5,108.5 C 167.958,112.538 168.624,116.538 169.5,120.5C 170.833,120.5 172.167,120.5 173.5,120.5C 173.336,123.187 173.503,125.854 174,128.5C 175.372,129.91 176.205,131.577 176.5,133.5C 177.039,136.695 176.039,139.195 173.5,141C 174.677,143.158 174.01,144.658 171.5,145.5C 166.534,144.876 162.534,142.543 159.5,138.5C 160.612,137.735 161.279,136.735 161.5,135.5C 162.5,135.5 163.5,135.5 164.5,135.5C 164.5,134.5 164.5,133.5 164.5,132.5C 169.547,132.624 171.38,130.291 170,125.5C 168.971,128.875 166.804,130.042 163.5,129C 159.527,125.699 160.36,123.865 166,123.5C 166.163,121.324 166.996,119.491 168.5,118C 167.552,117.517 166.552,117.351 165.5,117.5C 165.67,118.822 165.337,119.989 164.5,121C 161.445,121.634 158.445,121.468 155.5,120.5C 154.972,119.279 154.305,118.113 153.5,117C 158.028,113.904 162.695,111.071 167.5,108.5 Z"/></g>
<g><path style="opacity:1" fill="#e9e2c1" d="M 34.5,131.5 C 35.1174,131.389 35.6174,131.056 36,130.5C 37.772,134.313 38.6053,138.313 38.5,142.5C 37.596,143.209 37.2627,144.209 37.5,145.5C 32.1409,145.33 26.8076,144.83 21.5,144C 18.4985,143.262 15.8318,142.096 13.5,140.5C 20.6123,141.456 27.6123,142.289 34.5,143C 35.8112,140.726 35.8112,138.56 34.5,136.5C 34.0432,134.227 32.7099,132.894 30.5,132.5C 29.9332,130.97 29.2666,129.47 28.5,128C 23.9967,126.22 19.33,125.387 14.5,125.5C 14.9175,124.778 15.5842,124.278 16.5,124C 19.5,123.333 22.5,123.333 25.5,124C 28.6267,126.517 31.6267,129.017 34.5,131.5 Z"/></g>
<g><path style="opacity:1" fill="#edf0eb" d="M 42.5,118.5 C 40.3737,119.126 38.707,120.459 37.5,122.5C 39.1437,125.311 41.3103,127.644 44,129.5C 45.2022,131.677 45.7022,134.011 45.5,136.5C 47.5138,136.392 49.1805,137.058 50.5,138.5C 50.1667,140.5 49.8333,142.5 49.5,144.5C 47.9557,147.579 47.289,150.579 47.5,153.5C 43.8414,149.982 41.6747,145.649 41,140.5C 40.2917,141.381 39.4584,142.047 38.5,142.5C 38.6053,138.313 37.772,134.313 36,130.5C 35.6174,131.056 35.1174,131.389 34.5,131.5C 33.8505,129.565 33.5172,127.565 33.5,125.5C 33.3713,123.784 33.038,122.117 32.5,120.5C 32.5,119.833 32.5,119.167 32.5,118.5C 35.6103,117.609 38.9436,117.609 42.5,118.5 Z"/></g>
<g><path style="opacity:1" fill="#4a700d" d="M 131.5,85.5 C 130.658,90.787 130.324,96.1203 130.5,101.5C 129.842,102.793 129.508,104.293 129.5,106C 130.462,111.813 131.296,117.646 132,123.5C 134.666,126.176 136.833,129.176 138.5,132.5C 139.674,133.514 140.34,134.847 140.5,136.5C 140.5,138.833 140.5,141.167 140.5,143.5C 139.5,143.5 138.5,143.5 137.5,143.5C 137.665,140.482 137.498,137.482 137,134.5C 136.722,133.584 136.222,132.918 135.5,132.5C 134.61,129.776 133.11,127.443 131,125.5C 129.201,116.417 128.035,107.251 127.5,98C 127.407,93.2166 128.74,89.05 131.5,85.5 Z"/></g>
<g><path style="opacity:1" fill="#477e36" d="M 143.5,110.5 C 141.7,111.895 141.366,113.561 142.5,115.5C 145.584,116.221 148.917,117.054 152.5,118C 153.167,119 153.833,120 154.5,121C 152.783,122.559 150.783,123.392 148.5,123.5C 145.543,121.711 143.043,119.378 141,116.5C 141.585,119.469 142.751,122.303 144.5,125C 149.168,126.934 153.668,126.767 158,124.5C 160.352,126.674 161.519,129.341 161.5,132.5C 159.396,132.201 157.396,132.534 155.5,133.5C 156.309,135.071 156.643,136.738 156.5,138.5C 153.465,139.666 150.798,139 148.5,136.5C 144.356,132.026 141.023,127.026 138.5,121.5C 138.123,119.742 137.456,118.075 136.5,116.5C 137.603,116.002 138.603,115.669 139.5,115.5C 138.696,114.059 138.029,112.559 137.5,111C 138.01,109.174 138.844,109.007 140,110.5C 140.853,108.397 142.02,108.397 143.5,110.5 Z"/></g>
<g><path style="opacity:0.78" fill="#7c9261" d="M 173.5,120.5 C 175.667,126.334 177.667,132.334 179.5,138.5C 179.547,140.038 178.88,141.038 177.5,141.5C 177.806,138.615 177.473,135.948 176.5,133.5C 176.205,131.577 175.372,129.91 174,128.5C 173.503,125.854 173.336,123.187 173.5,120.5 Z"/></g>
<g><path style="opacity:1" fill="#fcdea0" d="M 30.5,132.5 C 32.7099,132.894 34.0432,134.227 34.5,136.5C 35.2447,139.93 33.9114,141.597 30.5,141.5C 25.205,140.241 19.8717,139.241 14.5,138.5C 14.5,134.833 14.5,131.167 14.5,127.5C 20.9012,126.435 26.2346,128.102 30.5,132.5 Z"/></g>
<g><path style="opacity:1" fill="#c9d7d9" d="M 63.5,119.5 C 70.1589,122.77 77.1589,125.603 84.5,128C 86.6936,131.206 87.5269,134.706 87,138.5C 86.3292,139.252 85.4959,139.586 84.5,139.5C 81.1974,129.343 74.1974,125.009 63.5,126.5C 63.9175,125.778 64.5842,125.278 65.5,125C 64.5,124.667 63.5,124.333 62.5,124C 60.9568,121.955 61.2901,120.455 63.5,119.5 Z"/></g>
<g><path style="opacity:1" fill="#becbd1" d="M 79.5,118.5 C 81.1667,118.5 82.8333,118.5 84.5,118.5C 83.3915,119.29 82.0581,119.79 80.5,120C 82.1247,120.853 82.4581,121.853 81.5,123C 83.6488,124.164 85.8154,125.33 88,126.5C 90.8777,132.374 91.0444,138.374 88.5,144.5C 86.678,148.102 85.678,148.102 85.5,144.5C 84.962,142.883 84.6287,141.216 84.5,139.5C 85.4959,139.586 86.3292,139.252 87,138.5C 87.5269,134.706 86.6936,131.206 84.5,128C 77.1589,125.603 70.1589,122.77 63.5,119.5C 69.0262,119.821 74.3595,119.488 79.5,118.5 Z"/></g>
<g><path style="opacity:1" fill="#2aabe2" d="M 63.5,126.5 C 74.1974,125.009 81.1974,129.343 84.5,139.5C 84.6287,141.216 84.962,142.883 85.5,144.5C 84.469,146.961 83.8023,149.627 83.5,152.5C 81.1667,154.167 79.1667,156.167 77.5,158.5C 71.1347,161.116 64.8013,161.116 58.5,158.5C 53.4561,155.064 50.4561,150.397 49.5,144.5C 49.8333,142.5 50.1667,140.5 50.5,138.5C 52.9215,132.411 57.2549,128.411 63.5,126.5 Z"/></g>
<g><path style="opacity:1" fill="#dfe8e0" d="M 82.5,139.5 C 82.6602,141.199 82.4935,142.866 82,144.5C 81.7679,143.263 81.2679,142.263 80.5,141.5C 79.7649,137.707 77.7649,134.707 74.5,132.5C 72.3971,135.72 70.0638,138.72 67.5,141.5C 65.4083,138.319 63.075,135.319 60.5,132.5C 57.2351,134.707 55.2351,137.707 54.5,141.5C 53.71,142.609 53.21,143.942 53,145.5C 52.5045,143.527 52.3379,141.527 52.5,139.5C 54.441,132.1 59.2744,128.1 67,127.5C 75.2015,127.825 80.3682,131.825 82.5,139.5 Z"/></g>
<g><path style="opacity:1" fill="#193e07" d="M 134.5,115.5 C 135.351,117.882 136.684,119.882 138.5,121.5C 141.023,127.026 144.356,132.026 148.5,136.5C 146.345,139.603 144.011,142.603 141.5,145.5C 141.344,142.934 141.678,140.434 142.5,138C 142.164,136.97 141.497,136.47 140.5,136.5C 140.34,134.847 139.674,133.514 138.5,132.5C 138.274,128.708 137.44,125.041 136,121.5C 133.572,119.795 133.072,117.795 134.5,115.5 Z"/></g>
<g><path style="opacity:0.267" fill="#888888" d="M 17.5,122.5 C 21.1817,122.335 24.8484,122.501 28.5,123C 29.6526,124.883 31.3193,125.716 33.5,125.5C 33.5172,127.565 33.8505,129.565 34.5,131.5C 31.6267,129.017 28.6267,126.517 25.5,124C 22.5,123.333 19.5,123.333 16.5,124C 15.5842,124.278 14.9175,124.778 14.5,125.5C 11.7026,125.967 10.3692,127.633 10.5,130.5C 9.66175,130.842 9.32842,131.508 9.5,132.5C 8.01508,137.747 7.01508,137.413 6.5,131.5C 8.05758,125.944 11.7242,122.944 17.5,122.5 Z"/></g>
<g><path style="opacity:1" fill="#1ea7e1" d="M 80.5,141.5 C 81.1208,147.475 78.9541,152.141 74,155.5C 73.7216,154.584 73.2216,153.918 72.5,153.5C 73.995,150.471 75.3283,147.304 76.5,144C 76.3749,142.373 75.8749,140.873 75,139.5C 72.9555,142.949 70.4555,145.949 67.5,148.5C 66.5581,148.392 65.7247,148.059 65,147.5C 63.3333,144.833 61.6667,142.167 60,139.5C 57.7049,143.692 58.3715,147.359 62,150.5C 62.7975,152.259 62.6309,153.926 61.5,155.5C 56.1256,152.388 53.7923,147.722 54.5,141.5C 55.2351,137.707 57.2351,134.707 60.5,132.5C 63.075,135.319 65.4083,138.319 67.5,141.5C 70.0638,138.72 72.3971,135.72 74.5,132.5C 77.7649,134.707 79.7649,137.707 80.5,141.5 Z"/></g>
<g><path style="opacity:1" fill="#527810" d="M 107.5,106.5 C 108.338,106.842 108.672,107.508 108.5,108.5C 108.17,115.2 108.503,121.866 109.5,128.5C 113.452,130.545 117.118,133.045 120.5,136C 125.767,137.893 131.1,138.393 136.5,137.5C 135.691,135.929 135.357,134.262 135.5,132.5C 136.222,132.918 136.722,133.584 137,134.5C 137.498,137.482 137.665,140.482 137.5,143.5C 136.828,144.267 135.995,144.934 135,145.5C 131.943,144.549 128.777,144.216 125.5,144.5C 125.5,143.167 125.5,141.833 125.5,140.5C 120.268,140.383 115.935,138.383 112.5,134.5C 111.446,134.68 110.446,135.013 109.5,135.5C 107.997,131.645 107.33,127.645 107.5,123.5C 107.5,117.833 107.5,112.167 107.5,106.5 Z"/></g>
<g><path style="opacity:1" fill="#3b5f11" d="M 107.5,123.5 C 107.33,127.645 107.997,131.645 109.5,135.5C 110.446,135.013 111.446,134.68 112.5,134.5C 115.935,138.383 120.268,140.383 125.5,140.5C 125.5,141.833 125.5,143.167 125.5,144.5C 128.777,144.216 131.943,144.549 135,145.5C 135.995,144.934 136.828,144.267 137.5,143.5C 138.5,143.5 139.5,143.5 140.5,143.5C 140.5,141.167 140.5,138.833 140.5,136.5C 141.497,136.47 142.164,136.97 142.5,138C 141.678,140.434 141.344,142.934 141.5,145.5C 141.833,146.833 142.167,148.167 142.5,149.5C 141.883,149.389 141.383,149.056 141,148.5C 139.259,149.758 137.426,150.758 135.5,151.5C 134.77,149.955 133.437,149.122 131.5,149C 126.833,148.667 122.167,148.333 117.5,148C 113.961,147.227 112.127,146.061 112,144.5C 109.943,145.797 107.776,146.297 105.5,146C 105.098,141.942 105.098,137.775 105.5,133.5C 105.899,129.989 106.566,126.656 107.5,123.5 Z"/></g>
<g><path style="opacity:0.826" fill="#dddcdd" d="M 32.5,117.5 C 32.5,117.833 32.5,118.167 32.5,118.5C 32.5,119.167 32.5,119.833 32.5,120.5C 27.2502,120.302 22.2502,120.969 17.5,122.5C 11.7242,122.944 8.05758,125.944 6.5,131.5C 5.84761,132.449 5.51428,133.615 5.5,135C 6.02779,137.881 6.69446,140.715 7.5,143.5C 6.44802,143.649 5.44802,143.483 4.5,143C 3.83663,141.482 2.83663,140.315 1.5,139.5C 0.833333,137.833 0.166667,136.167 -0.5,134.5C -0.5,132.833 -0.5,131.167 -0.5,129.5C 1.0828,127.337 2.41613,125.004 3.5,122.5C 5.47167,123.517 6.80501,122.85 7.5,120.5C 8.11742,120.611 8.61742,120.944 9,121.5C 11.9494,120.563 14.7827,119.563 17.5,118.5C 22.547,118.663 27.547,118.329 32.5,117.5 Z"/></g>
<g><path style="opacity:1" fill="#efdbae" d="M 14.5,125.5 C 19.33,125.387 23.9967,126.22 28.5,128C 29.2666,129.47 29.9332,130.97 30.5,132.5C 26.2346,128.102 20.9012,126.435 14.5,127.5C 14.5,131.167 14.5,134.833 14.5,138.5C 19.8717,139.241 25.205,140.241 30.5,141.5C 33.9114,141.597 35.2447,139.93 34.5,136.5C 35.8112,138.56 35.8112,140.726 34.5,143C 27.6123,142.289 20.6123,141.456 13.5,140.5C 12.5,139.833 11.5,139.167 10.5,138.5C 11.6567,135.974 11.6567,133.307 10.5,130.5C 10.3692,127.633 11.7026,125.967 14.5,125.5 Z"/></g>
<g><path style="opacity:1" fill="#bec8d2" d="M 105.5,123.5 C 104.698,130.543 103.031,137.376 100.5,144C 100.684,145.376 101.351,146.209 102.5,146.5C 98.9174,148.943 96.2507,152.276 94.5,156.5C 94.1667,157.167 93.8333,157.833 93.5,158.5C 91.8333,159.833 90.1667,161.167 88.5,162.5C 87.9569,162.44 87.6236,162.107 87.5,161.5C 89.0192,159.576 90.3525,157.576 91.5,155.5C 93.2225,153.747 94.7225,151.747 96,149.5C 98.9693,141.759 100.803,133.759 101.5,125.5C 102.787,123.363 103.621,121.03 104,118.5C 104.198,120.382 104.698,122.048 105.5,123.5 Z"/></g>
<g><path style="opacity:1" fill="#081a14" d="M 159.5,142.5 C 161.39,144.578 163.724,145.911 166.5,146.5C 164.507,147.472 164.174,148.805 165.5,150.5C 162.675,150.838 160.508,149.838 159,147.5C 159,148.833 159,150.167 159,151.5C 154.743,148.274 149.91,146.774 144.5,147C 145.944,145.237 146.944,143.237 147.5,141C 151.135,141.055 154.635,141.889 158,143.5C 158.383,142.944 158.883,142.611 159.5,142.5 Z"/></g>
<g><path style="opacity:1" fill="#cad0d3" d="M 6.5,131.5 C 7.01508,137.413 8.01508,137.747 9.5,132.5C 9.32526,134.621 9.65859,136.621 10.5,138.5C 11.5,139.167 12.5,139.833 13.5,140.5C 15.8318,142.096 18.4985,143.262 21.5,144C 26.8076,144.83 32.1409,145.33 37.5,145.5C 37.2627,144.209 37.596,143.209 38.5,142.5C 39.4584,142.047 40.2917,141.381 41,140.5C 41.6747,145.649 43.8414,149.982 47.5,153.5C 47.289,150.579 47.9557,147.579 49.5,144.5C 50.4561,150.397 53.4561,155.064 58.5,158.5C 57.0484,159.302 55.3817,159.802 53.5,160C 54.6956,160.654 54.6956,161.154 53.5,161.5C 50.845,160.503 48.845,158.836 47.5,156.5C 46.5084,156.672 45.8417,156.338 45.5,155.5C 43.883,152.38 42.0497,149.38 40,146.5C 39.5172,147.448 39.3505,148.448 39.5,149.5C 30.5051,148.867 21.5051,148.2 12.5,147.5C 11.2739,147.52 10.2739,147.853 9.5,148.5C 5.41176,146.746 2.74509,143.746 1.5,139.5C 2.83663,140.315 3.83663,141.482 4.5,143C 5.44802,143.483 6.44802,143.649 7.5,143.5C 6.69446,140.715 6.02779,137.881 5.5,135C 5.51428,133.615 5.84761,132.449 6.5,131.5 Z"/></g>
<g><path style="opacity:1" fill="#d1dfd9" d="M 52.5,139.5 C 52.3379,141.527 52.5045,143.527 53,145.5C 53.21,143.942 53.71,142.609 54.5,141.5C 53.7923,147.722 56.1256,152.388 61.5,155.5C 62.6309,153.926 62.7975,152.259 62,150.5C 58.3715,147.359 57.7049,143.692 60,139.5C 61.6667,142.167 63.3333,144.833 65,147.5C 65.7247,148.059 66.5581,148.392 67.5,148.5C 70.4555,145.949 72.9555,142.949 75,139.5C 75.8749,140.873 76.3749,142.373 76.5,144C 75.3283,147.304 73.995,150.471 72.5,153.5C 71.9935,154.859 70.9935,155.859 69.5,156.5C 66.5719,157.484 63.5719,157.817 60.5,157.5C 53.022,153.54 50.3553,147.54 52.5,139.5 Z"/></g>
<g><path style="opacity:1" fill="#487630" d="M 176.5,133.5 C 177.473,135.948 177.806,138.615 177.5,141.5C 178.438,143.91 178.438,146.244 177.5,148.5C 177.511,150.017 178.177,151.184 179.5,152C 178.263,152.232 177.263,152.732 176.5,153.5C 175.211,151.752 173.711,151.419 172,152.5C 172.134,154.189 172.634,155.856 173.5,157.5C 172.833,157.167 172.167,156.833 171.5,156.5C 169.8,154.79 168.467,152.79 167.5,150.5C 174.146,148.352 173.813,147.018 166.5,146.5C 163.724,145.911 161.39,144.578 159.5,142.5C 158.4,141.395 157.733,140.062 157.5,138.5C 158.035,136.554 159.368,135.554 161.5,135.5C 161.279,136.735 160.612,137.735 159.5,138.5C 162.534,142.543 166.534,144.876 171.5,145.5C 174.01,144.658 174.677,143.158 173.5,141C 176.039,139.195 177.039,136.695 176.5,133.5 Z"/></g>
<g><path style="opacity:0.582" fill="#3c451c" d="M 105.5,133.5 C 105.098,137.775 105.098,141.942 105.5,146C 107.776,146.297 109.943,145.797 112,144.5C 112.127,146.061 113.961,147.227 117.5,148C 122.167,148.333 126.833,148.667 131.5,149C 133.437,149.122 134.77,149.955 135.5,151.5C 135.027,152.906 134.027,153.573 132.5,153.5C 132.158,152.662 131.492,152.328 130.5,152.5C 130.167,152.5 129.833,152.5 129.5,152.5C 127.517,152.157 126.183,152.824 125.5,154.5C 122.174,152.508 118.674,150.841 115,149.5C 114.617,150.056 114.117,150.389 113.5,150.5C 112.432,149.566 111.099,149.232 109.5,149.5C 108.167,149.5 106.833,149.5 105.5,149.5C 105.19,147.856 104.19,146.856 102.5,146.5C 102.196,145.85 101.863,145.183 101.5,144.5C 103.002,140.78 104.335,137.114 105.5,133.5 Z"/></g>
<g><path style="opacity:1" fill="#91a2b2" d="M 88.5,120.5 C 90.1667,120.5 91.8333,120.5 93.5,120.5C 94.7326,124.132 97.3992,125.798 101.5,125.5C 100.803,133.759 98.9693,141.759 96,149.5C 94.7225,151.747 93.2225,153.747 91.5,155.5C 89.7411,155.046 87.7411,155.046 85.5,155.5C 83.0221,156.883 80.3554,157.883 77.5,158.5C 79.1667,156.167 81.1667,154.167 83.5,152.5C 85.956,150.736 88.6226,149.069 91.5,147.5C 95.2287,140.725 96.562,133.392 95.5,125.5C 91.5433,126.027 89.2099,124.361 88.5,120.5 Z"/></g>
<g><path style="opacity:1" fill="#335846" d="M 156.5,158.5 C 149.727,158.719 145.06,155.719 142.5,149.5C 144.669,148.918 147.002,148.918 149.5,149.5C 149.351,150.552 149.517,151.552 150,152.5C 152.664,153.998 154.83,155.998 156.5,158.5 Z"/></g>
<g><path style="opacity:1" fill="#0d3a0d" d="M 166.5,146.5 C 173.813,147.018 174.146,148.352 167.5,150.5C 168.467,152.79 169.8,154.79 171.5,156.5C 169.784,156.371 168.117,156.038 166.5,155.5C 165.825,153.717 165.492,152.05 165.5,150.5C 164.174,148.805 164.507,147.472 166.5,146.5 Z"/></g>
<g><path style="opacity:1" fill="#639f36" d="M 176.5,153.5 C 182.817,156.138 185.483,160.805 184.5,167.5C 182.379,167.675 180.379,167.341 178.5,166.5C 176.94,164.871 177.273,163.704 179.5,163C 177.604,160.932 175.604,159.099 173.5,157.5C 172.634,155.856 172.134,154.189 172,152.5C 173.711,151.419 175.211,151.752 176.5,153.5 Z"/></g>
<g><path style="opacity:1" fill="#834347" d="M 102.5,146.5 C 104.19,146.856 105.19,147.856 105.5,149.5C 104.565,151.861 103.232,154.028 101.5,156C 100.258,156.311 99.2575,155.811 98.5,154.5C 97.3777,155.63 96.0443,156.297 94.5,156.5C 96.2507,152.276 98.9174,148.943 102.5,146.5 Z"/></g>
<g><path style="opacity:1" fill="#0d2d1b" d="M 148.5,136.5 C 150.798,139 153.465,139.666 156.5,138.5C 156.833,138.5 157.167,138.5 157.5,138.5C 157.733,140.062 158.4,141.395 159.5,142.5C 158.883,142.611 158.383,142.944 158,143.5C 154.635,141.889 151.135,141.055 147.5,141C 146.944,143.237 145.944,145.237 144.5,147C 149.91,146.774 154.743,148.274 159,151.5C 159,150.167 159,148.833 159,147.5C 160.508,149.838 162.675,150.838 165.5,150.5C 165.492,152.05 165.825,153.717 166.5,155.5C 165.316,156.688 165.316,157.855 166.5,159C 164.285,160.044 161.952,160.71 159.5,161C 160.252,161.671 160.586,162.504 160.5,163.5C 158.413,162.415 157.08,160.749 156.5,158.5C 154.83,155.998 152.664,153.998 150,152.5C 149.517,151.552 149.351,150.552 149.5,149.5C 147.002,148.918 144.669,148.918 142.5,149.5C 142.167,148.167 141.833,146.833 141.5,145.5C 144.011,142.603 146.345,139.603 148.5,136.5 Z"/></g>
<g><path style="opacity:1" fill="#6a7588" d="M 45.5,155.5 C 45.8417,156.338 46.5084,156.672 47.5,156.5C 47.2965,158.39 47.9632,159.89 49.5,161C 48.9056,161.464 48.2389,161.631 47.5,161.5C 45.8828,160.962 44.2161,160.629 42.5,160.5C 38.0047,159.922 33.5047,158.922 29,157.5C 28.0862,158.654 27.2529,158.487 26.5,157C 28.0577,154.946 30.0577,153.446 32.5,152.5C 28.2889,151.098 23.9555,150.264 19.5,150C 25.5482,149.337 31.5482,149.67 37.5,151C 38.7433,152.154 39.7433,153.488 40.5,155C 42.1341,155.494 43.8008,155.66 45.5,155.5 Z"/></g>
<g><path style="opacity:1" fill="#412935" d="M 105.5,149.5 C 106.833,149.5 108.167,149.5 109.5,149.5C 110.058,150.79 111.058,151.623 112.5,152C 110.167,152.333 107.833,152.667 105.5,153C 104.512,155.167 103.179,157 101.5,158.5C 100.732,159.263 100.232,160.263 100,161.5C 98.6459,156.463 96.9792,156.463 95,161.5C 93.9614,160.756 93.4614,159.756 93.5,158.5C 93.8333,157.833 94.1667,157.167 94.5,156.5C 96.0443,156.297 97.3777,155.63 98.5,154.5C 99.2575,155.811 100.258,156.311 101.5,156C 103.232,154.028 104.565,151.861 105.5,149.5 Z"/></g>
<g><path style="opacity:1" fill="#52566d" d="M 109.5,149.5 C 111.099,149.232 112.432,149.566 113.5,150.5C 114.833,151.5 116.167,152.5 117.5,153.5C 117.1,155.377 116.1,156.877 114.5,158C 114.743,158.902 115.077,159.735 115.5,160.5C 113.606,161.048 111.94,162.048 110.5,163.5C 109.893,163.376 109.56,163.043 109.5,162.5C 110.23,161.288 111.23,160.288 112.5,159.5C 111.975,158.808 111.308,158.308 110.5,158C 111.731,156.817 111.731,155.651 110.5,154.5C 108.697,155.137 107.364,156.303 106.5,158C 104.866,158.494 103.199,158.66 101.5,158.5C 103.179,157 104.512,155.167 105.5,153C 107.833,152.667 110.167,152.333 112.5,152C 111.058,151.623 110.058,150.79 109.5,149.5 Z"/></g>
<g><path style="opacity:1" fill="#b1c5c9" d="M 82.5,139.5 C 84.3669,151.381 79.2002,158.048 67,159.5C 64.5161,159.503 62.3495,158.837 60.5,157.5C 63.5719,157.817 66.5719,157.484 69.5,156.5C 70.9935,155.859 71.9935,154.859 72.5,153.5C 73.2216,153.918 73.7216,154.584 74,155.5C 78.9541,152.141 81.1208,147.475 80.5,141.5C 81.2679,142.263 81.7679,143.263 82,144.5C 82.4935,142.866 82.6602,141.199 82.5,139.5 Z"/></g>
<g><path style="opacity:0.953" fill="#804648" d="M 129.5,152.5 C 128.941,156.216 127.108,158.216 124,158.5C 123.333,160.833 123.333,163.167 124,165.5C 125,164.833 126,164.167 127,163.5C 128.333,164.833 129.667,164.833 131,163.5C 130.89,159.871 130.724,156.204 130.5,152.5C 131.492,152.328 132.158,152.662 132.5,153.5C 132.018,154.416 131.685,155.416 131.5,156.5C 132.942,159.028 133.442,161.695 133,164.5C 130.932,166.396 129.099,168.396 127.5,170.5C 126.74,168.015 125.74,168.015 124.5,170.5C 123.833,169.833 123.167,169.167 122.5,168.5C 121.5,168.5 120.5,168.5 119.5,168.5C 120.36,166.184 120.86,163.851 121,161.5C 119.301,160.594 117.467,160.261 115.5,160.5C 115.077,159.735 114.743,158.902 114.5,158C 116.1,156.877 117.1,155.377 117.5,153.5C 119.148,154.777 120.982,155.777 123,156.5C 123.995,155.934 124.828,155.267 125.5,154.5C 126.183,152.824 127.517,152.157 129.5,152.5 Z"/></g>
<g><path style="opacity:1" fill="#939aa9" d="M 45.5,155.5 C 43.8008,155.66 42.1341,155.494 40.5,155C 39.7433,153.488 38.7433,152.154 37.5,151C 31.5482,149.67 25.5482,149.337 19.5,150C 23.9555,150.264 28.2889,151.098 32.5,152.5C 30.0577,153.446 28.0577,154.946 26.5,157C 27.2529,158.487 28.0862,158.654 29,157.5C 33.5047,158.922 38.0047,159.922 42.5,160.5C 40.4086,160.318 38.4086,160.652 36.5,161.5C 35.3869,164.441 34.0536,167.108 32.5,169.5C 25.7995,166.866 23.1328,162.199 24.5,155.5C 24.9528,154.542 25.6195,153.708 26.5,153C 20.6792,151.938 15.0125,150.438 9.5,148.5C 10.2739,147.853 11.2739,147.52 12.5,147.5C 21.5051,148.2 30.5051,148.867 39.5,149.5C 39.3505,148.448 39.5172,147.448 40,146.5C 42.0497,149.38 43.883,152.38 45.5,155.5 Z"/></g>
<g><path style="opacity:1" fill="#9a373a" d="M 129.5,152.5 C 129.833,152.5 130.167,152.5 130.5,152.5C 130.724,156.204 130.89,159.871 131,163.5C 129.667,164.833 128.333,164.833 127,163.5C 126,164.167 125,164.833 124,165.5C 123.333,163.167 123.333,160.833 124,158.5C 127.108,158.216 128.941,156.216 129.5,152.5 Z"/></g>
<g><path style="opacity:1" fill="#607393" d="M 109.5,162.5 C 107.697,164.481 106.03,166.648 104.5,169C 98.9905,170.89 93.3238,171.723 87.5,171.5C 86.8333,171.5 86.1667,171.5 85.5,171.5C 90.3358,168.436 95.3358,166.27 100.5,165C 101.423,162.959 101.756,160.792 101.5,158.5C 103.199,158.66 104.866,158.494 106.5,158C 107.364,156.303 108.697,155.137 110.5,154.5C 111.731,155.651 111.731,156.817 110.5,158C 111.308,158.308 111.975,158.808 112.5,159.5C 111.23,160.288 110.23,161.288 109.5,162.5 Z"/></g>
<g><path style="opacity:1" fill="#306d34" d="M 166.5,155.5 C 168.117,156.038 169.784,156.371 171.5,156.5C 172.167,156.833 172.833,157.167 173.5,157.5C 175.604,159.099 177.604,160.932 179.5,163C 177.273,163.704 176.94,164.871 178.5,166.5C 175.201,165.621 171.701,165.621 168,166.5C 166.513,165.747 166.346,164.914 167.5,164C 166.234,163.691 165.067,163.191 164,162.5C 163.667,163.167 163.333,163.833 163,164.5C 162.329,163.748 161.496,163.414 160.5,163.5C 160.586,162.504 160.252,161.671 159.5,161C 161.952,160.71 164.285,160.044 166.5,159C 165.316,157.855 165.316,156.688 166.5,155.5 Z"/></g>
<g><path style="opacity:1" fill="#6e7f94" d="M 91.5,155.5 C 90.3525,157.576 89.0192,159.576 87.5,161.5C 87.6236,162.107 87.9569,162.44 88.5,162.5C 86.5899,164.562 84.2565,166.062 81.5,167C 83.3008,167.317 83.6341,167.984 82.5,169C 80.913,169.862 79.2464,170.529 77.5,171C 80.146,171.497 82.8127,171.664 85.5,171.5C 86.1667,171.5 86.8333,171.5 87.5,171.5C 87.5,171.833 87.5,172.167 87.5,172.5C 81.5,172.5 75.5,172.5 69.5,172.5C 69.5,171.167 69.5,169.833 69.5,168.5C 72.0414,166.401 75.0414,165.068 78.5,164.5C 78.5,163.5 78.5,162.5 78.5,161.5C 81.4732,160.19 83.8065,158.19 85.5,155.5C 87.7411,155.046 89.7411,155.046 91.5,155.5 Z"/></g>
<g><path style="opacity:0.612" fill="#83a455" d="M 177.5,148.5 C 180.833,152.167 184.167,155.833 187.5,159.5C 187.5,161.5 187.5,163.5 187.5,165.5C 186.5,166.167 185.5,166.833 184.5,167.5C 185.483,160.805 182.817,156.138 176.5,153.5C 177.263,152.732 178.263,152.232 179.5,152C 178.177,151.184 177.511,150.017 177.5,148.5 Z"/></g>
<g><path style="opacity:1" fill="#91a4b4" d="M 85.5,155.5 C 83.8065,158.19 81.4732,160.19 78.5,161.5C 72.934,163.865 67.7674,166.865 63,170.5C 58.6541,170.148 55.3208,168.148 53,164.5C 52.3872,166.495 52.8872,168.162 54.5,169.5C 52.8333,169.5 51.1667,169.5 49.5,169.5C 49.9926,167.194 50.3259,164.861 50.5,162.5C 49.209,162.737 48.209,162.404 47.5,161.5C 48.2389,161.631 48.9056,161.464 49.5,161C 47.9632,159.89 47.2965,158.39 47.5,156.5C 48.845,158.836 50.845,160.503 53.5,161.5C 54.6956,161.154 54.6956,160.654 53.5,160C 55.3817,159.802 57.0484,159.302 58.5,158.5C 64.8013,161.116 71.1347,161.116 77.5,158.5C 80.3554,157.883 83.0221,156.883 85.5,155.5 Z"/></g>
<g><path style="opacity:0.106" fill="#7d9f70" d="M 178.5,166.5 C 180.379,167.341 182.379,167.675 184.5,167.5C 185.5,166.833 186.5,166.167 187.5,165.5C 187.5,166.167 187.5,166.833 187.5,167.5C 183.112,170.068 178.612,170.068 174,167.5C 168.461,169.472 163.961,168.139 160.5,163.5C 161.496,163.414 162.329,163.748 163,164.5C 163.333,163.833 163.667,163.167 164,162.5C 165.067,163.191 166.234,163.691 167.5,164C 166.346,164.914 166.513,165.747 168,166.5C 171.701,165.621 175.201,165.621 178.5,166.5 Z"/></g>
<g><path style="opacity:1" fill="#74839d" d="M 115.5,160.5 C 118.25,162.008 119.084,164.341 118,167.5C 117.329,168.252 116.496,168.586 115.5,168.5C 115.44,167.957 115.107,167.624 114.5,167.5C 107.857,170.762 100.857,172.762 93.5,173.5C 91.4352,173.483 89.4352,173.15 87.5,172.5C 87.5,172.167 87.5,171.833 87.5,171.5C 93.3238,171.723 98.9905,170.89 104.5,169C 106.03,166.648 107.697,164.481 109.5,162.5C 109.56,163.043 109.893,163.376 110.5,163.5C 111.94,162.048 113.606,161.048 115.5,160.5 Z"/></g>
<g><path style="opacity:1" fill="#4e5d79" d="M 101.5,158.5 C 101.756,160.792 101.423,162.959 100.5,165C 95.3358,166.27 90.3358,168.436 85.5,171.5C 82.8127,171.664 80.146,171.497 77.5,171C 79.2464,170.529 80.913,169.862 82.5,169C 83.6341,167.984 83.3008,167.317 81.5,167C 84.2565,166.062 86.5899,164.562 88.5,162.5C 90.1667,161.167 91.8333,159.833 93.5,158.5C 93.4614,159.756 93.9614,160.756 95,161.5C 96.9792,156.463 98.6459,156.463 100,161.5C 100.232,160.263 100.732,159.263 101.5,158.5 Z"/></g>
<g><path style="opacity:1" fill="#4f4c61" d="M 115.5,160.5 C 117.467,160.261 119.301,160.594 121,161.5C 120.86,163.851 120.36,166.184 119.5,168.5C 120.5,168.5 121.5,168.5 122.5,168.5C 120.407,169.058 118.907,170.391 118,172.5C 117.601,172.272 117.435,171.938 117.5,171.5C 116.5,170.833 115.5,170.167 114.5,169.5C 115.167,169.5 115.5,169.167 115.5,168.5C 116.496,168.586 117.329,168.252 118,167.5C 119.084,164.341 118.25,162.008 115.5,160.5 Z"/></g>
<g><path style="opacity:1" fill="#8897a7" d="M 78.5,161.5 C 78.5,162.5 78.5,163.5 78.5,164.5C 75.0414,165.068 72.0414,166.401 69.5,168.5C 69.5,169.833 69.5,171.167 69.5,172.5C 75.5,172.5 81.5,172.5 87.5,172.5C 89.4352,173.15 91.4352,173.483 93.5,173.5C 90.5,174.167 87.5,174.833 84.5,175.5C 82.8333,175.5 81.1667,175.5 79.5,175.5C 71.0992,174.309 62.7658,172.309 54.5,169.5C 52.8872,168.162 52.3872,166.495 53,164.5C 55.3208,168.148 58.6541,170.148 63,170.5C 67.7674,166.865 72.934,163.865 78.5,161.5 Z"/></g>
<g><path style="opacity:1" fill="#c4cfd9" d="M 42.5,160.5 C 42.4424,164.091 43.4424,167.258 45.5,170C 45.1667,170.333 44.8333,170.667 44.5,171C 48.9683,171.493 53.3017,172.493 57.5,174C 56.944,174.383 56.6107,174.883 56.5,175.5C 48.004,175.043 40.004,173.043 32.5,169.5C 34.0536,167.108 35.3869,164.441 36.5,161.5C 38.4086,160.652 40.4086,160.318 42.5,160.5 Z"/></g>
<g><path style="opacity:1" fill="#9393a7" d="M 122.5,168.5 C 123.167,169.167 123.833,169.833 124.5,170.5C 120.474,174.852 115.474,177.685 109.5,179C 101.743,180.553 94.0759,181.72 86.5,182.5C 76.8333,182.5 67.1667,182.5 57.5,182.5C 53.7328,181.903 50.0661,180.903 46.5,179.5C 64.6099,182.474 82.6099,181.974 100.5,178C 106.375,176.32 112.041,174.154 117.5,171.5C 117.435,171.938 117.601,172.272 118,172.5C 118.907,170.391 120.407,169.058 122.5,168.5 Z"/></g>
<g><path style="opacity:1" fill="#bbc5d2" d="M 42.5,160.5 C 44.2161,160.629 45.8828,160.962 47.5,161.5C 48.209,162.404 49.209,162.737 50.5,162.5C 50.3259,164.861 49.9926,167.194 49.5,169.5C 51.1667,169.5 52.8333,169.5 54.5,169.5C 62.7658,172.309 71.0992,174.309 79.5,175.5C 71.982,176.709 64.3154,176.709 56.5,175.5C 56.6107,174.883 56.944,174.383 57.5,174C 53.3017,172.493 48.9683,171.493 44.5,171C 44.8333,170.667 45.1667,170.333 45.5,170C 43.4424,167.258 42.4424,164.091 42.5,160.5 Z"/></g>
<g><path style="opacity:1" fill="#bdc8e3" d="M 115.5,168.5 C 115.5,169.167 115.167,169.5 114.5,169.5C 106.235,173.068 97.5679,175.401 88.5,176.5C 87.4324,175.566 86.099,175.232 84.5,175.5C 87.5,174.833 90.5,174.167 93.5,173.5C 100.857,172.762 107.857,170.762 114.5,167.5C 115.107,167.624 115.44,167.957 115.5,168.5 Z"/></g>
<g><path style="opacity:0.608" fill="#c5bfcb" d="M 127.5,170.5 C 126.432,173.075 124.765,175.242 122.5,177C 115.667,178.202 109,179.869 102.5,182C 97.1771,182.499 91.8437,182.666 86.5,182.5C 94.0759,181.72 101.743,180.553 109.5,179C 115.474,177.685 120.474,174.852 124.5,170.5C 125.74,168.015 126.74,168.015 127.5,170.5 Z"/></g>
<g><path style="opacity:0.784" fill="#dbdbe3" d="M 24.5,155.5 C 23.1328,162.199 25.7995,166.866 32.5,169.5C 40.004,173.043 48.004,175.043 56.5,175.5C 64.3154,176.709 71.982,176.709 79.5,175.5C 81.1667,175.5 82.8333,175.5 84.5,175.5C 86.099,175.232 87.4324,175.566 88.5,176.5C 76.1997,177.607 63.8663,177.773 51.5,177C 42.1513,175.841 33.4846,173.174 25.5,169C 31.2043,175.069 38.2043,178.569 46.5,179.5C 50.0661,180.903 53.7328,181.903 57.5,182.5C 45.6379,183.862 34.6379,181.528 24.5,175.5C 21.2069,172.574 19.8735,168.908 20.5,164.5C 19.712,160.35 21.0454,157.35 24.5,155.5 Z"/></g>
<g><path style="opacity:1" fill="#7c8398" d="M 88.5,176.5 C 97.5679,175.401 106.235,173.068 114.5,169.5C 115.5,170.167 116.5,170.833 117.5,171.5C 112.041,174.154 106.375,176.32 100.5,178C 82.6099,181.974 64.6099,182.474 46.5,179.5C 38.2043,178.569 31.2043,175.069 25.5,169C 33.4846,173.174 42.1513,175.841 51.5,177C 63.8663,177.773 76.1997,177.607 88.5,176.5 Z"/></g>
</svg>
