<?xml version="1.0" encoding="UTF-8"?>
<!DOCTYPE svg PUBLIC "-//W3C//DTD SVG 1.1//EN" "http://www.w3.org/Graphics/SVG/1.1/DTD/svg11.dtd">
<svg xmlns="http://www.w3.org/2000/svg" version="1.1" width="208px" height="200px" style="shape-rendering:geometricPrecision; text-rendering:geometricPrecision; image-rendering:optimizeQuality; fill-rule:evenodd; clip-rule:evenodd" xmlns:xlink="http://www.w3.org/1999/xlink">
<g><path style="opacity:1" fill="#efe382" d="M 54.5,10.5 C 55.7797,13.9412 58.2797,16.2745 62,17.5C 62.8601,20.4782 61.6934,21.8116 58.5,21.5C 54.6563,20.0776 50.6563,19.0776 46.5,18.5C 44.5648,17.8505 42.5648,17.5172 40.5,17.5C 40.5,17.1667 40.5,16.8333 40.5,16.5C 38.9581,15.8365 37.2914,15.1698 35.5,14.5C 36.3094,12.9291 36.6427,11.2624 36.5,9.5C 42.5164,9.59251 48.5164,9.92584 54.5,10.5 Z"/></g>
<g><path style="opacity:0.682" fill="#cdc581" d="M 72.5,19.5 C 71.5,20.8333 70.5,20.8333 69.5,19.5C 68.1667,18.5 66.8333,17.5 65.5,16.5C 63.9468,14.615 61.9468,13.615 59.5,13.5C 58.5994,11.2729 56.9328,10.2729 54.5,10.5C 48.5164,9.92584 42.5164,9.59251 36.5,9.5C 36.6427,11.2624 36.3094,12.9291 35.5,14.5C 37.2914,15.1698 38.9581,15.8365 40.5,16.5C 38.1432,16.6633 35.8098,16.4966 33.5,16C 34.1667,14.6667 34.8333,13.3333 35.5,12C 33.6992,11.6827 33.3659,11.016 34.5,10C 33.0494,10.2626 31.7161,10.0959 30.5,9.5C 30.8627,8.81654 31.1961,8.14987 31.5,7.5C 47.8548,2.69633 61.5214,6.69633 72.5,19.5 Z"/></g>
<g><path style="opacity:1" fill="#c9a468" d="M 31.5,7.5 C 31.1961,8.14987 30.8627,8.81654 30.5,9.5C 31.7161,10.0959 33.0494,10.2626 34.5,10C 33.3659,11.016 33.6992,11.6827 35.5,12C 34.8333,13.3333 34.1667,14.6667 33.5,16C 35.8098,16.4966 38.1432,16.6633 40.5,16.5C 40.5,16.8333 40.5,17.1667 40.5,17.5C 38.5,17.5 36.5,17.5 34.5,17.5C 32.8235,16.8166 32.1568,15.4832 32.5,13.5C 30.7839,13.3713 29.1172,13.038 27.5,12.5C 26.8333,12.5 26.1667,12.5 25.5,12.5C 25.5,11.8333 25.5,11.1667 25.5,10.5C 27.1815,8.99249 29.1815,7.99249 31.5,7.5 Z"/></g>
<g><path style="opacity:1" fill="#b06248" d="M 25.5,12.5 C 26.1667,12.5 26.8333,12.5 27.5,12.5C 27.9737,15.0131 28.307,17.5131 28.5,20C 26.9221,21.0945 25.2554,21.9278 23.5,22.5C 22.8333,22.5 22.1667,22.5 21.5,22.5C 18.8669,17.7476 20.2002,14.4142 25.5,12.5 Z"/></g>
<g><path style="opacity:0.729" fill="#a96e61" d="M 25.5,10.5 C 25.5,11.1667 25.5,11.8333 25.5,12.5C 20.2002,14.4142 18.8669,17.7476 21.5,22.5C 20.5,22.5 19.5,22.5 18.5,22.5C 17.8333,22.1667 17.1667,21.8333 16.5,21.5C 17.6964,16.3083 20.6964,12.6417 25.5,10.5 Z"/></g>
<g><path style="opacity:1" fill="#c7c96d" d="M 59.5,13.5 C 61.9468,13.615 63.9468,14.615 65.5,16.5C 69.9723,24.2701 70.4723,32.2701 67,40.5C 62.9072,45.442 57.7405,48.442 51.5,49.5C 50.8333,49.5 50.5,49.1667 50.5,48.5C 54.4716,45.1458 58.1383,41.3125 61.5,37C 60.6195,36.2917 59.9528,35.4584 59.5,34.5C 61.3002,33.5266 63.1335,32.5266 65,31.5C 65.1667,30.1667 65.3333,28.8333 65.5,27.5C 64.4418,23.8804 63.6085,20.2138 63,16.5C 61.8549,15.3636 60.6883,14.3636 59.5,13.5 Z"/></g>
<g><path style="opacity:1" fill="#af754b" d="M 27.5,12.5 C 29.1172,13.038 30.7839,13.3713 32.5,13.5C 32.1568,15.4832 32.8235,16.8166 34.5,17.5C 32.0156,19.5452 31.0156,22.2118 31.5,25.5C 29.6208,24.6586 27.6208,24.3253 25.5,24.5C 24.5,24.1667 23.8333,23.5 23.5,22.5C 25.2554,21.9278 26.9221,21.0945 28.5,20C 28.307,17.5131 27.9737,15.0131 27.5,12.5 Z"/></g>
<g><path style="opacity:1" fill="#ddd374" d="M 54.5,10.5 C 56.9328,10.2729 58.5994,11.2729 59.5,13.5C 60.6883,14.3636 61.8549,15.3636 63,16.5C 63.6085,20.2138 64.4418,23.8804 65.5,27.5C 65.3333,28.8333 65.1667,30.1667 65,31.5C 63.1335,32.5266 61.3002,33.5266 59.5,34.5C 56.6726,34.5838 54.006,35.2504 51.5,36.5C 54.7561,33.7664 58.4228,31.5997 62.5,30C 63.4061,28.3005 63.7394,26.4672 63.5,24.5C 59.1539,24.3343 54.8206,24.501 50.5,25C 49.5842,25.2784 48.9175,25.7784 48.5,26.5C 47.5,26.5 46.5,26.5 45.5,26.5C 47.6502,24.0775 47.9835,21.4109 46.5,18.5C 50.6563,19.0776 54.6563,20.0776 58.5,21.5C 61.6934,21.8116 62.8601,20.4782 62,17.5C 58.2797,16.2745 55.7797,13.9412 54.5,10.5 Z"/></g>
<g><path style="opacity:1" fill="#4e4126" d="M 34.5,17.5 C 36.5,17.5 38.5,17.5 40.5,17.5C 41.1667,18.1667 41.8333,18.8333 42.5,19.5C 40.9519,19.8212 40.2852,20.8212 40.5,22.5C 39.1667,22.5 37.8333,22.5 36.5,22.5C 36.3444,18.8649 35.1777,18.5315 33,21.5C 32.5099,23.5454 32.6765,25.5454 33.5,27.5C 32.5,27.1667 31.8333,26.5 31.5,25.5C 31.0156,22.2118 32.0156,19.5452 34.5,17.5 Z"/></g>
<g><path style="opacity:1" fill="#282115" d="M 42.5,19.5 C 44.0021,23.1363 43.3355,26.4697 40.5,29.5C 38.4727,29.6621 36.4727,29.4955 34.5,29C 33.944,28.6174 33.6107,28.1174 33.5,27.5C 32.6765,25.5454 32.5099,23.5454 33,21.5C 35.1777,18.5315 36.3444,18.8649 36.5,22.5C 37.8333,22.5 39.1667,22.5 40.5,22.5C 40.2852,20.8212 40.9519,19.8212 42.5,19.5 Z"/></g>
<g><path style="opacity:1" fill="#b0a25f" d="M 40.5,17.5 C 42.5648,17.5172 44.5648,17.8505 46.5,18.5C 47.9835,21.4109 47.6502,24.0775 45.5,26.5C 44.078,27.925 42.4113,28.925 40.5,29.5C 43.3355,26.4697 44.0021,23.1363 42.5,19.5C 41.8333,18.8333 41.1667,18.1667 40.5,17.5 Z"/></g>
<g><path style="opacity:1" fill="#4b4b4b" d="M 18.5,22.5 C 19.5,22.5 20.5,22.5 21.5,22.5C 21.3284,23.4916 21.6618,24.1583 22.5,24.5C 22.6602,26.1992 22.4935,27.8659 22,29.5C 19.8995,30.9245 17.7328,32.2578 15.5,33.5C 12.7891,40.4591 15.1224,43.1257 22.5,41.5C 22.0269,42.9063 21.0269,43.573 19.5,43.5C 16.6755,43.9193 14.5088,42.9193 13,40.5C 13.3626,38.2842 13.1959,36.1176 12.5,34C 11.8235,32.3167 10.8235,32.1501 9.5,33.5C 10.9148,29.515 13.5815,26.6817 17.5,25C 18.2524,24.3292 18.5858,23.4959 18.5,22.5 Z"/></g>
<g><path style="opacity:1" fill="#7b7553" d="M 21.5,22.5 C 22.1667,22.5 22.8333,22.5 23.5,22.5C 23.8333,23.5 24.5,24.1667 25.5,24.5C 24.5325,27.4453 24.3658,30.4453 25,33.5C 27.7971,38.74 30.2971,44.0733 32.5,49.5C 29.7081,49.5479 27.8747,48.2146 27,45.5C 26.5045,43.5273 26.3379,41.5273 26.5,39.5C 25.6091,38.7387 24.9424,37.7387 24.5,36.5C 23.9597,32.3388 23.293,28.3388 22.5,24.5C 21.6618,24.1583 21.3284,23.4916 21.5,22.5 Z"/></g>
<g><path style="opacity:1" fill="#e6dc7e" d="M 51.5,36.5 C 48.384,37.0754 45.2174,37.4087 42,37.5C 36.9718,37.5163 32.1384,36.8496 27.5,35.5C 26.3511,32.9592 26.3511,30.4592 27.5,28C 28.8333,27.3333 30.1667,27.3333 31.5,28C 34.232,30.6033 37.232,31.1033 40.5,29.5C 42.4113,28.925 44.078,27.925 45.5,26.5C 45.4894,28.0174 44.8228,29.1841 43.5,30C 39.9007,31.3053 37.5674,33.3053 36.5,36C 40.1667,36.6667 43.8333,36.6667 47.5,36C 50.434,33.5393 53.434,31.3726 56.5,29.5C 56.6567,28.1266 56.49,26.7932 56,25.5C 53.6194,26.435 51.1194,26.7683 48.5,26.5C 48.9175,25.7784 49.5842,25.2784 50.5,25C 54.8206,24.501 59.1539,24.3343 63.5,24.5C 63.7394,26.4672 63.4061,28.3005 62.5,30C 58.4228,31.5997 54.7561,33.7664 51.5,36.5 Z"/></g>
<g><path style="opacity:1" fill="#f3eb84" d="M 45.5,26.5 C 46.5,26.5 47.5,26.5 48.5,26.5C 51.1194,26.7683 53.6194,26.435 56,25.5C 56.49,26.7932 56.6567,28.1266 56.5,29.5C 53.434,31.3726 50.434,33.5393 47.5,36C 43.8333,36.6667 40.1667,36.6667 36.5,36C 37.5674,33.3053 39.9007,31.3053 43.5,30C 44.8228,29.1841 45.4894,28.0174 45.5,26.5 Z"/></g>
<g><path style="opacity:0.52" fill="#544d56" d="M 16.5,21.5 C 17.1667,21.8333 17.8333,22.1667 18.5,22.5C 18.5858,23.4959 18.2524,24.3292 17.5,25C 13.5815,26.6817 10.9148,29.515 9.5,33.5C 8.88258,33.6107 8.38258,33.944 8,34.5C 7.28693,41.203 7.4536,47.8697 8.5,54.5C 10.7468,54.0847 12.9135,53.4181 15,52.5C 17.3987,52.6132 19.2321,53.6132 20.5,55.5C 18.2543,54.5448 15.921,53.8782 13.5,53.5C 13.838,56.1569 13.1713,58.4902 11.5,60.5C 8.04704,57.3346 6.21371,53.3346 6,48.5C 5.04867,42.6267 5.71534,36.96 8,31.5C 10.6686,28.0003 13.502,24.667 16.5,21.5 Z"/></g>
<g><path style="opacity:1" fill="#d4c770" d="M 59.5,34.5 C 59.9528,35.4584 60.6195,36.2917 61.5,37C 58.1383,41.3125 54.4716,45.1458 50.5,48.5C 49.5084,48.6716 48.8417,48.3382 48.5,47.5C 49.164,44.9854 50.4974,42.8187 52.5,41C 52.1667,40.6667 51.8333,40.3333 51.5,40C 43.9516,41.2116 36.6182,40.3783 29.5,37.5C 28.8333,36.8333 28.1667,36.1667 27.5,35.5C 32.1384,36.8496 36.9718,37.5163 42,37.5C 45.2174,37.4087 48.384,37.0754 51.5,36.5C 54.006,35.2504 56.6726,34.5838 59.5,34.5 Z"/></g>
<g><path style="opacity:1" fill="#404241" d="M 19.5,43.5 C 19.0825,44.2216 18.4158,44.7216 17.5,45C 19.1922,46.4007 19.8588,48.2341 19.5,50.5C 20.9305,50.4208 22.2638,50.7542 23.5,51.5C 24.3636,53.1965 25.6969,54.3632 27.5,55C 25.5273,55.4955 23.5273,55.6621 21.5,55.5C 21.1667,55.5 20.8333,55.5 20.5,55.5C 19.2321,53.6132 17.3987,52.6132 15,52.5C 12.9135,53.4181 10.7468,54.0847 8.5,54.5C 7.4536,47.8697 7.28693,41.203 8,34.5C 8.38258,33.944 8.88258,33.6107 9.5,33.5C 10.8235,32.1501 11.8235,32.3167 12.5,34C 13.1959,36.1176 13.3626,38.2842 13,40.5C 14.5088,42.9193 16.6755,43.9193 19.5,43.5 Z"/></g>
<g><path style="opacity:1" fill="#809155" d="M 73.5,20.5 C 80.0027,31.5088 87.0027,42.1755 94.5,52.5C 92.7615,53.4339 91.0948,53.4339 89.5,52.5C 86.5085,49.3386 83.6752,46.0053 81,42.5C 78.3188,35.5369 75.1521,28.8702 71.5,22.5C 71.8555,21.4777 72.5222,20.811 73.5,20.5 Z"/></g>
<g><path style="opacity:1" fill="#5e615a" d="M 22.5,24.5 C 23.293,28.3388 23.9597,32.3388 24.5,36.5C 24.9424,37.7387 25.6091,38.7387 26.5,39.5C 24.8007,39.5271 23.4674,40.1938 22.5,41.5C 15.1224,43.1257 12.7891,40.4591 15.5,33.5C 17.7328,32.2578 19.8995,30.9245 22,29.5C 22.4935,27.8659 22.6602,26.1992 22.5,24.5 Z"/></g>
<g><path style="opacity:1" fill="#c2ad61" d="M 29.5,37.5 C 36.6182,40.3783 43.9516,41.2116 51.5,40C 51.8333,40.3333 52.1667,40.6667 52.5,41C 50.4974,42.8187 49.164,44.9854 48.5,47.5C 47.8333,47.8333 47.1667,48.1667 46.5,48.5C 44.5,48.5 42.5,48.5 40.5,48.5C 40.5,47.1667 40.5,45.8333 40.5,44.5C 37.5444,43.5148 34.5444,42.5148 31.5,41.5C 30.8201,40.1401 30.1534,38.8068 29.5,37.5 Z"/></g>
<g><path style="opacity:1" fill="#97b053" d="M 71.5,36.5 C 71.2756,41.0586 71.9423,45.3919 73.5,49.5C 76.1656,49.933 78.8323,50.433 81.5,51C 84.1258,53.1457 87.1258,54.479 90.5,55C 92.0931,55.9487 93.4264,57.1154 94.5,58.5C 90.9581,58.8128 87.6248,58.4794 84.5,57.5C 83.9423,56.2101 82.9423,55.3768 81.5,55C 75.5371,53.5079 69.5371,52.3412 63.5,51.5C 63.3893,50.8826 63.056,50.3826 62.5,50C 65.7856,45.5745 68.7856,41.0745 71.5,36.5 Z"/></g>
<g><path style="opacity:1" fill="#a99757" d="M 25.5,24.5 C 27.6208,24.3253 29.6208,24.6586 31.5,25.5C 31.8333,26.5 32.5,27.1667 33.5,27.5C 33.6107,28.1174 33.944,28.6174 34.5,29C 36.4727,29.4955 38.4727,29.6621 40.5,29.5C 37.232,31.1033 34.232,30.6033 31.5,28C 30.1667,27.3333 28.8333,27.3333 27.5,28C 26.3511,30.4592 26.3511,32.9592 27.5,35.5C 28.1667,36.1667 28.8333,36.8333 29.5,37.5C 30.1534,38.8068 30.8201,40.1401 31.5,41.5C 34.5444,42.5148 37.5444,43.5148 40.5,44.5C 40.5,45.8333 40.5,47.1667 40.5,48.5C 42.5,48.5 44.5,48.5 46.5,48.5C 46.6716,49.4916 46.3382,50.1583 45.5,50.5C 43.8333,50.5 42.1667,50.5 40.5,50.5C 39.1667,50.5 37.8333,50.5 36.5,50.5C 35.8333,50.5 35.1667,50.5 34.5,50.5C 34.1583,49.6618 33.4916,49.3284 32.5,49.5C 30.2971,44.0733 27.7971,38.74 25,33.5C 24.3658,30.4453 24.5325,27.4453 25.5,24.5 Z"/></g>
<g><path style="opacity:1" fill="#a5b559" d="M 65.5,16.5 C 66.8333,17.5 68.1667,18.5 69.5,19.5C 69.1505,22.0448 69.9838,24.0448 72,25.5C 72.8099,29.3575 72.6433,33.0242 71.5,36.5C 68.7856,41.0745 65.7856,45.5745 62.5,50C 63.056,50.3826 63.3893,50.8826 63.5,51.5C 62.735,52.6602 61.735,53.6602 60.5,54.5C 59.1502,53.0499 57.4835,52.3832 55.5,52.5C 53.8784,51.8776 52.5451,50.8776 51.5,49.5C 57.7405,48.442 62.9072,45.442 67,40.5C 70.4723,32.2701 69.9723,24.2701 65.5,16.5 Z"/></g>
<g><path style="opacity:1" fill="#899f4f" d="M 69.5,19.5 C 70.5,20.8333 71.5,20.8333 72.5,19.5C 73.1667,19.5 73.5,19.8333 73.5,20.5C 72.5222,20.811 71.8555,21.4777 71.5,22.5C 75.1521,28.8702 78.3188,35.5369 81,42.5C 83.6752,46.0053 86.5085,49.3386 89.5,52.5C 91.0948,53.4339 92.7615,53.4339 94.5,52.5C 95.1667,52.5 95.5,52.8333 95.5,53.5C 94.9569,53.56 94.6236,53.8933 94.5,54.5C 95.9524,55.9397 96.9524,57.6064 97.5,59.5C 96.391,59.4431 95.391,59.1098 94.5,58.5C 93.4264,57.1154 92.0931,55.9487 90.5,55C 87.1258,54.479 84.1258,53.1457 81.5,51C 78.8323,50.433 76.1656,49.933 73.5,49.5C 71.9423,45.3919 71.2756,41.0586 71.5,36.5C 72.6433,33.0242 72.8099,29.3575 72,25.5C 69.9838,24.0448 69.1505,22.0448 69.5,19.5 Z"/></g>
<g><path style="opacity:1" fill="#484c45" d="M 26.5,39.5 C 26.3379,41.5273 26.5045,43.5273 27,45.5C 27.8747,48.2146 29.7081,49.5479 32.5,49.5C 33.4025,52.3915 33.7359,55.3915 33.5,58.5C 29.6009,56.9808 25.6009,55.9808 21.5,55.5C 23.5273,55.6621 25.5273,55.4955 27.5,55C 25.6969,54.3632 24.3636,53.1965 23.5,51.5C 22.2638,50.7542 20.9305,50.4208 19.5,50.5C 19.8588,48.2341 19.1922,46.4007 17.5,45C 18.4158,44.7216 19.0825,44.2216 19.5,43.5C 21.0269,43.573 22.0269,42.9063 22.5,41.5C 23.4674,40.1938 24.8007,39.5271 26.5,39.5 Z"/></g>
<g><path style="opacity:1" fill="#a7c05d" d="M 84.5,57.5 C 87.6248,58.4794 90.9581,58.8128 94.5,58.5C 95.391,59.1098 96.391,59.4431 97.5,59.5C 98.1667,60.1667 98.8333,60.8333 99.5,61.5C 91.6464,61.108 83.813,60.4413 76,59.5C 73.5,59.6667 71,59.8333 68.5,60C 67.944,60.3826 67.6107,60.8826 67.5,61.5C 63.4273,62.587 61.7606,65.2536 62.5,69.5C 60.9667,65.3925 61.8001,61.7258 65,58.5C 65.414,58.9574 65.914,59.2907 66.5,59.5C 68.7721,58.5589 70.7721,57.2255 72.5,55.5C 76.469,56.3296 80.469,56.9963 84.5,57.5 Z"/></g>
<g><path style="opacity:1" fill="#9eb859" d="M 63.5,51.5 C 69.5371,52.3412 75.5371,53.5079 81.5,55C 82.9423,55.3768 83.9423,56.2101 84.5,57.5C 80.469,56.9963 76.469,56.3296 72.5,55.5C 70.7721,57.2255 68.7721,58.5589 66.5,59.5C 65.914,59.2907 65.414,58.9574 65,58.5C 61.8001,61.7258 60.9667,65.3925 62.5,69.5C 63.1667,70.8333 63.8333,72.1667 64.5,73.5C 65.0115,76.0215 66.0115,78.3549 67.5,80.5C 65.2512,79.9202 63.5846,78.5869 62.5,76.5C 62.5531,73.9394 61.5531,71.9394 59.5,70.5C 58.7348,66.6752 58.0681,62.8419 57.5,59C 57.6448,58.228 57.9781,57.5613 58.5,57C 57.252,55.6003 56.252,54.1003 55.5,52.5C 57.4835,52.3832 59.1502,53.0499 60.5,54.5C 61.735,53.6602 62.735,52.6602 63.5,51.5 Z"/></g>
<g><path style="opacity:1" fill="#c9e374" d="M 82.5,61.5 C 82.8333,61.5 83.1667,61.5 83.5,61.5C 86.8239,63.1673 89.8239,65.3339 92.5,68C 90.5679,69.9718 90.0679,72.1384 91,74.5C 89.9887,75.3366 88.8221,75.67 87.5,75.5C 83.8953,73.6977 80.2287,71.8643 76.5,70C 75.5939,68.3005 75.2606,66.4672 75.5,64.5C 73.5714,64.7692 71.9047,64.2692 70.5,63C 74.3628,61.6463 78.3628,61.1463 82.5,61.5 Z"/></g>
<g><path style="opacity:1" fill="#bbd16e" d="M 99.5,61.5 C 106.455,66.4534 113.122,71.7867 119.5,77.5C 118.5,77.5 117.5,77.5 116.5,77.5C 115.067,76.1667 113.733,74.6667 112.5,73C 109.933,70.9031 106.933,69.5698 103.5,69C 98.1132,63.5284 91.4466,61.0284 83.5,61.5C 83.1667,61.5 82.8333,61.5 82.5,61.5C 77.6309,60.2492 72.6309,60.2492 67.5,61.5C 67.6107,60.8826 67.944,60.3826 68.5,60C 71,59.8333 73.5,59.6667 76,59.5C 83.813,60.4413 91.6464,61.108 99.5,61.5 Z"/></g>
<g><path style="opacity:1" fill="#90a854" d="M 48.5,47.5 C 48.8417,48.3382 49.5084,48.6716 50.5,48.5C 50.5,49.1667 50.8333,49.5 51.5,49.5C 52.5451,50.8776 53.8784,51.8776 55.5,52.5C 56.252,54.1003 57.252,55.6003 58.5,57C 57.9781,57.5613 57.6448,58.228 57.5,59C 58.0681,62.8419 58.7348,66.6752 59.5,70.5C 61.5531,71.9394 62.5531,73.9394 62.5,76.5C 61.375,77.3478 61.375,78.3478 62.5,79.5C 60.9878,77.6833 58.9878,76.6833 56.5,76.5C 55.329,72.4823 55.329,68.4823 56.5,64.5C 54.4912,61.8126 53.1579,58.8126 52.5,55.5C 49.2685,54.9143 46.9351,53.2477 45.5,50.5C 46.3382,50.1583 46.6716,49.4916 46.5,48.5C 47.1667,48.1667 47.8333,47.8333 48.5,47.5 Z"/></g>
<g><path style="opacity:1" fill="#bfd76d" d="M 66.5,63.5 C 66.162,66.1569 66.8287,68.4902 68.5,70.5C 73.0055,72.2546 77.3388,74.2546 81.5,76.5C 84.2683,80.4439 87.935,81.4439 92.5,79.5C 96.1156,79.7513 99.449,80.7513 102.5,82.5C 106.779,81.726 111.113,81.226 115.5,81C 116.337,79.9887 116.67,78.8221 116.5,77.5C 117.5,77.5 118.5,77.5 119.5,77.5C 119.064,79.7463 118.397,81.9129 117.5,84C 119.047,84.3334 120.38,83.8334 121.5,82.5C 123.55,83.0766 124.55,84.4099 124.5,86.5C 119.972,86.0381 115.472,85.3714 111,84.5C 106.802,86.0571 102.802,85.7238 99,83.5C 95.0836,84.3548 91.2503,84.6881 87.5,84.5C 80.638,80.9056 73.9713,77.0723 67.5,73C 65.4081,69.8897 65.0748,66.723 66.5,63.5 Z"/></g>
<g><path style="opacity:1" fill="#c4de6f" d="M 82.5,61.5 C 78.3628,61.1463 74.3628,61.6463 70.5,63C 71.9047,64.2692 73.5714,64.7692 75.5,64.5C 75.2606,66.4672 75.5939,68.3005 76.5,70C 80.2287,71.8643 83.8953,73.6977 87.5,75.5C 85.7354,76.4614 83.7354,76.7947 81.5,76.5C 77.3388,74.2546 73.0055,72.2546 68.5,70.5C 66.8287,68.4902 66.162,66.1569 66.5,63.5C 66.8333,62.8333 67.1667,62.1667 67.5,61.5C 72.6309,60.2492 77.6309,60.2492 82.5,61.5 Z"/></g>
<g><path style="opacity:1" fill="#c4de6f" d="M 83.5,61.5 C 91.4466,61.0284 98.1132,63.5284 103.5,69C 106.933,69.5698 109.933,70.9031 112.5,73C 113.733,74.6667 115.067,76.1667 116.5,77.5C 116.67,78.8221 116.337,79.9887 115.5,81C 111.113,81.226 106.779,81.726 102.5,82.5C 99.449,80.7513 96.1156,79.7513 92.5,79.5C 87.935,81.4439 84.2683,80.4439 81.5,76.5C 83.7354,76.7947 85.7354,76.4614 87.5,75.5C 88.8221,75.67 89.9887,75.3366 91,74.5C 90.0679,72.1384 90.5679,69.9718 92.5,68C 89.8239,65.3339 86.8239,63.1673 83.5,61.5 Z"/></g>
<g><path style="opacity:1" fill="#4e6234" d="M 34.5,50.5 C 35.1667,50.5 35.8333,50.5 36.5,50.5C 36.8333,51.1667 37.1667,51.8333 37.5,52.5C 40.1277,57.0767 42.7944,61.7433 45.5,66.5C 48.5665,80.3926 52.3998,94.0593 57,107.5C 59.2054,109.586 61.372,111.586 63.5,113.5C 64.1667,113.833 64.8333,114.167 65.5,114.5C 65.5,115.167 65.5,115.833 65.5,116.5C 59.4648,114.128 55.4648,109.795 53.5,103.5C 52.675,102.614 51.675,102.281 50.5,102.5C 51.1562,96.8258 49.8229,91.8258 46.5,87.5C 46.5859,81.5744 44.9192,76.2411 41.5,71.5C 42.7662,68.7759 42.5996,66.1092 41,63.5C 36.7982,60.1455 34.6316,55.8122 34.5,50.5 Z"/></g>
<g><path style="opacity:0.961" fill="#afbc79" d="M 95.5,53.5 C 103.763,60.3146 112.096,67.1479 120.5,74C 123.447,76.4356 125.78,79.2689 127.5,82.5C 126.833,82.5 126.5,82.8333 126.5,83.5C 124.167,81.5 121.833,79.5 119.5,77.5C 113.122,71.7867 106.455,66.4534 99.5,61.5C 98.8333,60.8333 98.1667,60.1667 97.5,59.5C 96.9524,57.6064 95.9524,55.9397 94.5,54.5C 94.6236,53.8933 94.9569,53.56 95.5,53.5 Z"/></g>
<g><path style="opacity:1" fill="#80984e" d="M 40.5,50.5 C 42.1667,50.5 43.8333,50.5 45.5,50.5C 46.9351,53.2477 49.2685,54.9143 52.5,55.5C 53.1579,58.8126 54.4912,61.8126 56.5,64.5C 55.329,68.4823 55.329,72.4823 56.5,76.5C 58.9878,76.6833 60.9878,77.6833 62.5,79.5C 62.5,80.1667 62.5,80.8333 62.5,81.5C 64.5938,84.097 65.9271,87.097 66.5,90.5C 64.2919,88.8571 62.4585,89.1904 61,91.5C 58.9212,88.676 57.4212,85.676 56.5,82.5C 55.5416,82.0472 54.7083,81.3805 54,80.5C 53.0732,73.4152 51.7399,66.4152 50,59.5C 47.3206,55.9239 44.1539,52.9239 40.5,50.5 Z"/></g>
<g><path style="opacity:1" fill="#586f39" d="M 37.5,52.5 C 41.0198,53.1828 43.5198,55.1828 45,58.5C 46.9434,68.159 49.7767,77.4924 53.5,86.5C 54.1925,90.8415 55.0259,95.1748 56,99.5C 57.7996,104.78 60.2996,109.446 63.5,113.5C 61.372,111.586 59.2054,109.586 57,107.5C 52.3998,94.0593 48.5665,80.3926 45.5,66.5C 42.7944,61.7433 40.1277,57.0767 37.5,52.5 Z"/></g>
<g><path style="opacity:1" fill="#b2c86a" d="M 64.5,73.5 C 65.4959,73.4142 66.3292,73.7476 67,74.5C 67.3095,75.7659 67.8095,76.9326 68.5,78C 74.6027,78.9549 79.9361,81.4549 84.5,85.5C 88.0237,87.0035 91.6903,88.0035 95.5,88.5C 93.2156,89.0292 91.2156,90.0292 89.5,91.5C 82.1252,87.8126 74.7919,84.1459 67.5,80.5C 66.0115,78.3549 65.0115,76.0215 64.5,73.5 Z"/></g>
<g><path style="opacity:0.981" fill="#525f3f" d="M 32.5,49.5 C 33.4916,49.3284 34.1583,49.6618 34.5,50.5C 34.6316,55.8122 36.7982,60.1455 41,63.5C 42.5996,66.1092 42.7662,68.7759 41.5,71.5C 44.9192,76.2411 46.5859,81.5744 46.5,87.5C 47.2905,94.9026 48.2905,102.236 49.5,109.5C 49.5,110.5 49.5,111.5 49.5,112.5C 48.3995,110.723 47.5662,108.723 47,106.5C 44.5594,94.8566 42.226,83.1899 40,71.5C 38.8742,66.5817 36.7075,62.2483 33.5,58.5C 33.7359,55.3915 33.4025,52.3915 32.5,49.5 Z"/></g>
<g><path style="opacity:1" fill="#6d8545" d="M 36.5,50.5 C 37.8333,50.5 39.1667,50.5 40.5,50.5C 44.1539,52.9239 47.3206,55.9239 50,59.5C 51.7399,66.4152 53.0732,73.4152 54,80.5C 54.7083,81.3805 55.5416,82.0472 56.5,82.5C 56.5,84.5 56.5,86.5 56.5,88.5C 55.7777,87.4489 54.7777,86.7822 53.5,86.5C 49.7767,77.4924 46.9434,68.159 45,58.5C 43.5198,55.1828 41.0198,53.1828 37.5,52.5C 37.1667,51.8333 36.8333,51.1667 36.5,50.5 Z"/></g>
<g><path style="opacity:1" fill="#778e4c" d="M 56.5,82.5 C 57.4212,85.676 58.9212,88.676 61,91.5C 62.4585,89.1904 64.2919,88.8571 66.5,90.5C 70.9525,95.221 75.9525,99.221 81.5,102.5C 81.5,102.833 81.5,103.167 81.5,103.5C 76.1947,100.178 70.8614,96.8442 65.5,93.5C 65.1667,94 64.8333,94.5 64.5,95C 65.114,97.8541 65.7807,100.687 66.5,103.5C 65.1916,104.626 63.8583,104.626 62.5,103.5C 61.5016,100.026 59.6682,97.0256 57,94.5C 56.5045,92.5273 56.3379,90.5273 56.5,88.5C 56.5,86.5 56.5,84.5 56.5,82.5 Z"/></g>
<g><path style="opacity:1" fill="#b9d06b" d="M 67.5,61.5 C 67.1667,62.1667 66.8333,62.8333 66.5,63.5C 65.0748,66.723 65.4081,69.8897 67.5,73C 73.9713,77.0723 80.638,80.9056 87.5,84.5C 91.2503,84.6881 95.0836,84.3548 99,83.5C 102.802,85.7238 106.802,86.0571 111,84.5C 115.472,85.3714 119.972,86.0381 124.5,86.5C 126.549,86.7058 126.883,87.5391 125.5,89C 118.167,89.6667 110.833,89.6667 103.5,89C 100.859,88.6772 98.5252,87.6772 96.5,86C 92.5138,85.5012 88.5138,85.3345 84.5,85.5C 79.9361,81.4549 74.6027,78.9549 68.5,78C 67.8095,76.9326 67.3095,75.7659 67,74.5C 66.3292,73.7476 65.4959,73.4142 64.5,73.5C 63.8333,72.1667 63.1667,70.8333 62.5,69.5C 61.7606,65.2536 63.4273,62.587 67.5,61.5 Z"/></g>
<g><path style="opacity:1" fill="#b7cd6b" d="M 119.5,77.5 C 121.833,79.5 124.167,81.5 126.5,83.5C 127.073,86.903 128.406,89.903 130.5,92.5C 125.816,91.7976 121.149,91.4642 116.5,91.5C 114.817,92.5921 112.984,93.2587 111,93.5C 107.519,92.8773 104.019,92.3773 100.5,92C 98.6536,90.9702 96.9869,89.8036 95.5,88.5C 91.6903,88.0035 88.0237,87.0035 84.5,85.5C 88.5138,85.3345 92.5138,85.5012 96.5,86C 98.5252,87.6772 100.859,88.6772 103.5,89C 110.833,89.6667 118.167,89.6667 125.5,89C 126.883,87.5391 126.549,86.7058 124.5,86.5C 124.55,84.4099 123.55,83.0766 121.5,82.5C 120.38,83.8334 119.047,84.3334 117.5,84C 118.397,81.9129 119.064,79.7463 119.5,77.5 Z"/></g>
<g><path style="opacity:1" fill="#b3c464" d="M 95.5,88.5 C 96.9869,89.8036 98.6536,90.9702 100.5,92C 104.019,92.3773 107.519,92.8773 111,93.5C 112.984,93.2587 114.817,92.5921 116.5,91.5C 121.149,91.4642 125.816,91.7976 130.5,92.5C 130.5,93.5 130.5,94.5 130.5,95.5C 131.552,95.3505 132.552,95.5172 133.5,96C 121.692,98.582 110.025,97.7486 98.5,93.5C 95.4606,92.99 92.4606,92.3234 89.5,91.5C 91.2156,90.0292 93.2156,89.0292 95.5,88.5 Z"/></g>
<g><path style="opacity:1" fill="#8b9f52" d="M 62.5,81.5 C 67.1708,85.6703 71.5042,90.1703 75.5,95C 78.1013,95.9203 80.7679,96.587 83.5,97C 84.7811,98.4087 85.7811,99.9087 86.5,101.5C 87.312,104.275 88.9787,106.442 91.5,108C 91.2716,108.399 90.9382,108.565 90.5,108.5C 87.5178,106.526 84.5178,104.526 81.5,102.5C 75.9525,99.221 70.9525,95.221 66.5,90.5C 65.9271,87.097 64.5938,84.097 62.5,81.5 Z"/></g>
<g><path style="opacity:1" fill="#9aad5a" d="M 62.5,76.5 C 63.5846,78.5869 65.2512,79.9202 67.5,80.5C 67.3832,82.4835 68.0499,84.1502 69.5,85.5C 72.0698,86.6343 74.7365,87.4677 77.5,88C 80.3376,90.2515 83.3376,92.2515 86.5,94C 88.2502,97.5853 90.5835,100.752 93.5,103.5C 93.6567,104.873 93.49,106.207 93,107.5C 90.9633,105.294 88.7966,103.294 86.5,101.5C 85.7811,99.9087 84.7811,98.4087 83.5,97C 80.7679,96.587 78.1013,95.9203 75.5,95C 71.5042,90.1703 67.1708,85.6703 62.5,81.5C 62.5,80.8333 62.5,80.1667 62.5,79.5C 61.375,78.3478 61.375,77.3478 62.5,76.5 Z"/></g>
<g><path style="opacity:1" fill="#b2bd60" d="M 127.5,82.5 C 127.892,84.1789 128.392,85.8455 129,87.5C 133.99,92.8328 138.49,98.4995 142.5,104.5C 131.256,104.547 119.923,104.713 108.5,105C 104.938,106.679 101.605,106.513 98.5,104.5C 99.259,102.564 100.259,100.731 101.5,99C 99.8881,97.518 98.8881,95.6847 98.5,93.5C 110.025,97.7486 121.692,98.582 133.5,96C 132.552,95.5172 131.552,95.3505 130.5,95.5C 130.5,94.5 130.5,93.5 130.5,92.5C 128.406,89.903 127.073,86.903 126.5,83.5C 126.5,82.8333 126.833,82.5 127.5,82.5 Z"/></g>
<g><path style="opacity:1" fill="#a9b85f" d="M 67.5,80.5 C 74.7919,84.1459 82.1252,87.8126 89.5,91.5C 92.4606,92.3234 95.4606,92.99 98.5,93.5C 98.8881,95.6847 99.8881,97.518 101.5,99C 100.259,100.731 99.259,102.564 98.5,104.5C 97.5416,104.047 96.7083,103.381 96,102.5C 95.3292,103.252 94.4959,103.586 93.5,103.5C 90.5835,100.752 88.2502,97.5853 86.5,94C 83.3376,92.2515 80.3376,90.2515 77.5,88C 74.7365,87.4677 72.0698,86.6343 69.5,85.5C 68.0499,84.1502 67.3832,82.4835 67.5,80.5 Z"/></g>
<g><path style="opacity:0.23" fill="#bec17b" d="M 127.5,82.5 C 136.609,91.6098 144.609,101.61 151.5,112.5C 150.391,112.443 149.391,112.11 148.5,111.5C 147.483,109.089 145.816,107.422 143.5,106.5C 143.167,105.833 142.833,105.167 142.5,104.5C 138.49,98.4995 133.99,92.8328 129,87.5C 128.392,85.8455 127.892,84.1789 127.5,82.5 Z"/></g>
<g><path style="opacity:1" fill="#6f8343" d="M 81.5,103.5 C 82.9331,105.558 83.5997,107.892 83.5,110.5C 80.0012,107.834 77.0012,104.667 74.5,101C 72.26,100.023 69.9267,99.523 67.5,99.5C 67.9143,102.743 68.9143,105.743 70.5,108.5C 71.1495,110.435 71.4828,112.435 71.5,114.5C 69.8561,114.714 68.3561,114.38 67,113.5C 65.014,110.371 63.514,107.038 62.5,103.5C 63.8583,104.626 65.1916,104.626 66.5,103.5C 65.7807,100.687 65.114,97.8541 64.5,95C 64.8333,94.5 65.1667,94 65.5,93.5C 70.8614,96.8442 76.1947,100.178 81.5,103.5 Z"/></g>
<g><path style="opacity:1" fill="#5e6c34" d="M 83.5,110.5 C 88.6059,114.939 93.2726,119.606 97.5,124.5C 97.5,125.167 97.5,125.833 97.5,126.5C 94.8615,123.379 91.5282,121.212 87.5,120C 82.6985,116.276 78.3652,112.109 74.5,107.5C 73.3861,108.723 73.2195,110.056 74,111.5C 76.3706,114.206 79.0372,116.539 82,118.5C 84.0795,121.065 85.9128,123.732 87.5,126.5C 85.1162,124.115 82.4495,122.115 79.5,120.5C 76.2485,116.702 73.2485,112.702 70.5,108.5C 68.9143,105.743 67.9143,102.743 67.5,99.5C 69.9267,99.523 72.26,100.023 74.5,101C 77.0012,104.667 80.0012,107.834 83.5,110.5 Z"/></g>
<g><path style="opacity:1" fill="#b9b75b" d="M 98.5,104.5 C 101.605,106.513 104.938,106.679 108.5,105C 119.923,104.713 131.256,104.547 142.5,104.5C 142.833,105.167 143.167,105.833 143.5,106.5C 143.433,107.959 143.766,109.292 144.5,110.5C 139.318,110.669 133.985,110.835 128.5,111C 128,111.5 127.5,112 127,112.5C 123.017,110.897 118.85,110.23 114.5,110.5C 110.814,109.352 107.147,109.352 103.5,110.5C 100.467,109.518 98.7998,107.518 98.5,104.5 Z"/></g>
<g><path style="opacity:1" fill="#bfb256" d="M 114.5,110.5 C 118.85,110.23 123.017,110.897 127,112.5C 127.5,112 128,111.5 128.5,111C 133.985,110.835 139.318,110.669 144.5,110.5C 146.843,111.937 147.01,113.604 145,115.5C 144.439,114.978 143.772,114.645 143,114.5C 139.489,116.79 135.655,118.457 131.5,119.5C 131.189,118.522 130.522,117.855 129.5,117.5C 127.827,119.086 125.827,119.753 123.5,119.5C 123.5,118.5 123.5,117.5 123.5,116.5C 122.167,116.5 120.833,116.5 119.5,116.5C 117.117,115.115 115.45,113.115 114.5,110.5 Z"/></g>
<g><path style="opacity:1" fill="#aba44d" d="M 86.5,101.5 C 88.7966,103.294 90.9633,105.294 93,107.5C 93.49,106.207 93.6567,104.873 93.5,103.5C 94.4959,103.586 95.3292,103.252 96,102.5C 96.7083,103.381 97.5416,104.047 98.5,104.5C 98.7998,107.518 100.467,109.518 103.5,110.5C 107.147,109.352 110.814,109.352 114.5,110.5C 115.45,113.115 117.117,115.115 119.5,116.5C 117.612,118.472 114.945,119.805 111.5,120.5C 103.064,119.437 96.0643,115.437 90.5,108.5C 90.9382,108.565 91.2716,108.399 91.5,108C 88.9787,106.442 87.312,104.275 86.5,101.5 Z"/></g>
<g><path style="opacity:1" fill="#4a5d32" d="M 46.5,87.5 C 49.8229,91.8258 51.1562,96.8258 50.5,102.5C 51.675,102.281 52.675,102.614 53.5,103.5C 55.4648,109.795 59.4648,114.128 65.5,116.5C 69.1691,120.697 72.3358,125.364 75,130.5C 77.7061,132.45 80.5394,134.117 83.5,135.5C 85.3736,137.7 87.7069,139.366 90.5,140.5C 92.6773,144.03 95.5106,147.03 99,149.5C 100.248,152.579 102.081,155.246 104.5,157.5C 105.246,158.736 105.579,160.07 105.5,161.5C 106.552,164.193 107.552,166.86 108.5,169.5C 107.778,170.551 106.778,171.218 105.5,171.5C 104.213,168.594 103.213,165.594 102.5,162.5C 101.491,159.951 100.658,157.285 100,154.5C 96.8443,152.343 94.011,149.843 91.5,147C 88.9782,145.274 86.4782,144.441 84,144.5C 82.6693,143.004 81.1693,141.671 79.5,140.5C 78.8333,140.833 78.1667,141.167 77.5,141.5C 75.7579,137.764 73.9246,134.098 72,130.5C 71.6667,130.833 71.3333,131.167 71,131.5C 69.98,130.109 69.1466,128.609 68.5,127C 64.1182,126.115 61.1182,123.615 59.5,119.5C 59.2914,118.078 58.7914,116.745 58,115.5C 54.7538,114.087 51.9205,112.087 49.5,109.5C 48.2905,102.236 47.2905,94.9026 46.5,87.5 Z"/></g>
<g><path style="opacity:1" fill="#827c39" d="M 83.5,110.5 C 84.552,110.351 85.552,110.517 86.5,111C 94.7097,116.606 103.376,121.439 112.5,125.5C 112.967,128.297 114.633,129.631 117.5,129.5C 117.5,130.5 117.5,131.5 117.5,132.5C 116.5,132.5 115.5,132.5 114.5,132.5C 111.732,130.913 109.065,129.08 106.5,127C 103.526,126.007 100.526,125.174 97.5,124.5C 93.2726,119.606 88.6059,114.939 83.5,110.5 Z"/></g>
<g><path style="opacity:1" fill="#bda14c" d="M 143.5,106.5 C 145.816,107.422 147.483,109.089 148.5,111.5C 149.39,114.948 151.057,117.948 153.5,120.5C 154.573,122.653 154.573,124.653 153.5,126.5C 149.719,127.211 146.719,126.045 144.5,123C 142.866,122.506 141.199,122.34 139.5,122.5C 136.169,122.982 133.503,121.982 131.5,119.5C 135.655,118.457 139.489,116.79 143,114.5C 143.772,114.645 144.439,114.978 145,115.5C 147.01,113.604 146.843,111.937 144.5,110.5C 143.766,109.292 143.433,107.959 143.5,106.5 Z"/></g>
<g><path style="opacity:0.999" fill="#3d4a2e" d="M 49.5,109.5 C 51.9205,112.087 54.7538,114.087 58,115.5C 58.7914,116.745 59.2914,118.078 59.5,119.5C 60.8153,124.142 62.1486,128.809 63.5,133.5C 57.0835,127.667 52.4168,120.667 49.5,112.5C 49.5,111.5 49.5,110.5 49.5,109.5 Z"/></g>
<g><path style="opacity:1" fill="#667d3f" d="M 53.5,86.5 C 54.7777,86.7822 55.7777,87.4489 56.5,88.5C 56.3379,90.5273 56.5045,92.5273 57,94.5C 59.6682,97.0256 61.5016,100.026 62.5,103.5C 63.514,107.038 65.014,110.371 67,113.5C 68.3561,114.38 69.8561,114.714 71.5,114.5C 71.4828,112.435 71.1495,110.435 70.5,108.5C 73.2485,112.702 76.2485,116.702 79.5,120.5C 79.5,121.167 79.5,121.833 79.5,122.5C 77.8607,124.942 75.8607,125.109 73.5,123C 71.6967,119.363 69.03,116.53 65.5,114.5C 64.8333,114.167 64.1667,113.833 63.5,113.5C 60.2996,109.446 57.7996,104.78 56,99.5C 55.0259,95.1748 54.1925,90.8415 53.5,86.5 Z"/></g>
<g><path style="opacity:1" fill="#b89948" d="M 119.5,116.5 C 120.833,116.5 122.167,116.5 123.5,116.5C 123.5,117.5 123.5,118.5 123.5,119.5C 125.827,119.753 127.827,119.086 129.5,117.5C 130.522,117.855 131.189,118.522 131.5,119.5C 133.503,121.982 136.169,122.982 139.5,122.5C 139.291,123.922 138.791,125.255 138,126.5C 135.867,127.255 134.2,128.588 133,130.5C 130.811,127.309 127.978,126.309 124.5,127.5C 122.772,125.774 120.772,124.441 118.5,123.5C 116.801,124.815 115.135,124.815 113.5,123.5C 112.833,122.5 112.167,121.5 111.5,120.5C 114.945,119.805 117.612,118.472 119.5,116.5 Z"/></g>
<g><path style="opacity:1" fill="#4b5b26" d="M 97.5,126.5 C 98.1667,127.5 98.8333,128.5 99.5,129.5C 98.7611,129.369 98.0944,129.536 97.5,130C 98.2266,131.399 98.7266,132.899 99,134.5C 101.127,136.114 102.627,138.114 103.5,140.5C 102.5,139.833 101.5,139.167 100.5,138.5C 98.8545,136.188 96.8545,134.188 94.5,132.5C 93.5713,131.311 93.238,129.978 93.5,128.5C 91.2972,128.396 89.2972,127.73 87.5,126.5C 85.9128,123.732 84.0795,121.065 82,118.5C 79.0372,116.539 76.3706,114.206 74,111.5C 73.2195,110.056 73.3861,108.723 74.5,107.5C 78.3652,112.109 82.6985,116.276 87.5,120C 91.5282,121.212 94.8615,123.379 97.5,126.5 Z"/></g>
<g><path style="opacity:1" fill="#8d893f" d="M 81.5,102.5 C 84.5178,104.526 87.5178,106.526 90.5,108.5C 96.0643,115.437 103.064,119.437 111.5,120.5C 112.167,121.5 112.833,122.5 113.5,123.5C 112.494,123.938 112.494,124.604 113.5,125.5C 113.167,125.5 112.833,125.5 112.5,125.5C 103.376,121.439 94.7097,116.606 86.5,111C 85.552,110.517 84.552,110.351 83.5,110.5C 83.5997,107.892 82.9331,105.558 81.5,103.5C 81.5,103.167 81.5,102.833 81.5,102.5 Z"/></g>
<g><path style="opacity:1" fill="#b08b42" d="M 139.5,122.5 C 141.199,122.34 142.866,122.506 144.5,123C 146.719,126.045 149.719,127.211 153.5,126.5C 151.881,128.238 149.881,128.738 147.5,128C 145.983,126.315 144.316,124.815 142.5,123.5C 142.167,123.833 141.833,124.167 141.5,124.5C 148.102,135.898 145.768,138.232 134.5,131.5C 133.833,131.833 133.167,132.167 132.5,132.5C 131.088,131.194 129.421,130.36 127.5,130C 128.696,129.346 128.696,128.846 127.5,128.5C 125.809,130.256 123.809,130.756 121.5,130C 119.264,127.716 116.598,126.216 113.5,125.5C 112.494,124.604 112.494,123.938 113.5,123.5C 115.135,124.815 116.801,124.815 118.5,123.5C 120.772,124.441 122.772,125.774 124.5,127.5C 127.978,126.309 130.811,127.309 133,130.5C 134.2,128.588 135.867,127.255 138,126.5C 138.791,125.255 139.291,123.922 139.5,122.5 Z"/></g>
<g><path style="opacity:1" fill="#647940" d="M 65.5,114.5 C 69.03,116.53 71.6967,119.363 73.5,123C 75.8607,125.109 77.8607,124.942 79.5,122.5C 81.9095,123.701 83.9095,125.367 85.5,127.5C 83.7773,129.78 83.1107,132.447 83.5,135.5C 80.5394,134.117 77.7061,132.45 75,130.5C 72.3358,125.364 69.1691,120.697 65.5,116.5C 65.5,115.833 65.5,115.167 65.5,114.5 Z"/></g>
<g><path style="opacity:1" fill="#62793e" d="M 79.5,120.5 C 82.4495,122.115 85.1162,124.115 87.5,126.5C 89.2972,127.73 91.2972,128.396 93.5,128.5C 93.238,129.978 93.5713,131.311 94.5,132.5C 96.8545,134.188 98.8545,136.188 100.5,138.5C 103.631,141.981 105.964,145.981 107.5,150.5C 107.421,151.93 107.754,153.264 108.5,154.5C 105.014,155.709 103.014,154.376 102.5,150.5C 103.5,150.5 104.5,150.5 105.5,150.5C 105.102,145.6 102.435,142.767 97.5,142C 94.6577,138.663 91.3243,135.83 87.5,133.5C 86.6279,131.55 85.9612,129.55 85.5,127.5C 83.9095,125.367 81.9095,123.701 79.5,122.5C 79.5,121.833 79.5,121.167 79.5,120.5 Z"/></g>
<g><path style="opacity:1" fill="#9f7b39" d="M 153.5,120.5 C 155.245,122.969 156.912,125.636 158.5,128.5C 157.739,129.391 156.739,130.058 155.5,130.5C 154.549,129.674 153.549,129.508 152.5,130C 151.5,131.667 150.167,133 148.5,134C 149.517,135.049 149.684,136.216 149,137.5C 145.378,137.174 141.711,136.174 138,134.5C 135.718,135.29 133.552,136.29 131.5,137.5C 127.801,133.487 123.135,131.82 117.5,132.5C 117.5,131.5 117.5,130.5 117.5,129.5C 114.633,129.631 112.967,128.297 112.5,125.5C 112.833,125.5 113.167,125.5 113.5,125.5C 116.598,126.216 119.264,127.716 121.5,130C 123.809,130.756 125.809,130.256 127.5,128.5C 128.696,128.846 128.696,129.346 127.5,130C 129.421,130.36 131.088,131.194 132.5,132.5C 133.167,132.167 133.833,131.833 134.5,131.5C 145.768,138.232 148.102,135.898 141.5,124.5C 141.833,124.167 142.167,123.833 142.5,123.5C 144.316,124.815 145.983,126.315 147.5,128C 149.881,128.738 151.881,128.238 153.5,126.5C 154.573,124.653 154.573,122.653 153.5,120.5 Z"/></g>
<g><path style="opacity:1" fill="#6f622f" d="M 97.5,124.5 C 100.526,125.174 103.526,126.007 106.5,127C 109.065,129.08 111.732,130.913 114.5,132.5C 114.421,133.93 114.754,135.264 115.5,136.5C 117.188,137.521 118.521,138.855 119.5,140.5C 119.167,140.5 118.833,140.5 118.5,140.5C 112.344,139.268 107.344,136.101 103.5,131C 101.942,130.79 100.609,130.29 99.5,129.5C 98.8333,128.5 98.1667,127.5 97.5,126.5C 97.5,125.833 97.5,125.167 97.5,124.5 Z"/></g>
<g><path style="opacity:1" fill="#82662e" d="M 114.5,132.5 C 115.5,132.5 116.5,132.5 117.5,132.5C 123.135,131.82 127.801,133.487 131.5,137.5C 130.761,137.369 130.094,137.536 129.5,138C 130.381,138.708 131.047,139.542 131.5,140.5C 127.35,140.244 123.35,140.244 119.5,140.5C 118.521,138.855 117.188,137.521 115.5,136.5C 114.754,135.264 114.421,133.93 114.5,132.5 Z"/></g>
<g><path style="opacity:1" fill="#9b6c36" d="M 158.5,128.5 C 160.474,130.428 161.974,132.761 163,135.5C 163.816,136.823 164.983,137.489 166.5,137.5C 167.167,138.833 167.833,140.167 168.5,141.5C 168.5,141.833 168.5,142.167 168.5,142.5C 167.194,141.032 165.694,139.699 164,138.5C 160.983,138.781 157.817,138.781 154.5,138.5C 154.357,140.262 154.691,141.929 155.5,143.5C 155,143.833 154.5,144.167 154,144.5C 150.12,143.111 146.62,141.111 143.5,138.5C 141.119,140.232 138.786,141.899 136.5,143.5C 134.589,142.925 132.922,141.925 131.5,140.5C 131.047,139.542 130.381,138.708 129.5,138C 130.094,137.536 130.761,137.369 131.5,137.5C 133.552,136.29 135.718,135.29 138,134.5C 141.711,136.174 145.378,137.174 149,137.5C 149.684,136.216 149.517,135.049 148.5,134C 150.167,133 151.5,131.667 152.5,130C 153.549,129.508 154.549,129.674 155.5,130.5C 156.739,130.058 157.739,129.391 158.5,128.5 Z"/></g>
<g><path style="opacity:0.478" fill="#b39a62" d="M 148.5,111.5 C 149.391,112.11 150.391,112.443 151.5,112.5C 156.752,120.668 161.752,129.001 166.5,137.5C 164.983,137.489 163.816,136.823 163,135.5C 161.974,132.761 160.474,130.428 158.5,128.5C 156.912,125.636 155.245,122.969 153.5,120.5C 151.057,117.948 149.39,114.948 148.5,111.5 Z"/></g>
<g><path style="opacity:1" fill="#697e44" d="M 85.5,127.5 C 85.9612,129.55 86.6279,131.55 87.5,133.5C 91.3243,135.83 94.6577,138.663 97.5,142C 102.435,142.767 105.102,145.6 105.5,150.5C 104.5,150.5 103.5,150.5 102.5,150.5C 99.4067,146.073 95.4067,142.74 90.5,140.5C 87.7069,139.366 85.3736,137.7 83.5,135.5C 83.1107,132.447 83.7773,129.78 85.5,127.5 Z"/></g>
<g><path style="opacity:1" fill="#945d2e" d="M 168.5,142.5 C 169.167,144.167 169.833,145.833 170.5,147.5C 167.931,145.53 165.264,143.53 162.5,141.5C 161.749,142.376 161.249,143.376 161,144.5C 160.692,143.692 160.192,143.025 159.5,142.5C 156.497,146.055 153.164,146.388 149.5,143.5C 148.41,144.727 147.076,145.56 145.5,146C 144.915,147.302 144.249,148.469 143.5,149.5C 140.568,148.2 138.234,146.2 136.5,143.5C 138.786,141.899 141.119,140.232 143.5,138.5C 146.62,141.111 150.12,143.111 154,144.5C 154.5,144.167 155,143.833 155.5,143.5C 154.691,141.929 154.357,140.262 154.5,138.5C 157.817,138.781 160.983,138.781 164,138.5C 165.694,139.699 167.194,141.032 168.5,142.5 Z"/></g>
<g><path style="opacity:1" fill="#405024" d="M 99.5,129.5 C 100.609,130.29 101.942,130.79 103.5,131C 107.344,136.101 112.344,139.268 118.5,140.5C 118.5,141.167 118.5,141.833 118.5,142.5C 118.5,143.167 118.5,143.833 118.5,144.5C 119.973,147.447 121.473,150.447 123,153.5C 123.497,155.81 123.663,158.143 123.5,160.5C 123.802,163.059 123.468,165.393 122.5,167.5C 123.62,159.073 120.453,152.739 113,148.5C 111.136,144.314 107.97,141.647 103.5,140.5C 102.627,138.114 101.127,136.114 99,134.5C 98.7266,132.899 98.2266,131.399 97.5,130C 98.0944,129.536 98.7611,129.369 99.5,129.5 Z"/></g>
<g><path style="opacity:1" fill="#3f4c25" d="M 118.5,144.5 C 126.195,148.383 133.861,152.049 141.5,155.5C 136.963,155.167 132.796,153.834 129,151.5C 127.842,151.998 127.009,152.831 126.5,154C 128.207,155.732 128.873,157.565 128.5,159.5C 130.002,160.083 131.335,160.916 132.5,162C 139.514,162.788 146.514,163.621 153.5,164.5C 153.5,163.5 153.5,162.5 153.5,161.5C 154.873,161.343 156.207,161.51 157.5,162C 160.727,164.688 164.394,166.522 168.5,167.5C 170.751,168.015 172.751,169.015 174.5,170.5C 171.801,170.534 169.301,169.867 167,168.5C 166.289,170.367 166.789,171.867 168.5,173C 170.734,174.75 173.068,176.25 175.5,177.5C 175.848,180.568 177.182,183.568 179.5,186.5C 179.376,187.107 179.043,187.44 178.5,187.5C 175.386,187.445 173.052,186.112 171.5,183.5C 173.311,184.822 175.311,185.322 177.5,185C 171.442,179.798 166.442,173.965 162.5,167.5C 159.298,166.873 156.131,166.206 153,165.5C 150.717,166.719 148.384,166.719 146,165.5C 144.97,165.836 144.47,166.503 144.5,167.5C 143.833,167.167 143.167,166.833 142.5,166.5C 137.463,164.598 132.13,163.432 126.5,163C 125.309,162.302 124.309,161.469 123.5,160.5C 123.663,158.143 123.497,155.81 123,153.5C 121.473,150.447 119.973,147.447 118.5,144.5 Z"/></g>
<g><path style="opacity:1" fill="#534621" d="M 118.5,142.5 C 122.298,144.263 126.298,145.596 130.5,146.5C 134.728,149.682 139.062,152.682 143.5,155.5C 142.833,155.5 142.167,155.5 141.5,155.5C 133.861,152.049 126.195,148.383 118.5,144.5C 118.5,143.833 118.5,143.167 118.5,142.5 Z"/></g>
<g><path style="opacity:1" fill="#714c26" d="M 131.5,140.5 C 132.922,141.925 134.589,142.925 136.5,143.5C 138.234,146.2 140.568,148.2 143.5,149.5C 145.808,151.471 148.142,153.471 150.5,155.5C 155.517,158.303 160.517,161.303 165.5,164.5C 166.9,165.1 167.9,166.1 168.5,167.5C 164.394,166.522 160.727,164.688 157.5,162C 156.207,161.51 154.873,161.343 153.5,161.5C 150.454,159.142 147.121,157.142 143.5,155.5C 139.062,152.682 134.728,149.682 130.5,146.5C 126.298,145.596 122.298,144.263 118.5,142.5C 118.5,141.833 118.5,141.167 118.5,140.5C 118.833,140.5 119.167,140.5 119.5,140.5C 123.35,140.244 127.35,140.244 131.5,140.5 Z"/></g>
<g><path style="opacity:1" fill="#945129" d="M 170.5,147.5 C 171.11,148.391 171.443,149.391 171.5,150.5C 164.459,151.95 157.459,153.617 150.5,155.5C 148.142,153.471 145.808,151.471 143.5,149.5C 144.249,148.469 144.915,147.302 145.5,146C 147.076,145.56 148.41,144.727 149.5,143.5C 153.164,146.388 156.497,146.055 159.5,142.5C 160.192,143.025 160.692,143.692 161,144.5C 161.249,143.376 161.749,142.376 162.5,141.5C 165.264,143.53 167.931,145.53 170.5,147.5 Z"/></g>
<g><path style="opacity:1" fill="#3d4c2a" d="M 59.5,119.5 C 61.1182,123.615 64.1182,126.115 68.5,127C 69.1466,128.609 69.98,130.109 71,131.5C 71.3333,131.167 71.6667,130.833 72,130.5C 73.9246,134.098 75.7579,137.764 77.5,141.5C 78.1667,141.167 78.8333,140.833 79.5,140.5C 81.1693,141.671 82.6693,143.004 84,144.5C 86.4782,144.441 88.9782,145.274 91.5,147C 94.011,149.843 96.8443,152.343 100,154.5C 100.658,157.285 101.491,159.951 102.5,162.5C 101.778,161.449 100.778,160.782 99.5,160.5C 99.5,158.833 99.5,157.167 99.5,155.5C 94.6106,154.389 90.2772,152.222 86.5,149C 84.8659,148.506 83.1992,148.34 81.5,148.5C 81.3505,149.552 81.5172,150.552 82,151.5C 84.5628,152.741 87.0628,154.074 89.5,155.5C 90.9524,156.94 91.9524,158.606 92.5,160.5C 90.412,159.061 88.0786,158.394 85.5,158.5C 84.0858,156.946 82.4192,155.612 80.5,154.5C 80.05,151.286 78.7166,148.619 76.5,146.5C 76.631,145.761 76.4643,145.094 76,144.5C 71.6653,140.997 67.4986,137.33 63.5,133.5C 62.1486,128.809 60.8153,124.142 59.5,119.5 Z"/></g>
<g><path style="opacity:1" fill="#324224" d="M 99.5,160.5 C 98.8485,161.091 98.1818,161.757 97.5,162.5C 96.2638,161.754 94.9305,161.421 93.5,161.5C 93.5,160.833 93.1667,160.5 92.5,160.5C 91.9524,158.606 90.9524,156.94 89.5,155.5C 87.0628,154.074 84.5628,152.741 82,151.5C 81.5172,150.552 81.3505,149.552 81.5,148.5C 83.1992,148.34 84.8659,148.506 86.5,149C 90.2772,152.222 94.6106,154.389 99.5,155.5C 99.5,157.167 99.5,158.833 99.5,160.5 Z"/></g>
<g><path style="opacity:1" fill="#974025" d="M 171.5,150.5 C 172.451,151.919 172.784,153.585 172.5,155.5C 171.522,155.811 170.855,156.478 170.5,157.5C 171.466,160.157 171.966,162.824 172,165.5C 171.667,165.833 171.333,166.167 171,166.5C 169.556,164.845 167.722,164.178 165.5,164.5C 160.517,161.303 155.517,158.303 150.5,155.5C 157.459,153.617 164.459,151.95 171.5,150.5 Z"/></g>
<g><path style="opacity:0.239" fill="#9c6d50" d="M 168.5,141.5 C 172.74,149.642 177.74,157.309 183.5,164.5C 183.451,167.223 183.118,169.889 182.5,172.5C 179.572,172.435 176.905,171.768 174.5,170.5C 176.833,170.5 179.167,170.5 181.5,170.5C 181.278,163.833 178.278,158.833 172.5,155.5C 172.784,153.585 172.451,151.919 171.5,150.5C 171.443,149.391 171.11,148.391 170.5,147.5C 169.833,145.833 169.167,144.167 168.5,142.5C 168.5,142.167 168.5,141.833 168.5,141.5 Z"/></g>
<g><path style="opacity:1" fill="#627944" d="M 90.5,140.5 C 95.4067,142.74 99.4067,146.073 102.5,150.5C 103.014,154.376 105.014,155.709 108.5,154.5C 107.754,153.264 107.421,151.93 107.5,150.5C 110.079,153.584 112.913,156.584 116,159.5C 116.497,161.81 116.663,164.143 116.5,166.5C 114.473,166.662 112.473,166.495 110.5,166C 109.349,163.8 107.682,162.3 105.5,161.5C 105.579,160.07 105.246,158.736 104.5,157.5C 102.081,155.246 100.248,152.579 99,149.5C 95.5106,147.03 92.6773,144.03 90.5,140.5 Z"/></g>
<g><path style="opacity:0.997" fill="#4d583b" d="M 76.5,146.5 C 78.7166,148.619 80.05,151.286 80.5,154.5C 82.4192,155.612 84.0858,156.946 85.5,158.5C 84.8774,159.965 84.8774,161.631 85.5,163.5C 83.3644,166.686 83.3644,170.019 85.5,173.5C 87.0709,174.309 88.7376,174.643 90.5,174.5C 90.7286,172.567 91.5619,170.9 93,169.5C 93.4974,166.854 93.6641,164.187 93.5,161.5C 94.9305,161.421 96.2638,161.754 97.5,162.5C 98.1818,161.757 98.8485,161.091 99.5,160.5C 98.8989,165.618 97.0656,170.285 94,174.5C 92.2196,175.639 90.3863,176.639 88.5,177.5C 86.2821,177.386 84.2821,176.72 82.5,175.5C 82.6567,174.127 82.49,172.793 82,171.5C 80.6152,170.449 79.6152,169.116 79,167.5C 77.6911,160.553 76.8578,153.553 76.5,146.5 Z"/></g>
<g><path style="opacity:1" fill="#46572d" d="M 85.5,158.5 C 88.0786,158.394 90.412,159.061 92.5,160.5C 93.1667,160.5 93.5,160.833 93.5,161.5C 93.6641,164.187 93.4974,166.854 93,169.5C 91.5619,170.9 90.7286,172.567 90.5,174.5C 88.7376,174.643 87.0709,174.309 85.5,173.5C 83.3644,170.019 83.3644,166.686 85.5,163.5C 84.8774,161.631 84.8774,159.965 85.5,158.5 Z"/></g>
<g><path style="opacity:1" fill="#586e3a" d="M 100.5,138.5 C 101.5,139.167 102.5,139.833 103.5,140.5C 106.864,144.362 110.031,148.362 113,152.5C 114.378,154.213 116.045,155.547 118,156.5C 118.333,157.833 118.667,159.167 119,160.5C 119.333,160.167 119.667,159.833 120,159.5C 120.498,162.817 120.665,166.15 120.5,169.5C 116.413,170.201 112.413,170.201 108.5,169.5C 107.552,166.86 106.552,164.193 105.5,161.5C 107.682,162.3 109.349,163.8 110.5,166C 112.473,166.495 114.473,166.662 116.5,166.5C 116.663,164.143 116.497,161.81 116,159.5C 112.913,156.584 110.079,153.584 107.5,150.5C 105.964,145.981 103.631,141.981 100.5,138.5 Z"/></g>
<g><path style="opacity:1" fill="#3b4e22" d="M 141.5,155.5 C 142.167,155.5 142.833,155.5 143.5,155.5C 147.121,157.142 150.454,159.142 153.5,161.5C 153.5,162.5 153.5,163.5 153.5,164.5C 146.514,163.621 139.514,162.788 132.5,162C 131.335,160.916 130.002,160.083 128.5,159.5C 128.873,157.565 128.207,155.732 126.5,154C 127.009,152.831 127.842,151.998 129,151.5C 132.796,153.834 136.963,155.167 141.5,155.5 Z"/></g>
<g><path style="opacity:1" fill="#8f3b24" d="M 172.5,155.5 C 178.278,158.833 181.278,163.833 181.5,170.5C 179.167,170.5 176.833,170.5 174.5,170.5C 172.751,169.015 170.751,168.015 168.5,167.5C 167.9,166.1 166.9,165.1 165.5,164.5C 167.722,164.178 169.556,164.845 171,166.5C 171.333,166.167 171.667,165.833 172,165.5C 171.966,162.824 171.466,160.157 170.5,157.5C 170.855,156.478 171.522,155.811 172.5,155.5 Z"/></g>
<g><path style="opacity:1" fill="#3a4429" d="M 171.5,183.5 C 166.984,180.146 163.317,175.979 160.5,171C 155.442,168.569 150.109,167.402 144.5,167.5C 144.47,166.503 144.97,165.836 146,165.5C 148.384,166.719 150.717,166.719 153,165.5C 156.131,166.206 159.298,166.873 162.5,167.5C 166.442,173.965 171.442,179.798 177.5,185C 175.311,185.322 173.311,184.822 171.5,183.5 Z"/></g>
<g><path style="opacity:1" fill="#4d6231" d="M 103.5,140.5 C 107.97,141.647 111.136,144.314 113,148.5C 120.453,152.739 123.62,159.073 122.5,167.5C 122.178,170.306 121.178,172.806 119.5,175C 116.183,175.498 112.85,175.665 109.5,175.5C 109.167,173.5 108.833,171.5 108.5,169.5C 112.413,170.201 116.413,170.201 120.5,169.5C 120.665,166.15 120.498,162.817 120,159.5C 119.667,159.833 119.333,160.167 119,160.5C 118.667,159.167 118.333,157.833 118,156.5C 116.045,155.547 114.378,154.213 113,152.5C 110.031,148.362 106.864,144.362 103.5,140.5 Z"/></g>
<g><path style="opacity:0.99" fill="#4f5a39" d="M 123.5,160.5 C 124.309,161.469 125.309,162.302 126.5,163C 132.13,163.432 137.463,164.598 142.5,166.5C 137.153,165.927 131.82,165.26 126.5,164.5C 126.345,169.831 124.679,174.498 121.5,178.5C 118.615,178.194 115.948,178.527 113.5,179.5C 112.833,179.5 112.167,179.5 111.5,179.5C 109.115,177.116 107.115,174.45 105.5,171.5C 106.778,171.218 107.778,170.551 108.5,169.5C 108.833,171.5 109.167,173.5 109.5,175.5C 112.85,175.665 116.183,175.498 119.5,175C 121.178,172.806 122.178,170.306 122.5,167.5C 123.468,165.393 123.802,163.059 123.5,160.5 Z"/></g>
<g><path style="opacity:0.998" fill="#575556" d="M 82.5,175.5 C 84.2821,176.72 86.2821,177.386 88.5,177.5C 88.4142,178.496 88.7476,179.329 89.5,180C 91.4727,180.495 93.4727,180.662 95.5,180.5C 94.5994,182.727 92.9328,183.727 90.5,183.5C 83.1591,183.666 75.8258,183.5 68.5,183C 65.031,182.465 62.031,181.298 59.5,179.5C 64.3578,179.932 69.1911,180.599 74,181.5C 78.3659,181.56 81.1992,179.56 82.5,175.5 Z"/></g>
<g><path style="opacity:1" fill="#8ea158" d="M 174.5,170.5 C 176.905,171.768 179.572,172.435 182.5,172.5C 182.5,172.833 182.5,173.167 182.5,173.5C 182.389,174.117 182.056,174.617 181.5,175C 185.028,177.287 188.861,178.787 193,179.5C 193.167,179.833 193.333,180.167 193.5,180.5C 192.311,181.429 190.978,181.762 189.5,181.5C 189.433,182.959 189.766,184.292 190.5,185.5C 188.154,184.477 185.821,183.477 183.5,182.5C 183.5,181.167 183.5,179.833 183.5,178.5C 180.763,178.599 178.096,178.265 175.5,177.5C 173.068,176.25 170.734,174.75 168.5,173C 166.789,171.867 166.289,170.367 167,168.5C 169.301,169.867 171.801,170.534 174.5,170.5 Z"/></g>
<g><path style="opacity:0.999" fill="#474647" d="M 58.5,178.5 C 59.1667,178.5 59.5,178.833 59.5,179.5C 62.031,181.298 65.031,182.465 68.5,183C 75.8258,183.5 83.1591,183.666 90.5,183.5C 90.5,184.5 90.5,185.5 90.5,186.5C 87.4816,186.335 84.4816,186.502 81.5,187C 80.5842,187.278 79.9175,187.778 79.5,188.5C 75.2314,188.734 71.2314,189.901 67.5,192C 65.2884,192.789 63.2884,192.622 61.5,191.5C 57.1117,189.654 52.7784,187.487 48.5,185C 51.4689,183.516 54.4689,182.016 57.5,180.5C 58.2975,180.043 58.6309,179.376 58.5,178.5 Z"/></g>
<g><path style="opacity:1" fill="#a1b566" d="M 194.5,188.5 C 193.167,187.5 191.833,186.5 190.5,185.5C 189.766,184.292 189.433,182.959 189.5,181.5C 190.978,181.762 192.311,181.429 193.5,180.5C 193.333,180.167 193.167,179.833 193,179.5C 188.861,178.787 185.028,177.287 181.5,175C 182.056,174.617 182.389,174.117 182.5,173.5C 184.17,173.249 185.67,172.582 187,171.5C 191.48,173.978 194.48,177.645 196,182.5C 197.378,184.213 199.045,185.547 201,186.5C 201.483,187.448 201.649,188.448 201.5,189.5C 199.94,189.519 198.44,189.852 197,190.5C 195.989,189.944 195.156,189.278 194.5,188.5 Z"/></g>
<g><path style="opacity:1" fill="#535153" d="M 111.5,181.5 C 112.259,183.666 111.259,185.166 108.5,186C 105.028,187.499 101.528,187.666 98,186.5C 94.069,188.291 89.9023,189.457 85.5,190C 86.5981,190.77 86.5981,191.603 85.5,192.5C 80.6458,195.142 79.6458,193.976 82.5,189C 81.552,188.517 80.552,188.351 79.5,188.5C 79.9175,187.778 80.5842,187.278 81.5,187C 84.4816,186.502 87.4816,186.335 90.5,186.5C 90.5,185.5 90.5,184.5 90.5,183.5C 92.9328,183.727 94.5994,182.727 95.5,180.5C 95.4346,180.062 95.6012,179.728 96,179.5C 96.7504,180.126 97.5838,180.626 98.5,181C 100.56,186.002 103.893,187.002 108.5,184C 109.942,183.623 110.942,182.79 111.5,181.5 Z"/></g>
<g><path style="opacity:1" fill="#454443" d="M 111.5,179.5 C 112.167,179.5 112.833,179.5 113.5,179.5C 114.765,180.514 115.431,182.014 115.5,184C 115.057,187.212 114.057,190.212 112.5,193C 113.448,193.483 114.448,193.649 115.5,193.5C 113.481,195.19 111.481,196.856 109.5,198.5C 107.685,197.37 105.685,196.704 103.5,196.5C 103.5,195.167 103.5,193.833 103.5,192.5C 106.059,192.61 108.392,191.944 110.5,190.5C 110.291,189.914 109.957,189.414 109.5,189C 106.073,187.834 103.407,188.668 101.5,191.5C 98.9499,192.358 96.4499,193.358 94,194.5C 91.3788,193.009 88.5455,192.342 85.5,192.5C 86.5981,191.603 86.5981,190.77 85.5,190C 89.9023,189.457 94.069,188.291 98,186.5C 101.528,187.666 105.028,187.499 108.5,186C 111.259,185.166 112.259,183.666 111.5,181.5C 111.5,180.833 111.5,180.167 111.5,179.5 Z"/></g>
<g><path style="opacity:1" fill="#6e7e44" d="M 175.5,177.5 C 178.096,178.265 180.763,178.599 183.5,178.5C 183.5,179.833 183.5,181.167 183.5,182.5C 185.821,183.477 188.154,184.477 190.5,185.5C 191.833,186.5 193.167,187.5 194.5,188.5C 194.5,189.5 194.5,190.5 194.5,191.5C 188.721,191.566 183.387,190.233 178.5,187.5C 179.043,187.44 179.376,187.107 179.5,186.5C 177.182,183.568 175.848,180.568 175.5,177.5 Z"/></g>
<g><path style="opacity:1" fill="#3a3837" d="M 113.5,179.5 C 115.948,178.527 118.615,178.194 121.5,178.5C 120.89,179.391 120.557,180.391 120.5,181.5C 120.227,183.451 120.893,184.951 122.5,186C 126.5,186.333 130.5,186.667 134.5,187C 136.83,188.488 137.164,190.321 135.5,192.5C 131.842,193.306 128.175,192.973 124.5,191.5C 121.448,192.014 118.448,192.68 115.5,193.5C 114.448,193.649 113.448,193.483 112.5,193C 114.057,190.212 115.057,187.212 115.5,184C 115.431,182.014 114.765,180.514 113.5,179.5 Z"/></g>
<g><path style="opacity:0.478" fill="#646061" d="M 120.5,181.5 C 123.819,184.757 127.652,185.757 132,184.5C 135.83,184.664 139.163,185.997 142,188.5C 142.483,189.448 142.649,190.448 142.5,191.5C 140.05,191.298 137.717,191.631 135.5,192.5C 137.164,190.321 136.83,188.488 134.5,187C 130.5,186.667 126.5,186.333 122.5,186C 120.893,184.951 120.227,183.451 120.5,181.5 Z"/></g>
<g><path style="opacity:0.804" fill="#a5b076" d="M 183.5,164.5 C 188.207,168.943 193.041,173.276 198,177.5C 199.99,182.103 203.157,185.77 207.5,188.5C 207.5,189.5 207.5,190.5 207.5,191.5C 203.192,192.65 198.859,192.65 194.5,191.5C 194.5,190.5 194.5,189.5 194.5,188.5C 195.156,189.278 195.989,189.944 197,190.5C 198.44,189.852 199.94,189.519 201.5,189.5C 201.649,188.448 201.483,187.448 201,186.5C 199.045,185.547 197.378,184.213 196,182.5C 194.48,177.645 191.48,173.978 187,171.5C 185.67,172.582 184.17,173.249 182.5,173.5C 182.5,173.167 182.5,172.833 182.5,172.5C 183.118,169.889 183.451,167.223 183.5,164.5 Z"/></g>
<g><path style="opacity:0.277" fill="#695f68" d="M 58.5,178.5 C 58.6309,179.376 58.2975,180.043 57.5,180.5C 54.4689,182.016 51.4689,183.516 48.5,185C 52.7784,187.487 57.1117,189.654 61.5,191.5C 59.5165,191.383 57.8498,192.05 56.5,193.5C 55.0803,191.78 53.747,189.946 52.5,188C 50.765,187.349 49.0983,187.515 47.5,188.5C 45.1642,186.882 45.1642,185.048 47.5,183C 51.1924,181.485 54.859,179.985 58.5,178.5 Z"/></g>
<g><path style="opacity:0.251" fill="#615d60" d="M 109.5,198.5 C 109.5,198.833 109.5,199.167 109.5,199.5C 107.167,199.5 104.833,199.5 102.5,199.5C 101.723,196.692 101.39,194.025 101.5,191.5C 103.407,188.668 106.073,187.834 109.5,189C 109.957,189.414 110.291,189.914 110.5,190.5C 108.392,191.944 106.059,192.61 103.5,192.5C 103.5,193.833 103.5,195.167 103.5,196.5C 105.685,196.704 107.685,197.37 109.5,198.5 Z"/></g>
</svg>
