<?xml version="1.0" encoding="UTF-8"?>
<!DOCTYPE svg PUBLIC "-//W3C//DTD SVG 1.1//EN" "http://www.w3.org/Graphics/SVG/1.1/DTD/svg11.dtd">
<svg xmlns="http://www.w3.org/2000/svg" version="1.1" width="198px" height="196px" style="shape-rendering:geometricPrecision; text-rendering:geometricPrecision; image-rendering:optimizeQuality; fill-rule:evenodd; clip-rule:evenodd" xmlns:xlink="http://www.w3.org/1999/xlink">
<g><path style="opacity:0.949" fill="#727f96" d="M 123.5,-0.5 C 136.5,-0.5 149.5,-0.5 162.5,-0.5C 162.5,-0.166667 162.5,0.166667 162.5,0.5C 161.265,0.721419 160.265,1.38809 159.5,2.5C 143.782,-1.33498 128.782,0.331686 114.5,7.5C 113.337,6.94404 112.337,6.6107 111.5,6.5C 115.204,3.64832 119.204,1.31498 123.5,-0.5 Z"/></g>
<g><path style="opacity:1" fill="#9fa8b6" d="M 158.5,8.5 C 164.217,8.80649 169.55,10.3065 174.5,13C 175.45,15.9101 177.45,17.0768 180.5,16.5C 180.833,16.5 181.167,16.5 181.5,16.5C 182.415,18.7541 183.748,20.7541 185.5,22.5C 184.388,23.2652 183.721,24.2652 183.5,25.5C 180,22.1691 176.334,19.0024 172.5,16C 171.255,15.2086 169.922,14.7086 168.5,14.5C 165.298,12.3173 161.964,10.3173 158.5,8.5 Z"/></g>
<g><path style="opacity:1" fill="#494045" d="M 139.5,9.5 C 149.613,8.8248 159.28,10.4915 168.5,14.5C 170.597,16.4072 172.931,18.2405 175.5,20C 178.747,22.7412 181.414,25.9079 183.5,29.5C 179.746,27.2524 176.412,24.419 173.5,21C 170.363,20.3989 167.363,19.3989 164.5,18C 161.943,13.9052 158.109,12.0718 153,12.5C 151.615,12.5143 150.449,12.8476 149.5,13.5C 145.116,13.1744 140.783,13.5078 136.5,14.5C 135.398,15.1757 134.398,15.8423 133.5,16.5C 122.577,20.0881 113.577,26.4215 106.5,35.5C 103.606,36.8823 101.106,38.8823 99,41.5C 96.0261,46.9563 92.5261,51.9563 88.5,56.5C 91.1174,51.4894 93.4507,46.3227 95.5,41C 94.8333,40.3333 94.1667,40.3333 93.5,41C 91.9625,42.7073 90.2959,44.2073 88.5,45.5C 92.5988,40.2871 96.9322,35.2871 101.5,30.5C 106.738,27.9304 111.072,24.2637 114.5,19.5C 118.866,18.6147 122.532,16.6147 125.5,13.5C 130.154,11.9465 134.821,10.6132 139.5,9.5 Z"/></g>
<g><path style="opacity:1" fill="#eff5f8" d="M 131.5,9.5 C 127.233,10.9554 122.9,12.4554 118.5,14C 116.343,15.9121 114.009,17.5787 111.5,19C 110.177,19.8159 109.511,20.9826 109.5,22.5C 106.975,24.1771 104.309,25.6771 101.5,27C 97.3333,32.5 92.5,37.3333 87,41.5C 86.2086,42.745 85.7086,44.0783 85.5,45.5C 84.8333,45.5 84.5,45.8333 84.5,46.5C 79.2337,50.6103 74.7337,55.6103 71,61.5C 70.51,60.2068 70.3433,58.8734 70.5,57.5C 70.9802,54.5568 71.9802,51.8902 73.5,49.5C 83.9873,35.846 95.9873,23.6793 109.5,13C 113.769,11.5324 117.769,9.53241 121.5,7C 126.799,5.85491 132.132,5.52158 137.5,6C 135.568,7.4585 133.568,8.62517 131.5,9.5 Z"/></g>
<g><path style="opacity:1" fill="#c5c7c9" d="M 131.5,9.5 C 129.751,11.256 127.751,12.5894 125.5,13.5C 121.116,14.1917 117.45,16.1917 114.5,19.5C 112.589,20.075 110.922,21.075 109.5,22.5C 109.511,20.9826 110.177,19.8159 111.5,19C 114.009,17.5787 116.343,15.9121 118.5,14C 122.9,12.4554 127.233,10.9554 131.5,9.5 Z"/></g>
<g><path style="opacity:1" fill="#8a8287" d="M 125.5,13.5 C 122.532,16.6147 118.866,18.6147 114.5,19.5C 117.45,16.1917 121.116,14.1917 125.5,13.5 Z"/></g>
<g><path style="opacity:1" fill="#6d666b" d="M 168.5,14.5 C 169.922,14.7086 171.255,15.2086 172.5,16C 176.334,19.0024 180,22.1691 183.5,25.5C 185.975,26.6874 186.975,28.6874 186.5,31.5C 185.5,30.8333 184.5,30.1667 183.5,29.5C 181.414,25.9079 178.747,22.7412 175.5,20C 172.931,18.2405 170.597,16.4072 168.5,14.5 Z"/></g>
<g><path style="opacity:0.984" fill="#8291a7" d="M 162.5,0.5 C 170.23,3.23562 176.896,7.56896 182.5,13.5C 182.737,14.791 182.404,15.791 181.5,16.5C 181.167,16.5 180.833,16.5 180.5,16.5C 177.358,13.5314 174.025,10.698 170.5,8C 157.525,3.33727 144.192,1.67061 130.5,3C 128.026,3.03669 126.026,3.87003 124.5,5.5C 120.882,6.53811 117.215,7.70478 113.5,9C 97.2957,19.704 83.9624,33.204 73.5,49.5C 71.9802,51.8902 70.9802,54.5568 70.5,57.5C 69.1667,57.5 68.5,58.1667 68.5,59.5C 66.8235,60.1834 66.1568,61.5168 66.5,63.5C 65.2568,65.1639 63.5902,66.3305 61.5,67C 64.4797,69.744 65.1464,72.9107 63.5,76.5C 63.5,74.1667 63.5,71.8333 63.5,69.5C 57.2375,69.3608 51.9042,71.3608 47.5,75.5C 44.1393,76.684 41.1393,78.5173 38.5,81C 30.9697,87.6996 23.6364,94.5329 16.5,101.5C 16.44,100.957 16.1067,100.624 15.5,100.5C 14.2341,102.404 12.5675,103.737 10.5,104.5C 23.7416,85.2122 41.4082,71.7122 63.5,64C 72.7656,39.2325 88.7656,20.0658 111.5,6.5C 112.337,6.6107 113.337,6.94404 114.5,7.5C 128.782,0.331686 143.782,-1.33498 159.5,2.5C 160.265,1.38809 161.265,0.721419 162.5,0.5 Z"/></g>
<g><path style="opacity:1" fill="#75707b" d="M 139.5,9.5 C 145.645,8.50984 151.978,8.1765 158.5,8.5C 161.964,10.3173 165.298,12.3173 168.5,14.5C 159.28,10.4915 149.613,8.8248 139.5,9.5 Z"/></g>
<g><path style="opacity:1" fill="#79757b" d="M 131.5,9.5 C 132.833,9.5 134.167,9.5 135.5,9.5C 136.833,9.5 138.167,9.5 139.5,9.5C 134.821,10.6132 130.154,11.9465 125.5,13.5C 127.751,12.5894 129.751,11.256 131.5,9.5 Z"/></g>
<g><path style="opacity:1" fill="#a3b3cc" d="M 180.5,16.5 C 177.45,17.0768 175.45,15.9101 174.5,13C 169.55,10.3065 164.217,8.80649 158.5,8.5C 151.978,8.1765 145.645,8.50984 139.5,9.5C 138.167,9.5 136.833,9.5 135.5,9.5C 137.756,7.62758 140.423,6.46092 143.5,6C 137.289,4.19387 130.955,4.0272 124.5,5.5C 126.026,3.87003 128.026,3.03669 130.5,3C 144.192,1.67061 157.525,3.33727 170.5,8C 174.025,10.698 177.358,13.5314 180.5,16.5 Z"/></g>
<g><path style="opacity:0.954" fill="#4a494c" d="M 149.5,13.5 C 155.511,17.5922 161.845,21.4255 168.5,25C 170.991,28.4903 173.825,31.657 177,34.5C 177.483,35.448 177.649,36.448 177.5,37.5C 176.571,36.0639 175.405,34.7305 174,33.5C 173.833,34 173.667,34.5 173.5,35C 176.769,40.8378 177.769,47.0045 176.5,53.5C 175.787,51.565 174.787,51.2317 173.5,52.5C 174.104,37.3543 167.437,27.021 153.5,21.5C 151.841,20.1658 150.508,18.4992 149.5,16.5C 144.171,15.3881 138.838,15.3881 133.5,16.5C 134.398,15.8423 135.398,15.1757 136.5,14.5C 140.783,13.5078 145.116,13.1744 149.5,13.5 Z"/></g>
<g><path style="opacity:0.961" fill="#696668" d="M 153.5,21.5 C 146.04,19.9252 138.707,20.2585 131.5,22.5C 130.399,21.4017 129.066,21.235 127.5,22C 120.865,27.1486 113.865,31.6486 106.5,35.5C 113.577,26.4215 122.577,20.0881 133.5,16.5C 138.838,15.3881 144.171,15.3881 149.5,16.5C 150.508,18.4992 151.841,20.1658 153.5,21.5 Z"/></g>
<g><path style="opacity:1" fill="#423f43" d="M 149.5,13.5 C 150.449,12.8476 151.615,12.5143 153,12.5C 158.109,12.0718 161.943,13.9052 164.5,18C 167.363,19.3989 170.363,20.3989 173.5,21C 176.412,24.419 179.746,27.2524 183.5,29.5C 185.466,37.9264 185.799,46.2597 184.5,54.5C 183.504,54.5858 182.671,54.2524 182,53.5C 181.45,47.8038 179.95,42.4705 177.5,37.5C 177.649,36.448 177.483,35.448 177,34.5C 173.825,31.657 170.991,28.4903 168.5,25C 161.845,21.4255 155.511,17.5922 149.5,13.5 Z"/></g>
<g><path style="opacity:1" fill="#8a8187" d="M 114.5,19.5 C 111.072,24.2637 106.738,27.9304 101.5,30.5C 104.425,28.2421 107.091,25.5754 109.5,22.5C 110.922,21.075 112.589,20.075 114.5,19.5 Z"/></g>
<g><path style="opacity:1" fill="#cecdd0" d="M 109.5,22.5 C 107.091,25.5754 104.425,28.2421 101.5,30.5C 95.5841,34.7451 90.2508,39.7451 85.5,45.5C 85.7086,44.0783 86.2086,42.745 87,41.5C 92.5,37.3333 97.3333,32.5 101.5,27C 104.309,25.6771 106.975,24.1771 109.5,22.5 Z"/></g>
<g><path style="opacity:1" fill="#b2c4d7" d="M 135.5,9.5 C 134.167,9.5 132.833,9.5 131.5,9.5C 133.568,8.62517 135.568,7.4585 137.5,6C 132.132,5.52158 126.799,5.85491 121.5,7C 117.769,9.53241 113.769,11.5324 109.5,13C 95.9873,23.6793 83.9873,35.846 73.5,49.5C 83.9624,33.204 97.2957,19.704 113.5,9C 117.215,7.70478 120.882,6.53811 124.5,5.5C 130.955,4.0272 137.289,4.19387 143.5,6C 140.423,6.46092 137.756,7.62758 135.5,9.5 Z"/></g>
<g><path style="opacity:0.286" fill="#868085" d="M 131.5,22.5 C 117.12,30.0319 104.954,40.3652 95,53.5C 92.4543,56.8597 90.6209,60.5264 89.5,64.5C 88.8333,64.5 88.5,64.8333 88.5,65.5C 87.6236,65.6309 86.9569,65.2975 86.5,64.5C 92.4195,54.2594 99.0862,44.5928 106.5,35.5C 113.865,31.6486 120.865,27.1486 127.5,22C 129.066,21.235 130.399,21.4017 131.5,22.5 Z"/></g>
<g><path style="opacity:1" fill="#a09b9b" d="M 182.5,13.5 C 190.028,22.0469 194.695,32.0469 196.5,43.5C 195.34,42.3886 194.007,41.3886 192.5,40.5C 191.255,36.9355 189.255,33.9355 186.5,31.5C 186.975,28.6874 185.975,26.6874 183.5,25.5C 183.721,24.2652 184.388,23.2652 185.5,22.5C 183.748,20.7541 182.415,18.7541 181.5,16.5C 182.404,15.791 182.737,14.791 182.5,13.5 Z"/></g>
<g><path style="opacity:1" fill="#9a9598" d="M 101.5,30.5 C 96.9322,35.2871 92.5988,40.2871 88.5,45.5C 81.01,53.6615 74.6766,62.6615 69.5,72.5C 68.603,73.5981 67.7697,73.5981 67,72.5C 66.502,69.5184 66.3354,66.5184 66.5,63.5C 66.1568,61.5168 66.8235,60.1834 68.5,59.5C 68.2011,61.604 68.5344,63.604 69.5,65.5C 73.1103,60.3867 77.277,55.7201 82,51.5C 82.8466,49.8068 83.6799,48.1401 84.5,46.5C 84.5,45.8333 84.8333,45.5 85.5,45.5C 90.2508,39.7451 95.5841,34.7451 101.5,30.5 Z"/></g>
<g><path style="opacity:1" fill="#4b3e3f" d="M 183.5,29.5 C 184.5,30.1667 185.5,30.8333 186.5,31.5C 187.508,33.5439 188.508,35.5439 189.5,37.5C 191.04,48.0976 191.707,58.7643 191.5,69.5C 189.018,72.4293 186.518,75.4293 184,78.5C 178.15,89.6828 170.15,99.0161 160,106.5C 158.743,106.15 158.409,105.483 159,104.5C 162.769,100.61 166.769,96.943 171,93.5C 172.323,90.6912 173.823,88.0245 175.5,85.5C 177.509,82.6463 179.343,79.6463 181,76.5C 181.49,75.2068 181.657,73.8734 181.5,72.5C 183.694,70.7786 184.861,68.4453 185,65.5C 185.678,61.7789 185.511,58.1122 184.5,54.5C 185.799,46.2597 185.466,37.9264 183.5,29.5 Z"/></g>
<g><path style="opacity:0.937" fill="#948981" d="M 186.5,31.5 C 189.255,33.9355 191.255,36.9355 192.5,40.5C 194.007,41.3886 195.34,42.3886 196.5,43.5C 196.263,44.791 196.596,45.791 197.5,46.5C 197.5,49.5 197.5,52.5 197.5,55.5C 196.833,57.5 196.167,59.5 195.5,61.5C 194.833,58.8333 194.167,56.1667 193.5,53.5C 192.959,47.988 191.626,42.6547 189.5,37.5C 188.508,35.5439 187.508,33.5439 186.5,31.5 Z"/></g>
<g><path style="opacity:1" fill="#65666b" d="M 177.5,37.5 C 179.95,42.4705 181.45,47.8038 182,53.5C 182.671,54.2524 183.504,54.5858 184.5,54.5C 185.511,58.1122 185.678,61.7789 185,65.5C 184.861,68.4453 183.694,70.7786 181.5,72.5C 182.683,68.8414 182.683,65.1747 181.5,61.5C 180.817,61.1373 180.15,60.8039 179.5,60.5C 179.539,59.2438 179.039,58.2438 178,57.5C 176.981,58.6872 175.814,59.6872 174.5,60.5C 173.893,60.3764 173.56,60.0431 173.5,59.5C 173.5,57.1667 173.5,54.8333 173.5,52.5C 174.787,51.2317 175.787,51.565 176.5,53.5C 177.769,47.0045 176.769,40.8378 173.5,35C 173.667,34.5 173.833,34 174,33.5C 175.405,34.7305 176.571,36.0639 177.5,37.5 Z"/></g>
<g><path style="opacity:1" fill="#c8cace" d="M 84.5,46.5 C 83.6799,48.1401 82.8466,49.8068 82,51.5C 77.277,55.7201 73.1103,60.3867 69.5,65.5C 68.5344,63.604 68.2011,61.604 68.5,59.5C 68.5,58.1667 69.1667,57.5 70.5,57.5C 70.3433,58.8734 70.51,60.2068 71,61.5C 74.7337,55.6103 79.2337,50.6103 84.5,46.5 Z"/></g>
<g><path style="opacity:1" fill="#5f5450" d="M 189.5,37.5 C 191.626,42.6547 192.959,47.988 193.5,53.5C 193.927,59.1136 193.26,64.4469 191.5,69.5C 191.707,58.7643 191.04,48.0976 189.5,37.5 Z"/></g>
<g><path style="opacity:1" fill="#483c3e" d="M 88.5,56.5 C 86.937,58.6168 85.6036,60.9501 84.5,63.5C 81.6124,73.7495 81.1124,84.0828 83,94.5C 83.3736,96.4913 84.207,98.158 85.5,99.5C 85.8333,99.5 86.1667,99.5 86.5,99.5C 86.372,101.655 86.872,103.655 88,105.5C 90.3347,108.665 92.8347,111.665 95.5,114.5C 93.8008,114.66 92.1341,114.494 90.5,114C 87.6126,111.113 84.7792,108.279 82,105.5C 79.597,99.0963 77.597,92.4297 76,85.5C 75.5012,81.5138 75.3345,77.5138 75.5,73.5C 76.4614,71.7354 76.7947,69.7354 76.5,67.5C 79.1078,60.55 82.9411,54.2166 88,48.5C 88.4828,47.552 88.6495,46.552 88.5,45.5C 90.2959,44.2073 91.9625,42.7073 93.5,41C 94.1667,40.3333 94.8333,40.3333 95.5,41C 93.4507,46.3227 91.1174,51.4894 88.5,56.5 Z"/></g>
<g><path style="opacity:1" fill="#8f8a8b" d="M 179.5,60.5 C 180.15,60.8039 180.817,61.1373 181.5,61.5C 182.683,65.1747 182.683,68.8414 181.5,72.5C 181.657,73.8734 181.49,75.2068 181,76.5C 179.343,79.6463 177.509,82.6463 175.5,85.5C 168.421,92.2498 161.421,98.9165 154.5,105.5C 155.75,103.846 157.084,102.179 158.5,100.5C 162.11,96.5518 165.777,92.5518 169.5,88.5C 174.43,84.5693 177.763,79.5693 179.5,73.5C 180.736,69.2988 180.736,64.9655 179.5,60.5 Z"/></g>
<g><path style="opacity:1" fill="#776e71" d="M 88.5,45.5 C 88.6495,46.552 88.4828,47.552 88,48.5C 82.9411,54.2166 79.1078,60.55 76.5,67.5C 73.8295,68.7241 71.4962,70.3908 69.5,72.5C 74.6766,62.6615 81.01,53.6615 88.5,45.5 Z"/></g>
<g><path style="opacity:0.786" fill="#93a1ad" d="M 179.5,60.5 C 180.736,64.9655 180.736,69.2988 179.5,73.5C 179.665,70.4816 179.498,67.4816 179,64.5C 178.586,64.0426 178.086,63.7093 177.5,63.5C 176.048,64.9397 175.048,66.6064 174.5,68.5C 171.624,75.0297 167.957,81.0297 163.5,86.5C 159.562,89.0985 155.895,92.0985 152.5,95.5C 156.763,89.7326 161.597,84.3992 167,79.5C 167.163,77.324 167.996,75.4907 169.5,74C 168.833,73.6667 168.167,73.3333 167.5,73C 169.606,71.3629 170.272,69.5295 169.5,67.5C 170.866,64.768 172.199,62.1013 173.5,59.5C 173.56,60.0431 173.893,60.3764 174.5,60.5C 175.814,59.6872 176.981,58.6872 178,57.5C 179.039,58.2438 179.539,59.2438 179.5,60.5 Z"/></g>
<g><path style="opacity:1" fill="#676a6d" d="M 66.5,63.5 C 66.3354,66.5184 66.502,69.5184 67,72.5C 67.7697,73.5981 68.603,73.5981 69.5,72.5C 69.4257,74.4109 68.4257,75.5776 66.5,76C 68.3008,76.3173 68.6341,76.984 67.5,78C 64.854,78.4974 62.1873,78.6641 59.5,78.5C 60.287,76.8958 61.6203,76.2291 63.5,76.5C 65.1464,72.9107 64.4797,69.744 61.5,67C 63.5902,66.3305 65.2568,65.1639 66.5,63.5 Z"/></g>
<g><path style="opacity:1" fill="#c1cedb" d="M 63.5,76.5 C 61.6203,76.2291 60.287,76.8958 59.5,78.5C 58.8333,78.5 58.1667,78.5 57.5,78.5C 58.4006,76.2729 60.0672,75.2729 62.5,75.5C 62.5,74.1667 62.5,72.8333 62.5,71.5C 59.2791,72.1109 56.2791,73.2776 53.5,75C 51.5273,75.4955 49.5273,75.6621 47.5,75.5C 51.9042,71.3608 57.2375,69.3608 63.5,69.5C 63.5,71.8333 63.5,74.1667 63.5,76.5 Z"/></g>
<g><path style="opacity:1" fill="#c1bebf" d="M 179.5,73.5 C 177.763,79.5693 174.43,84.5693 169.5,88.5C 172.797,83.7924 175.63,78.7924 178,73.5C 178.814,71.0982 178.647,68.7649 177.5,66.5C 176.735,67.6119 175.735,68.2786 174.5,68.5C 175.048,66.6064 176.048,64.9397 177.5,63.5C 178.086,63.7093 178.586,64.0426 179,64.5C 179.498,67.4816 179.665,70.4816 179.5,73.5 Z"/></g>
<g><path style="opacity:1" fill="#656568" d="M 106.5,35.5 C 99.0862,44.5928 92.4195,54.2594 86.5,64.5C 86.9569,65.2975 87.6236,65.6309 88.5,65.5C 88.2606,67.4672 88.5939,69.3005 89.5,71C 86.9836,73.854 87.3169,76.5207 90.5,79C 92.4048,80.4213 94.4048,81.588 96.5,82.5C 97.8856,86.2728 99.5522,89.9394 101.5,93.5C 101.457,94.4164 101.124,95.0831 100.5,95.5C 97.9401,93.7267 95.6068,91.7267 93.5,89.5C 95.0174,89.5106 96.1841,90.1772 97,91.5C 95.4942,85.1838 91.6609,80.8504 85.5,78.5C 85.3367,80.8568 85.5034,83.1902 86,85.5C 86.7083,86.3805 87.5416,87.0472 88.5,87.5C 90.7241,96.7247 96.3907,102.725 105.5,105.5C 106.822,107.311 107.322,109.311 107,111.5C 105.989,110.663 104.822,110.33 103.5,110.5C 94.2179,104.722 87.7179,96.722 84,86.5C 83.4253,90.9738 83.9253,95.3071 85.5,99.5C 84.207,98.158 83.3736,96.4913 83,94.5C 81.1124,84.0828 81.6124,73.7495 84.5,63.5C 85.6036,60.9501 86.937,58.6168 88.5,56.5C 92.5261,51.9563 96.0261,46.9563 99,41.5C 101.106,38.8823 103.606,36.8823 106.5,35.5 Z"/></g>
<g><path style="opacity:0.996" fill="#788396" d="M 89.5,64.5 C 110.015,70.0132 123.348,83.0132 129.5,103.5C 129.957,104.298 130.624,104.631 131.5,104.5C 132.5,105.5 133.5,106.5 134.5,107.5C 132.817,108.853 131.484,110.52 130.5,112.5C 129.883,112.611 129.383,112.944 129,113.5C 128.79,111.942 128.29,110.609 127.5,109.5C 127.768,107.901 127.434,106.568 126.5,105.5C 125.025,102 124.025,98.3334 123.5,94.5C 120.923,94.5449 118.923,93.5449 117.5,91.5C 114.167,85.5 109.5,80.8333 103.5,77.5C 101.804,77.3146 100.471,76.4813 99.5,75C 97.1902,74.5034 94.8568,74.3367 92.5,74.5C 92.3433,75.8734 92.51,77.2068 93,78.5C 94.3756,79.7051 95.5423,81.0384 96.5,82.5C 94.4048,81.588 92.4048,80.4213 90.5,79C 87.3169,76.5207 86.9836,73.854 89.5,71C 88.5939,69.3005 88.2606,67.4672 88.5,65.5C 88.5,64.8333 88.8333,64.5 89.5,64.5 Z"/></g>
<g><path style="opacity:1" fill="#585657" d="M 76.5,67.5 C 76.7947,69.7354 76.4614,71.7354 75.5,73.5C 74.5489,74.9187 74.2155,76.5853 74.5,78.5C 72.396,78.2011 70.396,78.5344 68.5,79.5C 66.0515,82.5558 63.0515,84.8892 59.5,86.5C 59.6309,85.6236 59.2975,84.9569 58.5,84.5C 54.9624,84.964 51.9624,86.464 49.5,89C 39,97.5 29.5,107 21,117.5C 20.6012,117.272 20.4346,116.938 20.5,116.5C 20.3505,115.448 20.5172,114.448 21,113.5C 28.6907,103.645 37.1907,94.6452 46.5,86.5C 50.7321,84.5998 54.3988,81.9331 57.5,78.5C 58.1667,78.5 58.8333,78.5 59.5,78.5C 62.1873,78.6641 64.854,78.4974 67.5,78C 68.6341,76.984 68.3008,76.3173 66.5,76C 68.4257,75.5776 69.4257,74.4109 69.5,72.5C 71.4962,70.3908 73.8295,68.7241 76.5,67.5 Z"/></g>
<g><path style="opacity:1" fill="#dbe3ea" d="M 103.5,77.5 C 107.694,82.6054 112.36,87.272 117.5,91.5C 117.5,92.8333 117.5,94.1667 117.5,95.5C 114.248,93.4157 111.915,90.5824 110.5,87C 109.207,86.51 107.873,86.3433 106.5,86.5C 106.833,88.5 107.167,90.5 107.5,92.5C 105.576,88.9056 102.91,85.9056 99.5,83.5C 98.391,83.4431 97.391,83.1098 96.5,82.5C 95.5423,81.0384 94.3756,79.7051 93,78.5C 92.51,77.2068 92.3433,75.8734 92.5,74.5C 94.8568,74.3367 97.1902,74.5034 99.5,75C 100.471,76.4813 101.804,77.3146 103.5,77.5 Z"/></g>
<g><path style="opacity:1" fill="#3a393d" d="M 93.5,89.5 C 91.7162,89.1075 90.0495,88.4408 88.5,87.5C 87.5416,87.0472 86.7083,86.3805 86,85.5C 85.5034,83.1902 85.3367,80.8568 85.5,78.5C 91.6609,80.8504 95.4942,85.1838 97,91.5C 96.1841,90.1772 95.0174,89.5106 93.5,89.5 Z"/></g>
<g><path style="opacity:1" fill="#8a8b89" d="M 57.5,78.5 C 54.3988,81.9331 50.7321,84.5998 46.5,86.5C 48.3603,85.0613 50.027,83.3947 51.5,81.5C 53.4561,80.5082 55.4561,79.5082 57.5,78.5 Z"/></g>
<g><path style="opacity:1" fill="#a3b2c8" d="M 103.5,77.5 C 109.5,80.8333 114.167,85.5 117.5,91.5C 112.36,87.272 107.694,82.6054 103.5,77.5 Z"/></g>
<g><path style="opacity:1" fill="#484648" d="M 75.5,73.5 C 75.3345,77.5138 75.5012,81.5138 76,85.5C 77.597,92.4297 79.597,99.0963 82,105.5C 84.7792,108.279 87.6126,111.113 90.5,114C 92.1341,114.494 93.8008,114.66 95.5,114.5C 96.7759,115.386 96.7759,116.386 95.5,117.5C 92.059,116.538 88.7257,115.372 85.5,114C 81,108.833 76.5,103.667 72,98.5C 71.3333,99.8333 71.3333,101.167 72,102.5C 75.6247,107.957 79.7913,112.957 84.5,117.5C 85.1667,118.5 85.8333,119.5 86.5,120.5C 78.4777,115.3 72.311,108.3 68,99.5C 66.5479,96.2633 65.3812,92.93 64.5,89.5C 63.675,88.6143 62.675,88.281 61.5,88.5C 60.1667,88.5 59.5,87.8333 59.5,86.5C 63.0515,84.8892 66.0515,82.5558 68.5,79.5C 70.396,78.5344 72.396,78.2011 74.5,78.5C 74.2155,76.5853 74.5489,74.9187 75.5,73.5 Z"/></g>
<g><path style="opacity:1" fill="#f0f5f8" d="M 57.5,78.5 C 55.4561,79.5082 53.4561,80.5082 51.5,81.5C 47.9393,83.0478 44.606,85.0478 41.5,87.5C 38.5532,90.9662 35.2199,93.9662 31.5,96.5C 30.9101,95.234 30.4101,93.9007 30,92.5C 24.658,98.0089 19.158,103.342 13.5,108.5C 13.5,107.833 13.5,107.167 13.5,106.5C 21.969,98.1998 30.6357,90.0332 39.5,82C 43.5122,81.4877 46.1788,79.3211 47.5,75.5C 49.5273,75.6621 51.5273,75.4955 53.5,75C 56.2791,73.2776 59.2791,72.1109 62.5,71.5C 62.5,72.8333 62.5,74.1667 62.5,75.5C 60.0672,75.2729 58.4006,76.2729 57.5,78.5 Z"/></g>
<g><path style="opacity:1" fill="#c4cfdf" d="M 163.5,86.5 C 158.723,92.283 153.39,97.283 147.5,101.5C 148.752,99.9991 149.752,98.3325 150.5,96.5C 151.167,96.1667 151.833,95.8333 152.5,95.5C 155.895,92.0985 159.562,89.0985 163.5,86.5 Z"/></g>
<g><path style="opacity:0.936" fill="#7e89a0" d="M 169.5,67.5 C 170.272,69.5295 169.606,71.3629 167.5,73C 168.167,73.3333 168.833,73.6667 169.5,74C 167.996,75.4907 167.163,77.324 167,79.5C 161.597,84.3992 156.763,89.7326 152.5,95.5C 151.833,95.8333 151.167,96.1667 150.5,96.5C 147.083,99.0701 143.75,101.903 140.5,105C 138.372,105.655 136.372,106.489 134.5,107.5C 133.5,106.5 132.5,105.5 131.5,104.5C 147.43,95.5711 160.096,83.2377 169.5,67.5 Z"/></g>
<g><path style="opacity:1" fill="#c5c3c5" d="M 51.5,81.5 C 50.027,83.3947 48.3603,85.0613 46.5,86.5C 34.7667,94.2342 25.4334,104.234 18.5,116.5C 18.1667,116.5 17.8333,116.5 17.5,116.5C 17.5,115.833 17.5,115.167 17.5,114.5C 21.2,107.776 25.8667,101.776 31.5,96.5C 35.2199,93.9662 38.5532,90.9662 41.5,87.5C 44.606,85.0478 47.9393,83.0478 51.5,81.5 Z"/></g>
<g><path style="opacity:0.078" fill="#6c6366" d="M 193.5,53.5 C 194.167,56.1667 194.833,58.8333 195.5,61.5C 194.3,68.9298 191.8,75.9298 188,82.5C 175.275,101.441 158.775,116.107 138.5,126.5C 142.024,123.384 146.024,120.717 150.5,118.5C 151.429,117.311 151.762,115.978 151.5,114.5C 152.5,114.5 153.5,114.5 154.5,114.5C 154.5,113.5 154.5,112.5 154.5,111.5C 156.527,111.662 158.527,111.495 160.5,111C 166.818,104.403 173.318,97.9031 180,91.5C 184.911,84.7488 188.744,77.4154 191.5,69.5C 193.26,64.4469 193.927,59.1136 193.5,53.5 Z"/></g>
<g><path style="opacity:1" fill="#8e898c" d="M 46.5,86.5 C 37.1907,94.6452 28.6907,103.645 21,113.5C 20.5172,114.448 20.3505,115.448 20.5,116.5C 19.8333,117.167 19.1667,117.833 18.5,118.5C 18.5,117.833 18.5,117.167 18.5,116.5C 25.4334,104.234 34.7667,94.2342 46.5,86.5 Z"/></g>
<g><path style="opacity:1" fill="#f5fafb" d="M 31.5,96.5 C 25.8667,101.776 21.2,107.776 17.5,114.5C 15.917,115.936 14.417,117.602 13,119.5C 12.8251,123.766 11.8251,127.766 10,131.5C 9.33333,138.833 9.33333,146.167 10,153.5C 10.4238,156.025 11.5905,158.025 13.5,159.5C 13.6775,160.695 14.0109,161.862 14.5,163C 13.4655,163.253 12.4655,164.086 11.5,165.5C 12.3256,166.451 12.4922,167.451 12,168.5C 11.2411,166.937 10.0744,165.937 8.5,165.5C 6.62264,160.075 4.45597,154.741 2,149.5C 1.50051,143.509 1.33385,137.509 1.5,131.5C 1.33982,129.801 1.50649,128.134 2,126.5C 3.96303,122.912 5.6297,119.245 7,115.5C 9.37219,113.297 11.5389,110.963 13.5,108.5C 19.158,103.342 24.658,98.0089 30,92.5C 30.4101,93.9007 30.9101,95.234 31.5,96.5 Z"/></g>
<g><path style="opacity:1" fill="#eef6f9" d="M 117.5,95.5 C 119.182,103.518 120.849,111.518 122.5,119.5C 122.66,121.199 122.494,122.866 122,124.5C 118.69,132.453 114.857,140.12 110.5,147.5C 110.167,147.5 109.833,147.5 109.5,147.5C 109.435,144.514 110.602,142.18 113,140.5C 113.798,138.741 113.631,137.074 112.5,135.5C 110.156,139.676 106.989,143.01 103,145.5C 102.781,146.938 102.281,148.271 101.5,149.5C 95.7703,154.243 90.1036,158.91 84.5,163.5C 90.4673,157.363 96.3006,151.03 102,144.5C 103.481,141.89 104.648,139.223 105.5,136.5C 108.331,133.912 109.665,130.579 109.5,126.5C 110.451,125.081 110.784,123.415 110.5,121.5C 112.277,111.693 111.277,102.026 107.5,92.5C 107.167,90.5 106.833,88.5 106.5,86.5C 107.873,86.3433 109.207,86.51 110.5,87C 111.915,90.5824 114.248,93.4157 117.5,95.5 Z"/></g>
<g><path style="opacity:1" fill="#656063" d="M 59.5,86.5 C 59.5,87.8333 60.1667,88.5 61.5,88.5C 50.0047,96.4825 39.5047,105.816 30,116.5C 26.8454,120.48 24.3454,124.814 22.5,129.5C 20.0737,128.647 19.2404,126.981 20,124.5C 30.1166,108.548 43.2832,95.8813 59.5,86.5 Z"/></g>
<g><path style="opacity:1" fill="#bacce0" d="M 47.5,75.5 C 46.1788,79.3211 43.5122,81.4877 39.5,82C 30.6357,90.0332 21.969,98.1998 13.5,106.5C 14.075,104.589 15.075,102.922 16.5,101.5C 23.6364,94.5329 30.9697,87.6996 38.5,81C 41.1393,78.5173 44.1393,76.684 47.5,75.5 Z"/></g>
<g><path style="opacity:1" fill="#4d4848" d="M 191.5,69.5 C 188.744,77.4154 184.911,84.7488 180,91.5C 173.318,97.9031 166.818,104.403 160.5,111C 158.527,111.495 156.527,111.662 154.5,111.5C 154.5,112.5 154.5,113.5 154.5,114.5C 153.5,114.5 152.5,114.5 151.5,114.5C 151.762,115.978 151.429,117.311 150.5,118.5C 146.024,120.717 142.024,123.384 138.5,126.5C 136.254,127.455 133.921,128.122 131.5,128.5C 129.598,125.663 128.931,122.329 129.5,118.5C 139.079,117.572 147.079,113.572 153.5,106.5C 153.5,105.833 153.833,105.5 154.5,105.5C 161.421,98.9165 168.421,92.2498 175.5,85.5C 173.823,88.0245 172.323,90.6912 171,93.5C 166.769,96.943 162.769,100.61 159,104.5C 158.409,105.483 158.743,106.15 160,106.5C 170.15,99.0161 178.15,89.6828 184,78.5C 186.518,75.4293 189.018,72.4293 191.5,69.5 Z"/></g>
<g><path style="opacity:1" fill="#929fac" d="M 16.5,101.5 C 15.075,102.922 14.075,104.589 13.5,106.5C 13.5,107.167 13.5,107.833 13.5,108.5C 11.5389,110.963 9.37219,113.297 7,115.5C 5.6297,119.245 3.96303,122.912 2,126.5C 1.50649,128.134 1.33982,129.801 1.5,131.5C 0.512827,136.305 0.179494,141.305 0.5,146.5C 0.166667,146.5 -0.166667,146.5 -0.5,146.5C -0.5,138.833 -0.5,131.167 -0.5,123.5C 2.39528,116.708 6.06195,110.375 10.5,104.5C 12.5675,103.737 14.2341,102.404 15.5,100.5C 16.1067,100.624 16.44,100.957 16.5,101.5 Z"/></g>
<g><path style="opacity:1" fill="#9caece" d="M 117.5,91.5 C 118.923,93.5449 120.923,94.5449 123.5,94.5C 124.025,98.3334 125.025,102 126.5,105.5C 126.23,110.45 125.23,115.117 123.5,119.5C 122.832,113.157 121.999,106.824 121,100.5C 120.303,98.4156 119.136,96.7489 117.5,95.5C 117.5,94.1667 117.5,92.8333 117.5,91.5 Z"/></g>
<g><path style="opacity:0.314" fill="#797c80" d="M 96.5,82.5 C 97.391,83.1098 98.391,83.4431 99.5,83.5C 101.224,86.8361 103.224,90.0028 105.5,93C 106.287,95.0989 106.62,97.2655 106.5,99.5C 106.091,103.499 106.925,107.166 109,110.5C 109.499,115.823 109.666,121.156 109.5,126.5C 109.167,126.5 108.833,126.5 108.5,126.5C 108.5,123.5 108.5,120.5 108.5,117.5C 106.143,117.663 103.81,117.497 101.5,117C 99.8807,116.764 98.8807,115.931 98.5,114.5C 100.604,114.799 102.604,114.466 104.5,113.5C 103.873,112.583 103.539,111.583 103.5,110.5C 104.822,110.33 105.989,110.663 107,111.5C 107.322,109.311 106.822,107.311 105.5,105.5C 103.838,102.17 102.172,98.8362 100.5,95.5C 101.124,95.0831 101.457,94.4164 101.5,93.5C 99.5522,89.9394 97.8856,86.2728 96.5,82.5 Z"/></g>
<g><path style="opacity:1" fill="#ebf0f1" d="M 169.5,88.5 C 165.777,92.5518 162.11,96.5518 158.5,100.5C 153.649,101.111 150.649,103.778 149.5,108.5C 149.167,108.5 148.833,108.5 148.5,108.5C 145.593,109.529 142.926,111.029 140.5,113C 138.741,113.798 137.074,113.631 135.5,112.5C 140.146,109.52 144.146,105.853 147.5,101.5C 153.39,97.283 158.723,92.283 163.5,86.5C 167.957,81.0297 171.624,75.0297 174.5,68.5C 175.735,68.2786 176.735,67.6119 177.5,66.5C 178.647,68.7649 178.814,71.0982 178,73.5C 175.63,78.7924 172.797,83.7924 169.5,88.5 Z"/></g>
<g><path style="opacity:1" fill="#bebabc" d="M 158.5,100.5 C 157.084,102.179 155.75,103.846 154.5,105.5C 153.833,105.5 153.5,105.833 153.5,106.5C 151.938,106.733 150.605,107.4 149.5,108.5C 150.649,103.778 153.649,101.111 158.5,100.5 Z"/></g>
<g><path style="opacity:1" fill="#888a8d" d="M 103.5,110.5 C 103.539,111.583 103.873,112.583 104.5,113.5C 102.604,114.466 100.604,114.799 98.5,114.5C 95.2487,111.21 92.082,107.877 89,104.5C 88.6264,102.509 87.793,100.842 86.5,99.5C 86.1667,99.5 85.8333,99.5 85.5,99.5C 83.9253,95.3071 83.4253,90.9738 84,86.5C 87.7179,96.722 94.2179,104.722 103.5,110.5 Z"/></g>
<g><path style="opacity:1" fill="#94a1b0" d="M 150.5,96.5 C 149.752,98.3325 148.752,99.9991 147.5,101.5C 143.031,105.637 138.031,108.97 132.5,111.5C 130.827,113.761 131.16,115.428 133.5,116.5C 132.791,117.404 131.791,117.737 130.5,117.5C 130.5,115.833 130.5,114.167 130.5,112.5C 131.484,110.52 132.817,108.853 134.5,107.5C 136.372,106.489 138.372,105.655 140.5,105C 143.75,101.903 147.083,99.0701 150.5,96.5 Z"/></g>
<g><path style="opacity:1" fill="#bac1c5" d="M 99.5,83.5 C 102.91,85.9056 105.576,88.9056 107.5,92.5C 111.277,102.026 112.277,111.693 110.5,121.5C 111.345,113.62 110.011,106.287 106.5,99.5C 106.62,97.2655 106.287,95.0989 105.5,93C 103.224,90.0028 101.224,86.8361 99.5,83.5 Z"/></g>
<g><path style="opacity:1" fill="#9aa1a5" d="M 106.5,99.5 C 110.011,106.287 111.345,113.62 110.5,121.5C 110.784,123.415 110.451,125.081 109.5,126.5C 109.666,121.156 109.499,115.823 109,110.5C 106.925,107.166 106.091,103.499 106.5,99.5 Z"/></g>
<g><path style="opacity:1" fill="#c0d4eb" d="M 117.5,95.5 C 119.136,96.7489 120.303,98.4156 121,100.5C 121.999,106.824 122.832,113.157 123.5,119.5C 123.167,119.5 122.833,119.5 122.5,119.5C 120.849,111.518 119.182,103.518 117.5,95.5 Z"/></g>
<g><path style="opacity:1" fill="#c6ced3" d="M 147.5,101.5 C 144.146,105.853 140.146,109.52 135.5,112.5C 137.074,113.631 138.741,113.798 140.5,113C 142.926,111.029 145.593,109.529 148.5,108.5C 144.454,112.862 139.454,115.529 133.5,116.5C 131.16,115.428 130.827,113.761 132.5,111.5C 138.031,108.97 143.031,105.637 147.5,101.5 Z"/></g>
<g><path style="opacity:1" fill="#58585b" d="M 95.5,114.5 C 92.8347,111.665 90.3347,108.665 88,105.5C 86.872,103.655 86.372,101.655 86.5,99.5C 87.793,100.842 88.6264,102.509 89,104.5C 92.082,107.877 95.2487,111.21 98.5,114.5C 98.8807,115.931 99.8807,116.764 101.5,117C 103.81,117.497 106.143,117.663 108.5,117.5C 108.5,120.5 108.5,123.5 108.5,126.5C 108.672,127.492 108.338,128.158 107.5,128.5C 105.833,128.5 104.167,128.5 102.5,128.5C 98.3114,127.779 94.6448,126.113 91.5,123.5C 96.2778,125.648 101.278,126.981 106.5,127.5C 106.67,126.178 106.337,125.011 105.5,124C 97.9369,123.546 90.9369,121.38 84.5,117.5C 79.7913,112.957 75.6247,107.957 72,102.5C 71.3333,101.167 71.3333,99.8333 72,98.5C 76.5,103.667 81,108.833 85.5,114C 88.7257,115.372 92.059,116.538 95.5,117.5C 96.7759,116.386 96.7759,115.386 95.5,114.5 Z"/></g>
<g><path style="opacity:1" fill="#787576" d="M 59.5,86.5 C 43.2832,95.8813 30.1166,108.548 20,124.5C 19.2404,126.981 20.0737,128.647 22.5,129.5C 21.8333,131.167 21.1667,132.833 20.5,134.5C 18.5836,130.895 17.2503,126.895 16.5,122.5C 16.6596,120.847 17.3263,119.514 18.5,118.5C 19.1667,117.833 19.8333,117.167 20.5,116.5C 20.4346,116.938 20.6012,117.272 21,117.5C 29.5,107 39,97.5 49.5,89C 51.9624,86.464 54.9624,84.964 58.5,84.5C 59.2975,84.9569 59.6309,85.6236 59.5,86.5 Z"/></g>
<g><path style="opacity:0.912" fill="#363438" d="M 84.5,117.5 C 90.9369,121.38 97.9369,123.546 105.5,124C 106.337,125.011 106.67,126.178 106.5,127.5C 101.278,126.981 96.2778,125.648 91.5,123.5C 89.326,123.25 87.6594,122.25 86.5,120.5C 85.8333,119.5 85.1667,118.5 84.5,117.5 Z"/></g>
<g><path style="opacity:1" fill="#abafb2" d="M 126.5,105.5 C 127.434,106.568 127.768,107.901 127.5,109.5C 129.151,116.306 128.818,122.973 126.5,129.5C 123.215,129.269 120.715,130.603 119,133.5C 117.82,136.521 116.654,139.521 115.5,142.5C 114.512,143.795 113.512,145.128 112.5,146.5C 111.833,146.833 111.167,147.167 110.5,147.5C 114.857,140.12 118.69,132.453 122,124.5C 122.494,122.866 122.66,121.199 122.5,119.5C 122.833,119.5 123.167,119.5 123.5,119.5C 125.23,115.117 126.23,110.45 126.5,105.5 Z"/></g>
<g><path style="opacity:1" fill="#dde8f1" d="M 17.5,114.5 C 17.5,115.167 17.5,115.833 17.5,116.5C 14.7905,119.6 13.4571,123.267 13.5,127.5C 11.0982,132.44 10.0982,137.773 10.5,143.5C 10.6667,146.5 10.8333,149.5 11,152.5C 12.4114,154.65 13.2447,156.984 13.5,159.5C 11.5905,158.025 10.4238,156.025 10,153.5C 9.33333,146.167 9.33333,138.833 10,131.5C 11.8251,127.766 12.8251,123.766 13,119.5C 14.417,117.602 15.917,115.936 17.5,114.5 Z"/></g>
<g><path style="opacity:1" fill="#adb9c3" d="M 108.5,126.5 C 108.833,126.5 109.167,126.5 109.5,126.5C 109.665,130.579 108.331,133.912 105.5,136.5C 107.046,134.118 107.713,131.451 107.5,128.5C 108.338,128.158 108.672,127.492 108.5,126.5 Z"/></g>
<g><path style="opacity:1" fill="#b8c6dc" d="M 13.5,127.5 C 13.5,133.167 13.5,138.833 13.5,144.5C 13.2464,149.969 13.9131,155.303 15.5,160.5C 14.8333,160.167 14.1667,159.833 13.5,159.5C 13.2447,156.984 12.4114,154.65 11,152.5C 10.8333,149.5 10.6667,146.5 10.5,143.5C 10.0982,137.773 11.0982,132.44 13.5,127.5 Z"/></g>
<g><path style="opacity:1" fill="#f6f9f9" d="M 109.5,147.5 C 104.801,151.868 100.135,156.201 95.5,160.5C 94.3698,161.622 93.7031,162.956 93.5,164.5C 91.7446,165.072 90.0779,165.906 88.5,167C 84.9008,169.952 81.5675,173.118 78.5,176.5C 73.4298,178.711 68.4298,181.044 63.5,183.5C 52.3067,185.078 41.3067,184.245 30.5,181C 31.0253,180.308 31.6919,179.808 32.5,179.5C 40.7464,181.216 49.0798,181.716 57.5,181C 61.8003,180.144 65.467,178.311 68.5,175.5C 68.5,175.167 68.5,174.833 68.5,174.5C 74.5031,171.83 79.8364,168.163 84.5,163.5C 90.1036,158.91 95.7703,154.243 101.5,149.5C 102.281,148.271 102.781,146.938 103,145.5C 106.989,143.01 110.156,139.676 112.5,135.5C 113.631,137.074 113.798,138.741 113,140.5C 110.602,142.18 109.435,144.514 109.5,147.5 Z"/></g>
<g><path style="opacity:1" fill="#a0a7ac" d="M 17.5,116.5 C 17.8333,116.5 18.1667,116.5 18.5,116.5C 18.5,117.167 18.5,117.833 18.5,118.5C 17.3263,119.514 16.6596,120.847 16.5,122.5C 13.7429,125.973 13.9096,129.306 17,132.5C 17.4988,136.486 17.6655,140.486 17.5,144.5C 16.5,144.5 15.5,144.5 14.5,144.5C 14.1667,144.5 13.8333,144.5 13.5,144.5C 13.5,138.833 13.5,133.167 13.5,127.5C 13.4571,123.267 14.7905,119.6 17.5,116.5 Z"/></g>
<g><path style="opacity:0.84" fill="#8f8f90" d="M 16.5,122.5 C 17.2503,126.895 18.5836,130.895 20.5,134.5C 18.915,141.733 19.5817,148.733 22.5,155.5C 20.4862,155.608 18.8195,154.942 17.5,153.5C 17.4832,150.116 16.4832,147.116 14.5,144.5C 15.5,144.5 16.5,144.5 17.5,144.5C 17.6655,140.486 17.4988,136.486 17,132.5C 13.9096,129.306 13.7429,125.973 16.5,122.5 Z"/></g>
<g><path style="opacity:0.876" fill="#848e9d" d="M 102.5,128.5 C 104.167,128.5 105.833,128.5 107.5,128.5C 107.713,131.451 107.046,134.118 105.5,136.5C 102.844,141.121 99.6769,145.454 96,149.5C 87.2332,158.434 78.0666,166.767 68.5,174.5C 66.7085,174.366 65.0418,174.699 63.5,175.5C 64.4737,173.915 65.9737,172.915 68,172.5C 68.49,171.207 68.6567,169.873 68.5,168.5C 83.5733,158.76 95.5733,146.093 104.5,130.5C 103.757,129.818 103.091,129.151 102.5,128.5 Z"/></g>
<g><path style="opacity:1" fill="#848181" d="M 153.5,106.5 C 147.079,113.572 139.079,117.572 129.5,118.5C 128.931,122.329 129.598,125.663 131.5,128.5C 129.271,131.19 127.604,134.19 126.5,137.5C 126.5,136.167 126.5,134.833 126.5,133.5C 124.738,133.357 123.071,133.691 121.5,134.5C 119.829,137.492 117.829,140.159 115.5,142.5C 116.654,139.521 117.82,136.521 119,133.5C 120.715,130.603 123.215,129.269 126.5,129.5C 128.818,122.973 129.151,116.306 127.5,109.5C 128.29,110.609 128.79,111.942 129,113.5C 129.383,112.944 129.883,112.611 130.5,112.5C 130.5,114.167 130.5,115.833 130.5,117.5C 131.791,117.737 132.791,117.404 133.5,116.5C 139.454,115.529 144.454,112.862 148.5,108.5C 148.833,108.5 149.167,108.5 149.5,108.5C 150.605,107.4 151.938,106.733 153.5,106.5 Z"/></g>
<g><path style="opacity:1" fill="#c8c2c5" d="M 109.5,147.5 C 109.833,147.5 110.167,147.5 110.5,147.5C 106.455,151.38 102.955,155.713 100,160.5C 97.7218,161.719 95.5551,163.052 93.5,164.5C 93.7031,162.956 94.3698,161.622 95.5,160.5C 100.135,156.201 104.801,151.868 109.5,147.5 Z"/></g>
<g><path style="opacity:1" fill="#b4c3d8" d="M 105.5,136.5 C 104.648,139.223 103.481,141.89 102,144.5C 96.3006,151.03 90.4673,157.363 84.5,163.5C 79.8364,168.163 74.5031,171.83 68.5,174.5C 78.0666,166.767 87.2332,158.434 96,149.5C 99.6769,145.454 102.844,141.121 105.5,136.5 Z"/></g>
<g><path style="opacity:0.975" fill="#5a5456" d="M 126.5,137.5 C 122.543,147.967 116.71,157.3 109,165.5C 100.026,175.659 89.5257,183.659 77.5,189.5C 79.5901,187.61 81.9235,185.943 84.5,184.5C 85.3184,182.892 85.9851,181.225 86.5,179.5C 97.2034,170.629 107.037,160.963 116,150.5C 116.85,148.99 117.683,147.49 118.5,146C 118.167,145.5 117.833,145 117.5,144.5C 112.117,150.213 106.784,155.88 101.5,161.5C 104.78,156.219 108.447,151.219 112.5,146.5C 113.512,145.128 114.512,143.795 115.5,142.5C 117.829,140.159 119.829,137.492 121.5,134.5C 123.071,133.691 124.738,133.357 126.5,133.5C 126.5,134.833 126.5,136.167 126.5,137.5 Z"/></g>
<g><path style="opacity:1" fill="#ccd0d0" d="M 1.5,131.5 C 1.33385,137.509 1.50051,143.509 2,149.5C 4.45597,154.741 6.62264,160.075 8.5,165.5C 3.28061,160.345 0.613948,154.012 0.5,146.5C 0.179494,141.305 0.512827,136.305 1.5,131.5 Z"/></g>
<g><path style="opacity:0.247" fill="#646265" d="M -0.5,146.5 C -0.166667,146.5 0.166667,146.5 0.5,146.5C 0.613948,154.012 3.28061,160.345 8.5,165.5C 8.5,166.167 8.5,166.833 8.5,167.5C 6.21252,166.381 4.37919,164.715 3,162.5C 2.51722,163.448 2.35055,164.448 2.5,165.5C 1.5,164.167 0.5,162.833 -0.5,161.5C -0.5,156.5 -0.5,151.5 -0.5,146.5 Z"/></g>
<g><path style="opacity:1" fill="#91a0bd" d="M 13.5,144.5 C 13.8333,144.5 14.1667,144.5 14.5,144.5C 16.4832,147.116 17.4832,150.116 17.5,153.5C 19.0304,160.91 22.6971,167.077 28.5,172C 32.0697,173.208 35.4031,174.708 38.5,176.5C 35.1933,175.949 31.8599,175.616 28.5,175.5C 24.511,170.179 20.1777,165.179 15.5,160.5C 13.9131,155.303 13.2464,149.969 13.5,144.5 Z"/></g>
<g><path style="opacity:1" fill="#c5d4e9" d="M 15.5,160.5 C 20.1777,165.179 24.511,170.179 28.5,175.5C 21.7381,172.73 17.4048,167.73 15.5,160.5 Z"/></g>
<g><path style="opacity:1" fill="#d0cbcb" d="M 93.5,164.5 C 89.0826,169.253 84.0826,173.253 78.5,176.5C 81.5675,173.118 84.9008,169.952 88.5,167C 90.0779,165.906 91.7446,165.072 93.5,164.5 Z"/></g>
<g><path style="opacity:1" fill="#929492" d="M 8.5,167.5 C 11.8333,170.167 14.8333,173.167 17.5,176.5C 13.5,174.5 10.5,171.5 8.5,167.5 Z"/></g>
<g><path style="opacity:1" fill="#918d8c" d="M 112.5,146.5 C 108.447,151.219 104.78,156.219 101.5,161.5C 100.29,161.932 99.2905,162.599 98.5,163.5C 91.5752,168.088 85.2418,173.422 79.5,179.5C 79.1667,179.5 78.8333,179.5 78.5,179.5C 72.4294,183.413 65.7628,185.746 58.5,186.5C 58.5,186.167 58.5,185.833 58.5,185.5C 60.1667,184.833 61.8333,184.167 63.5,183.5C 68.4298,181.044 73.4298,178.711 78.5,176.5C 84.0826,173.253 89.0826,169.253 93.5,164.5C 95.5551,163.052 97.7218,161.719 100,160.5C 102.955,155.713 106.455,151.38 110.5,147.5C 111.167,147.167 111.833,146.833 112.5,146.5 Z"/></g>
<g><path style="opacity:1" fill="#625b59" d="M 98.5,163.5 C 92.7582,169.578 86.4248,174.912 79.5,179.5C 85.2418,173.422 91.5752,168.088 98.5,163.5 Z"/></g>
<g><path style="opacity:1" fill="#798599" d="M 17.5,153.5 C 18.8195,154.942 20.4862,155.608 22.5,155.5C 29.4638,169.484 40.7971,175.317 56.5,173C 60.789,172.183 64.789,170.683 68.5,168.5C 68.6567,169.873 68.49,171.207 68,172.5C 65.9737,172.915 64.4737,173.915 63.5,175.5C 59.0469,177.982 54.2135,178.982 49,178.5C 45.8333,178.333 42.6667,178.167 39.5,178C 38.944,177.617 38.6107,177.117 38.5,176.5C 35.4031,174.708 32.0697,173.208 28.5,172C 22.6971,167.077 19.0304,160.91 17.5,153.5 Z"/></g>
<g><path style="opacity:1" fill="#e9eff2" d="M 13.5,159.5 C 14.1667,159.833 14.8333,160.167 15.5,160.5C 17.4048,167.73 21.7381,172.73 28.5,175.5C 30.7612,177.255 33.4278,178.422 36.5,179C 44.1667,179.667 51.8333,179.667 59.5,179C 62.2932,177.346 65.2932,176.179 68.5,175.5C 65.467,178.311 61.8003,180.144 57.5,181C 49.0798,181.716 40.7464,181.216 32.5,179.5C 31.6919,179.808 31.0253,180.308 30.5,181C 41.3067,184.245 52.3067,185.078 63.5,183.5C 61.8333,184.167 60.1667,184.833 58.5,185.5C 49.8154,185.536 41.1487,185.203 32.5,184.5C 27.6349,181.568 22.6349,178.901 17.5,176.5C 14.8333,173.167 11.8333,170.167 8.5,167.5C 8.5,166.833 8.5,166.167 8.5,165.5C 10.0744,165.937 11.2411,166.937 12,168.5C 12.4922,167.451 12.3256,166.451 11.5,165.5C 12.4655,164.086 13.4655,163.253 14.5,163C 14.0109,161.862 13.6775,160.695 13.5,159.5 Z"/></g>
<g><path style="opacity:0.996" fill="#4b4b4c" d="M 8.5,167.5 C 10.5,171.5 13.5,174.5 17.5,176.5C 21.4703,180.987 26.4703,183.653 32.5,184.5C 34.5625,185.776 36.8958,186.61 39.5,187C 46.0137,187.82 52.3471,187.653 58.5,186.5C 65.7628,185.746 72.4294,183.413 78.5,179.5C 77.2247,182.078 75.2247,183.911 72.5,185C 68.4073,186.242 64.4073,187.409 60.5,188.5C 47.1418,190.187 33.9751,188.854 21,184.5C 20.5,184.667 20,184.833 19.5,185C 20.3805,185.708 21.0472,186.542 21.5,187.5C 12.2861,182.622 5.95278,175.288 2.5,165.5C 2.35055,164.448 2.51722,163.448 3,162.5C 4.37919,164.715 6.21252,166.381 8.5,167.5 Z"/></g>
<g><path style="opacity:1" fill="#b3bfd7" d="M 68.5,174.5 C 68.5,174.833 68.5,175.167 68.5,175.5C 65.2932,176.179 62.2932,177.346 59.5,179C 51.8333,179.667 44.1667,179.667 36.5,179C 33.4278,178.422 30.7612,177.255 28.5,175.5C 31.8599,175.616 35.1933,175.949 38.5,176.5C 38.6107,177.117 38.944,177.617 39.5,178C 42.6667,178.167 45.8333,178.333 49,178.5C 54.2135,178.982 59.0469,177.982 63.5,175.5C 65.0418,174.699 66.7085,174.366 68.5,174.5 Z"/></g>
<g><path style="opacity:1" fill="#9ca09f" d="M 17.5,176.5 C 22.6349,178.901 27.6349,181.568 32.5,184.5C 26.4703,183.653 21.4703,180.987 17.5,176.5 Z"/></g>
<g><path style="opacity:0.999" fill="#464343" d="M 77.5,189.5 C 73.7476,192.043 69.7476,194.043 65.5,195.5C 62.8333,195.5 60.1667,195.5 57.5,195.5C 61.3862,194.51 65.3862,193.51 69.5,192.5C 69.3601,190.876 70.0267,189.71 71.5,189C 71.1667,188.667 70.8333,188.333 70.5,188C 67.1996,188.046 63.8663,188.212 60.5,188.5C 64.4073,187.409 68.4073,186.242 72.5,185C 75.2247,183.911 77.2247,182.078 78.5,179.5C 78.8333,179.5 79.1667,179.5 79.5,179.5C 86.4248,174.912 92.7582,169.578 98.5,163.5C 99.2905,162.599 100.29,161.932 101.5,161.5C 106.784,155.88 112.117,150.213 117.5,144.5C 117.833,145 118.167,145.5 118.5,146C 117.683,147.49 116.85,148.99 116,150.5C 107.037,160.963 97.2034,170.629 86.5,179.5C 85.9851,181.225 85.3184,182.892 84.5,184.5C 81.9235,185.943 79.5901,187.61 77.5,189.5 Z"/></g>
<g><path style="opacity:1" fill="#adafb1" d="M 32.5,184.5 C 41.1487,185.203 49.8154,185.536 58.5,185.5C 58.5,185.833 58.5,186.167 58.5,186.5C 52.3471,187.653 46.0137,187.82 39.5,187C 36.8958,186.61 34.5625,185.776 32.5,184.5 Z"/></g>
<g><path style="opacity:0.982" fill="#3c3c3d" d="M 60.5,188.5 C 63.8663,188.212 67.1996,188.046 70.5,188C 70.8333,188.333 71.1667,188.667 71.5,189C 70.0267,189.71 69.3601,190.876 69.5,192.5C 65.3862,193.51 61.3862,194.51 57.5,195.5C 50.1667,195.5 42.8333,195.5 35.5,195.5C 32.3755,193.775 29.0421,192.275 25.5,191C 23.9069,190.051 22.5736,188.885 21.5,187.5C 21.0472,186.542 20.3805,185.708 19.5,185C 20,184.833 20.5,184.667 21,184.5C 33.9751,188.854 47.1418,190.187 60.5,188.5 Z"/></g>
</svg>
